<svg width="344" height="404" viewBox="0 0 344 404" fill="none" xmlns="http://www.w3.org/2000/svg">
<path d="M237.912 86.2278L29.4429 108.152L57.4167 373.58L265.885 351.655L237.912 86.2278Z" fill="#EFECF3"/>
<path d="M245.86 91.9082L39.4717 122.831L75.9183 365.574L282.307 334.651L245.86 91.9082Z" fill="#F5F4F8"/>
<path d="M327.041 113.828C327.041 113.828 318.843 108.431 308.912 127.941C298.981 147.451 295.181 158.691 295.181 158.691C295.181 158.691 292.549 162.737 289.738 160.107C286.927 157.477 283.071 149.846 278.292 151.206C273.334 152.622 271.698 158.149 272.621 166.273C273.545 174.398 274.986 192.265 275.108 193.884C275.229 195.502 274.298 197.808 272.111 196.311C269.924 194.814 257.197 180.669 250.846 187.094C244.496 193.52 250.846 215.708 251.503 218.152C252.159 220.596 251.673 221.632 250.506 222.198C249.34 222.765 245.524 217.65 241.749 213.782C237.975 209.914 232.912 206.087 229.558 210.092C226.204 214.098 225.135 230.76 240.996 257.836L249.178 269.917L263.759 269.108C294.93 265.475 307.6 254.591 308.782 249.493C309.965 244.395 303.865 242.679 298.495 241.991C293.124 241.304 286.708 241.368 286.489 240.082C286.271 238.795 286.822 237.784 289.163 236.845C291.504 235.906 313.068 227.596 314.372 218.662C315.676 209.728 296.737 208.142 294.193 207.26C291.65 206.378 292.978 204.282 294.315 203.416C295.651 202.55 310.816 192.897 317.879 188.77C324.943 184.643 328.37 180.006 326.523 175.199C324.733 170.562 316.348 172.059 312.517 171.428C308.685 170.797 310.37 166.233 310.37 166.233C310.37 166.233 317.102 156.442 326.701 136.745C336.3 117.049 326.823 113.739 326.823 113.739" fill="#F5F4F8"/>
<path opacity="0.1" d="M318.099 131.289C318.099 131.289 318.042 131.434 317.912 131.709L317.345 132.931L315.11 137.649C313.165 141.695 310.306 147.562 306.75 154.78C299.637 169.208 289.682 189.042 278.551 210.939C267.421 232.837 257.409 252.695 250.199 267.09L241.709 284.157L239.457 288.794L238.842 289.999C238.704 290.266 238.623 290.396 238.623 290.396C238.623 290.396 238.68 290.25 238.801 289.975L239.376 288.753L241.612 284.084C243.556 280.038 246.408 274.171 249.964 266.953C257.076 252.517 267.064 232.65 278.171 210.737C289.277 188.824 299.305 168.998 306.523 154.594C310.095 147.4 313.003 141.582 315.004 137.528C316.001 135.529 316.778 133.967 317.321 132.891L317.929 131.693C318.034 131.426 318.099 131.289 318.099 131.289Z" fill="black"/>
<path opacity="0.1" d="M283.253 162.081C283.417 162.394 283.542 162.725 283.626 163.068C283.837 163.707 284.112 164.686 284.436 165.811C285.1 168.142 285.927 171.378 286.777 174.963C287.628 178.548 288.349 181.712 288.924 184.164C289.191 185.265 289.41 186.195 289.588 186.948C289.692 187.283 289.762 187.627 289.799 187.975C289.635 187.662 289.507 187.331 289.418 186.988C289.207 186.349 288.932 185.41 288.608 184.245C287.968 181.906 287.182 178.661 286.332 175.068C285.481 171.476 284.712 168.336 284.12 165.892C283.853 164.791 283.626 163.861 283.44 163.116C283.346 162.777 283.284 162.431 283.253 162.081Z" fill="black"/>
<path opacity="0.1" d="M291.142 188.235C291.142 188.114 297.711 186.115 305.893 183.76C314.075 181.406 320.741 179.609 320.774 179.714C320.806 179.82 314.204 181.843 306.022 184.189C297.841 186.536 291.174 188.357 291.142 188.235Z" fill="black"/>
<path opacity="0.1" d="M272.565 221.102C272.922 221.046 273.283 221.03 273.643 221.054H276.567C279.038 221.054 282.448 221.054 286.207 220.908C289.966 220.762 293.376 220.528 295.831 220.334L298.747 220.107C299.105 220.063 299.466 220.063 299.824 220.107C299.48 220.207 299.128 220.274 298.771 220.309C298.083 220.414 297.094 220.544 295.863 220.682C293.433 220.965 289.998 221.256 286.223 221.394C282.448 221.531 279.038 221.499 276.559 221.394C275.328 221.345 274.331 221.297 273.635 221.24C273.274 221.232 272.916 221.186 272.565 221.102Z" fill="black"/>
<path opacity="0.1" d="M260.225 199.015C260.444 199.262 260.635 199.534 260.792 199.824C261.173 200.447 261.643 201.224 262.202 202.131C263.376 204.089 264.332 207.447 266.706 209.818C268.439 212.836 269.994 215.58 271.096 217.578C271.598 218.509 272.028 219.31 272.384 219.949C272.561 220.232 272.699 220.537 272.797 220.856C272.578 220.609 272.388 220.337 272.23 220.047C271.841 219.426 271.372 218.657 270.821 217.74C269.646 215.79 268.05 213.071 266.317 210.053C264.583 207.034 263.028 204.291 261.926 202.301L260.638 199.962C260.459 199.666 260.32 199.348 260.225 199.015Z" fill="black"/>
<path opacity="0.1" d="M240.14 225.952C240.413 226.278 240.655 226.631 240.861 227.004L242.675 229.949C244.198 232.45 246.264 235.921 248.532 239.765C250.8 243.609 252.817 247.104 254.267 249.637C254.948 250.859 255.523 251.871 255.96 252.664C256.182 253.024 256.372 253.403 256.527 253.797C256.255 253.472 256.014 253.122 255.806 252.753L253.992 249.799C252.469 247.307 250.403 243.835 248.143 239.991C245.883 236.148 243.85 232.652 242.4 230.111C241.719 228.897 241.152 227.878 240.707 227.093C240.485 226.729 240.295 226.348 240.14 225.952Z" fill="black"/>
<path opacity="0.1" d="M256.322 253.019C256.773 252.952 257.228 252.919 257.683 252.922L261.393 252.809C264.52 252.696 268.846 252.534 273.609 252.226C278.372 251.919 282.69 251.53 285.809 251.223L289.503 250.867C289.953 250.8 290.408 250.773 290.863 250.786C290.424 250.9 289.978 250.984 289.527 251.037C288.66 251.174 287.396 251.352 285.841 251.538C282.73 251.927 278.421 252.348 273.641 252.671C268.862 252.995 264.536 253.1 261.393 253.125C259.83 253.125 258.558 253.125 257.683 253.125C257.227 253.134 256.771 253.098 256.322 253.019Z" fill="black"/>
<path d="M14.1933 246.958C15.6363 246.226 17.2124 245.792 18.8272 245.684C20.4419 245.575 22.062 245.794 23.5901 246.326C26.6507 247.408 29.422 249.177 31.6907 251.497C36.1785 255.835 38.9813 262.446 40.6015 268.491C33.7969 269.85 26.7574 265.95 23.3147 263.749C17.8629 260.269 10.1268 250.68 14.2014 246.974" fill="#FE9589"/>
<path d="M52.4219 269.896C50.8063 269.094 49.4313 267.88 48.4357 266.376C47.4401 264.873 46.8591 263.134 46.7514 261.335C46.6721 259.531 46.9528 257.729 47.5773 256.034C48.2017 254.339 49.1573 252.785 50.3886 251.463C51.5065 250.225 52.9889 249.092 54.6495 249.173C55.427 249.259 56.1675 249.551 56.7952 250.017C57.4229 250.483 57.9152 251.108 58.2219 251.827C58.8124 253.28 59.0053 254.863 58.7809 256.415C58.2705 261.732 56.8043 266.781 52.4624 269.896" fill="#FE9589"/>
<path d="M63.4133 286.806C63.0865 286.528 62.788 286.219 62.5223 285.883L60.1731 283.285C58.2451 281.068 55.4261 277.969 53.6115 273.761C52.0044 270.197 51.3727 266.271 51.7808 262.384C51.912 261.217 52.184 260.07 52.5908 258.969C52.7025 258.668 52.8295 258.374 52.9716 258.087C53.0607 257.892 53.1174 257.787 53.1336 257.795C52.6246 259.299 52.2691 260.849 52.0724 262.424C51.7687 266.255 52.4432 270.1 54.0328 273.599C55.7987 277.726 58.5448 280.834 60.4161 283.099C61.3639 284.232 62.1415 285.147 62.6519 285.794C62.9372 286.106 63.1922 286.445 63.4133 286.806Z" fill="#1F1B2D"/>
<path d="M20.7417 253.74C20.9122 253.822 21.0749 253.919 21.2277 254.031L22.5481 254.929C23.6984 255.738 25.3429 256.879 27.3599 258.328C31.4103 261.233 36.9268 265.32 42.9213 269.973C48.9158 274.625 54.2622 278.963 58.0776 282.151C59.9813 283.77 61.5123 285.048 62.5654 285.963L63.7643 287.023C64.0397 287.273 64.1774 287.403 64.1612 287.419C64.0002 287.326 63.8483 287.217 63.7076 287.095L62.452 286.1L57.8751 282.402C53.9544 279.262 48.6242 274.982 42.6135 270.361C36.6028 265.74 31.1267 261.589 27.1412 258.619L22.4185 255.107L21.1386 254.136C20.9914 254.02 20.8582 253.887 20.7417 253.74Z" fill="#1F1B2D"/>
<path d="M49.9034 279.365C46.5363 277.573 42.7907 276.608 38.9762 276.549C35.1616 276.49 31.3878 277.339 27.9668 279.025C26.2413 279.899 24.4187 281.372 24.5726 283.298C24.7265 285.224 26.776 286.397 28.6229 286.947C32.5299 288.016 36.6661 287.904 40.5097 286.627C44.3533 285.349 47.7319 282.963 50.2193 279.77" fill="#FE9589"/>
<path d="M33.1533 281.947C33.4852 281.716 33.841 281.521 34.2145 281.365C34.6337 281.141 35.0666 280.944 35.5106 280.774C36.0865 280.525 36.6761 280.309 37.2766 280.127C37.9964 279.881 38.7293 279.676 39.4718 279.512C40.3245 279.313 41.1871 279.159 42.0559 279.05C44.0533 278.827 46.0693 278.827 48.0666 279.05C50.062 279.298 52.022 279.776 53.9072 280.475C54.7373 280.783 55.5487 281.14 56.3374 281.543C57.0208 281.886 57.686 282.264 58.3302 282.676C58.9377 283.024 59.4157 283.436 59.8693 283.752C60.2548 284.028 60.6228 284.328 60.971 284.65C61.2874 284.892 61.5803 285.163 61.8459 285.459C61.773 285.54 60.5174 284.351 58.1601 282.918C57.5179 282.528 56.8554 282.171 56.1754 281.85C55.401 281.467 54.6059 281.126 53.7938 280.831C51.9355 280.167 50.0093 279.711 48.0504 279.471C46.0849 279.261 44.1025 279.261 42.137 279.471C41.2797 279.568 40.428 279.708 39.5852 279.892C38.7752 280.03 38.0623 280.256 37.3981 280.434C34.7248 281.227 33.1938 282.036 33.1533 281.947Z" fill="#1F1B2D"/>
<path d="M260.192 311.103C254.522 307.462 252.48 302.793 251.589 296.117C251.168 292.767 251.469 289.367 252.474 286.144C253.479 282.92 255.163 279.95 257.413 277.432C261.188 273.272 266.486 270.432 269.232 265.528C272.149 260.301 271.776 253.39 275.94 249.061C278.807 246.107 283.125 245.185 286.657 243.081C289.549 241.365 291.882 238.881 294.498 236.785C297.115 234.689 300.258 232.909 303.611 233.03C308.674 233.216 312.798 238.015 313.227 243.056C313.656 248.098 311.032 253.034 307.297 256.457C304.592 258.933 301.214 260.883 299.504 264.136C296.264 270.23 300.209 278.387 296.734 284.367C294.199 288.712 288.155 290.978 287.499 295.971C287.256 297.808 287.848 299.645 287.904 301.498C288.083 307.284 282.849 312.147 277.187 313.393C271.525 314.639 265.644 313.078 260.176 311.127" fill="#EFECF3"/>
<path opacity="0.2" d="M293.463 253.776C293.299 254.021 293.112 254.249 292.904 254.456L291.194 256.293C290.441 257.102 289.518 258.049 288.521 259.23C287.525 260.412 286.294 261.658 285.111 263.228C283.928 264.798 282.535 266.392 281.223 268.269C280.566 269.208 279.829 270.131 279.165 271.158L277.099 274.298C274.12 279.013 271.499 283.944 269.258 289.05C267.078 294.182 265.304 299.477 263.952 304.886C263.377 307.395 262.818 309.741 262.494 312.04C262.17 314.338 261.846 316.401 261.627 318.335C261.408 320.269 261.335 322.025 261.206 323.571C261.076 325.116 261.068 326.444 261.052 327.536C261.036 328.628 261.011 329.397 260.995 330.045C261.002 330.338 260.978 330.631 260.922 330.919C260.868 330.631 260.846 330.337 260.857 330.045C260.857 329.397 260.817 328.564 260.785 327.528C260.752 326.492 260.728 325.1 260.785 323.555C260.841 322.009 260.866 320.229 261.1 318.287C261.335 316.345 261.481 314.241 261.911 311.943C262.34 309.644 262.721 307.265 263.312 304.741C264.647 299.284 266.421 293.945 268.618 288.775C270.875 283.634 273.532 278.677 276.565 273.95L278.663 270.81C279.343 269.791 280.088 268.86 280.761 267.929C282.105 266.06 283.491 264.426 284.738 262.92C285.986 261.415 287.168 260.129 288.23 258.971C289.291 257.814 290.214 256.868 291 256.107C291.786 255.346 292.337 254.804 292.806 254.359C293.005 254.143 293.225 253.948 293.463 253.776Z" fill="black"/>
<path d="M265.249 106.213H56.5518V351.672H265.249V106.213Z" fill="white"/>
<path d="M265.256 351.671C265.256 350.053 265.175 252.47 265.061 106.213L265.256 106.399H56.5748L56.7854 106.188C56.7854 196.82 56.7854 281.229 56.7854 351.647L56.6072 351.469L265.313 351.647L56.6072 351.825H56.3804V351.647C56.3804 281.245 56.3804 196.812 56.3804 106.188V105.978H56.6153H265.296H265.483V106.172C265.329 252.47 265.256 350.044 265.256 351.671Z" fill="#1F1B2D"/>
<path d="M157.504 219.617C157.504 219.617 157.504 219.455 157.504 219.164C157.504 218.873 157.504 218.42 157.504 217.853C157.504 216.688 157.504 214.989 157.504 212.788C157.504 208.377 157.455 201.968 157.423 193.909L157.56 194.038L75.6706 194.119L75.8813 193.909C75.8813 202.81 75.8813 211.469 75.8813 219.617L75.6788 219.415L134.206 219.504L151.347 219.561H155.956H157.155H157.568H157.179H155.94H151.379L134.287 219.625L75.6139 219.714H75.4033V193.698H75.6139L157.504 193.771H157.641V193.909C157.641 202.001 157.585 208.474 157.568 212.868C157.568 215.053 157.568 216.745 157.568 217.902C157.568 218.46 157.568 218.889 157.568 219.188C157.568 219.488 157.504 219.617 157.504 219.617Z" fill="#1F1B2D"/>
<path d="M248.15 254.437C248.15 254.437 248.15 253.863 248.15 252.746C248.15 251.629 248.15 249.978 248.15 247.802C248.15 243.456 248.15 237.039 248.093 228.728L248.199 228.834L75.6544 228.939L75.8651 228.728V254.437L75.6544 254.235L198.412 254.324L234.865 254.38H244.723H247.283H248.166C248.166 254.38 247.883 254.38 247.316 254.38H244.78H234.97L198.517 254.445L75.6139 254.534H75.4033V228.518H75.622L248.166 228.623H248.271V228.728C248.271 237.071 248.223 243.505 248.207 247.866C248.207 250.024 248.207 251.664 248.207 252.786C248.166 253.887 248.15 254.437 248.15 254.437Z" fill="#1F1B2D"/>
<path d="M248.15 289.022C248.15 289.022 248.15 288.439 248.15 287.331C248.15 286.222 248.15 284.555 248.15 282.386C248.15 278.033 248.15 271.624 248.093 263.313L248.199 263.41L75.6544 263.524L75.8651 263.313V289.022L75.6544 288.812L198.412 288.901L234.865 288.965H244.723H247.283H248.166H247.316H244.78H234.97L198.517 289.022L75.6139 289.119H75.4033V263.079H75.622L248.166 263.192H248.271V263.297C248.271 271.632 248.223 278.065 248.207 282.427C248.207 284.585 248.207 286.225 248.207 287.347C248.166 288.472 248.15 289.022 248.15 289.022Z" fill="#1F1B2D"/>
<path d="M248.148 219.616C248.148 219.616 248.148 219.454 248.148 219.163C248.148 218.872 248.148 218.418 248.148 217.852C248.148 216.687 248.148 214.987 248.148 212.786C248.148 208.376 248.148 201.967 248.075 193.907L248.213 194.037L166.323 194.118L166.534 193.907V219.616L166.323 219.414L224.859 219.503L242 219.559H246.609H247.808H248.221H247.832H246.585H242.024L224.932 219.624L166.25 219.713H166.048V219.511C166.048 211.362 166.048 202.712 166.048 193.802V193.592H166.267L248.156 193.665H248.294V193.802C248.294 201.894 248.237 208.368 248.213 212.762C248.213 214.947 248.213 216.638 248.213 217.795C248.213 218.354 248.213 218.783 248.213 219.082C248.213 219.381 248.148 219.616 248.148 219.616Z" fill="#1F1B2D"/>
<path d="M92.7635 210.483C92.5567 210.51 92.3483 210.524 92.1398 210.524L90.2928 210.58C88.6727 210.629 86.3559 210.693 83.5693 210.726H83.3101L83.3911 210.483C83.6265 209.66 84.0733 208.912 84.6872 208.314C85.3796 207.692 86.2431 207.292 87.166 207.165L87.1174 207.562C86.5985 207.335 86.1515 206.971 85.8246 206.509C85.4977 206.047 85.3033 205.504 85.2623 204.94C85.2063 204.306 85.3424 203.67 85.653 203.114C85.9636 202.559 86.4343 202.109 87.0039 201.824C87.5476 201.576 88.1573 201.51 88.7416 201.637C89.3259 201.764 89.8532 202.077 90.2442 202.529C90.5917 202.927 90.8361 203.405 90.9562 203.92C91.0762 204.435 91.0682 204.971 90.9328 205.482C90.8216 205.926 90.6097 206.339 90.3133 206.689C90.0169 207.038 89.644 207.315 89.2235 207.497V207.214C89.9456 207.32 90.6317 207.598 91.2244 208.023C91.6594 208.349 92.0279 208.756 92.3099 209.221C92.5641 209.607 92.7325 210.043 92.804 210.499C92.804 210.499 92.7392 210.378 92.6501 210.184C92.5139 209.88 92.3541 209.588 92.1721 209.31C91.8348 208.809 91.3914 208.389 90.8735 208.079C90.3556 207.768 89.7757 207.575 89.1749 207.513L88.6322 207.449L89.1425 207.23C89.5123 207.058 89.838 206.803 90.0948 206.486C90.3517 206.17 90.533 205.798 90.6249 205.401C90.7397 204.948 90.7421 204.474 90.632 204.02C90.5219 203.566 90.3026 203.146 89.9931 202.796C89.6505 202.418 89.1979 202.158 88.6992 202.052C88.2006 201.946 87.6812 202 87.2146 202.205C86.7241 202.455 86.32 202.846 86.0543 203.328C85.7886 203.81 85.6736 204.36 85.724 204.908C85.7591 205.4 85.9287 205.873 86.2144 206.275C86.5001 206.677 86.8909 206.994 87.3442 207.19L88.0327 207.465L87.2956 207.586C86.4511 207.697 85.6602 208.061 85.0274 208.63C84.4552 209.174 84.0338 209.857 83.8042 210.613L83.626 210.378C86.3235 210.378 88.5917 210.378 90.2199 210.435H92.1154C92.3323 210.436 92.5488 210.453 92.7635 210.483Z" fill="#FE9589"/>
<path d="M188.764 210.479C188.56 210.507 188.355 210.521 188.149 210.52L186.294 210.577C184.673 210.625 182.365 210.69 179.57 210.722H179.319L179.392 210.479C179.627 209.656 180.074 208.908 180.688 208.311C181.378 207.682 182.242 207.276 183.167 207.145L183.118 207.542C182.6 207.315 182.154 206.95 181.829 206.488C181.503 206.026 181.31 205.484 181.271 204.92C181.211 204.287 181.344 203.65 181.654 203.094C181.963 202.537 182.434 202.088 183.005 201.805C183.549 201.557 184.158 201.492 184.742 201.619C185.326 201.746 185.853 202.058 186.245 202.509C186.591 202.908 186.834 203.386 186.953 203.901C187.071 204.416 187.062 204.952 186.925 205.462C186.814 205.907 186.602 206.319 186.306 206.669C186.01 207.018 185.637 207.295 185.216 207.477V207.194C185.938 207.3 186.624 207.578 187.217 208.003C187.654 208.327 188.023 208.734 188.303 209.201C188.557 209.587 188.725 210.023 188.797 210.479C188.797 210.479 188.732 210.358 188.643 210.164C188.513 209.857 188.353 209.564 188.165 209.29C187.829 208.79 187.387 208.369 186.871 208.059C186.354 207.748 185.775 207.555 185.176 207.493L184.633 207.429L185.135 207.21C185.505 207.037 185.831 206.782 186.089 206.466C186.347 206.149 186.531 205.778 186.626 205.381C186.739 204.928 186.739 204.454 186.628 204C186.516 203.546 186.296 203.126 185.986 202.776C185.649 202.393 185.197 202.129 184.698 202.022C184.199 201.916 183.679 201.973 183.215 202.185C182.723 202.433 182.316 202.823 182.049 203.306C181.782 203.788 181.666 204.339 181.717 204.888C181.752 205.38 181.921 205.853 182.207 206.255C182.493 206.658 182.884 206.974 183.337 207.17L184.025 207.445L183.288 207.566C182.444 207.677 181.653 208.041 181.02 208.61C180.45 209.155 180.031 209.838 179.805 210.593L179.627 210.358C182.324 210.358 184.592 210.358 186.213 210.415H188.116C188.333 210.421 188.55 210.443 188.764 210.479Z" fill="#FE9589"/>
<path d="M91.2171 273.939C91.1784 273.766 91.154 273.59 91.1442 273.413C91.1492 272.986 91.049 272.563 90.8525 272.183C90.6981 271.911 90.4836 271.678 90.2253 271.501C89.967 271.325 89.6717 271.209 89.362 271.164C88.9881 271.114 88.6076 271.171 88.2649 271.328C87.9221 271.486 87.6312 271.738 87.426 272.054C87.2474 272.325 87.1414 272.637 87.1181 272.96C87.1181 273.3 87.1181 273.624 87.1181 273.947L86.9237 273.745C88.368 273.737 89.8117 273.802 91.2495 273.939C89.8132 274.097 88.3684 274.165 86.9237 274.142H86.7212V273.939C86.7212 273.616 86.7212 273.3 86.7212 272.928C86.7432 272.535 86.869 272.155 87.0857 271.827C87.3326 271.443 87.6866 271.14 88.104 270.954C88.5215 270.769 88.9841 270.709 89.4349 270.783C89.798 270.842 90.1415 270.988 90.4363 271.207C90.7311 271.427 90.9683 271.715 91.128 272.046C91.3364 272.487 91.4015 272.982 91.3143 273.462C91.2819 273.81 91.2171 273.964 91.2171 273.939Z" fill="#FE9589"/>
<path d="M89.8128 279.199C89.6608 278.893 89.5308 278.577 89.424 278.252V278.163L89.5131 278.098C89.6421 277.998 89.7297 277.853 89.7595 277.692C89.7894 277.531 89.7594 277.365 89.6751 277.225C89.6328 277.137 89.5704 277.06 89.493 277.001C89.4156 276.941 89.3253 276.901 89.2294 276.883C89.1335 276.864 89.0347 276.869 88.9409 276.896C88.8471 276.923 88.7609 276.971 88.6893 277.037C88.6176 277.104 88.5626 277.186 88.5285 277.277C88.4944 277.369 88.4823 277.467 88.4931 277.564C88.5039 277.661 88.5373 277.754 88.5907 277.835C88.644 277.917 88.7158 277.985 88.8003 278.034L88.9299 278.107L88.8894 278.244L88.6463 279.207L88.4924 279.013C88.9436 279.034 89.3929 279.085 89.8371 279.167C89.4002 279.291 88.9464 279.345 88.4924 279.328H88.298V279.118C88.3628 278.794 88.4195 278.471 88.4762 278.139L88.5653 278.349C88.4364 278.271 88.3266 278.165 88.2437 278.039C88.1608 277.912 88.1069 277.77 88.086 277.62C88.0651 277.471 88.0776 277.319 88.1227 277.175C88.1677 277.031 88.2442 276.898 88.3466 276.788C88.459 276.663 88.601 276.569 88.7597 276.513C88.9183 276.458 89.0883 276.444 89.2539 276.472C89.4061 276.496 89.5507 276.555 89.677 276.643C89.8032 276.732 89.9078 276.847 89.9829 276.982C90.1051 277.202 90.1371 277.46 90.0721 277.703C90.0071 277.946 89.8503 278.155 89.6346 278.285L89.6994 278.131C89.8036 278.477 89.842 278.839 89.8128 279.199Z" fill="#FE9589"/>
<path d="M91.8192 273.948C91.9369 273.925 92.0579 273.925 92.1756 273.948C92.4696 274.037 92.7323 274.207 92.9331 274.439C93.1338 274.671 93.2645 274.955 93.3097 275.259C93.3097 275.542 93.3097 275.817 93.3097 276.133C93.3097 276.772 93.3097 277.476 93.3097 278.253C93.3097 278.649 93.3097 279.062 93.3097 279.483C93.3405 279.945 93.3242 280.408 93.2611 280.867C93.1901 281.124 93.0602 281.361 92.8816 281.559C92.7031 281.757 92.4807 281.91 92.2323 282.008C91.9753 282.111 91.6986 282.155 91.4222 282.137H90.6122H87.3719H86.5133C86.2644 282.149 86.0157 282.108 85.7838 282.017C85.552 281.926 85.3421 281.787 85.1682 281.609C84.9943 281.43 84.8604 281.217 84.7752 280.983C84.6901 280.749 84.6557 280.5 84.6744 280.252C84.6744 279.006 84.6744 277.824 84.6744 276.61V275.744C84.6493 275.435 84.688 275.124 84.7878 274.83C84.8974 274.539 85.0829 274.283 85.325 274.088C85.5672 273.893 85.8572 273.766 86.1649 273.721L86.0029 273.907C86.0029 273.519 86.0029 273.171 86.0029 272.775C86.0404 272.395 86.1533 272.026 86.335 271.69C86.7171 271.045 87.3314 270.57 88.0524 270.363C88.5957 270.167 89.1857 270.139 89.7451 270.283C90.3045 270.428 90.8072 270.738 91.1873 271.172C91.4336 271.444 91.6229 271.762 91.7439 272.109C91.865 272.455 91.9154 272.821 91.8921 273.187C91.8846 273.442 91.8603 273.696 91.8192 273.948C91.7791 273.699 91.7629 273.447 91.7706 273.195C91.7668 272.499 91.4973 271.831 91.0172 271.326C90.7307 271.025 90.3766 270.796 89.9841 270.658C89.5916 270.52 89.1719 270.478 88.7597 270.534C88.3475 270.59 87.9545 270.743 87.6133 270.981C87.272 271.218 86.9921 271.534 86.7968 271.901C86.6407 272.197 86.5444 272.522 86.5133 272.856C86.5133 273.187 86.5133 273.592 86.5133 273.964V274.126H86.3512C86.1135 274.164 85.89 274.264 85.7036 274.416C85.5172 274.568 85.3745 274.767 85.2901 274.992C85.2112 275.254 85.1837 275.529 85.2091 275.801V276.667C85.2091 277.84 85.2091 279.095 85.2091 280.308C85.1864 280.569 85.2392 280.83 85.3613 281.061C85.4835 281.292 85.6697 281.483 85.8976 281.611C86.1222 281.729 86.3731 281.787 86.6267 281.781H90.7418C91.2238 281.827 91.7099 281.799 92.1837 281.7C92.3793 281.624 92.5543 281.503 92.6949 281.347C92.8355 281.191 92.9378 281.004 92.9938 280.802C93.0529 280.376 93.0746 279.945 93.0586 279.515C93.0586 279.095 93.0586 278.706 93.0586 278.285C93.0586 277.476 93.0586 276.804 93.0586 276.165C93.0586 275.858 93.0586 275.55 93.0586 275.307C93.0377 275.08 92.9628 274.861 92.8399 274.668C92.5947 274.316 92.2334 274.061 91.8192 273.948Z" fill="#FE9589"/>
<path d="M95.3655 247.03C95.3416 246.823 95.3281 246.615 95.325 246.407C95.325 245.97 95.325 245.404 95.2683 244.716C95.2278 243.227 95.1792 241.179 95.1144 238.711L95.2845 238.881L82.9391 239.043L83.1173 238.8V239.885C83.1173 240.249 83.1173 240.613 83.1173 240.977C83.1173 241.697 83.1173 242.409 83.1173 243.105C83.1173 244.489 83.1173 245.832 83.1173 247.095L82.9229 246.909C86.5196 246.909 89.5816 246.909 91.7607 246.909H94.3205C94.637 246.901 94.9537 246.914 95.2683 246.949C94.9838 246.988 94.6967 247.004 94.4096 246.998L91.8903 247.079C89.7194 247.135 86.6087 247.208 82.9229 247.257H82.7366V247.062C82.7366 245.792 82.7366 244.457 82.688 243.065C82.688 242.369 82.688 241.657 82.688 240.937C82.688 240.581 82.688 240.216 82.688 239.852V238.76L82.8986 238.541L95.244 238.46H95.4141V238.63C95.4141 241.139 95.4141 243.219 95.4141 244.74C95.4141 245.412 95.4141 245.962 95.4141 246.358C95.4283 246.583 95.412 246.809 95.3655 247.03Z" fill="#FE9589"/>
<path d="M95.2663 238.714C94.7483 239.247 94.1754 239.725 93.5571 240.138C92.4716 240.947 90.9568 242.104 89.2637 243.326H88.9802L88.8992 243.27L88.7372 243.156L88.4213 242.938L87.8056 242.509L86.6472 241.7L84.695 240.292C84.0744 239.884 83.494 239.418 82.9614 238.9C83.6314 239.221 84.2689 239.606 84.8651 240.049L86.866 241.384L88.0405 242.193L88.6643 242.622L88.9802 242.841L89.1341 242.946L89.2151 243.003H89.2556H89.0288C90.7219 241.781 92.2691 240.688 93.4032 239.911C93.9868 239.457 94.6104 239.056 95.2663 238.714Z" fill="#FE9589"/>
<path d="M83.2588 247.144C83.7678 246.155 84.4021 245.236 85.1462 244.409C85.7819 243.491 86.5303 242.657 87.3739 241.925C86.8647 242.918 86.2274 243.84 85.4784 244.668C84.8454 245.583 84.0997 246.415 83.2588 247.144Z" fill="#FE9589"/>
<path d="M91.4004 241.925C92.2177 242.638 92.9393 243.454 93.5471 244.352C94.2665 245.165 94.8765 246.068 95.3616 247.039C94.5435 246.326 93.8219 245.51 93.2149 244.611C92.4941 243.8 91.884 242.896 91.4004 241.925Z" fill="#FE9589"/>
<path d="M245.996 302.317H77.7695C76.5795 302.317 75.6147 303.281 75.6147 304.469V326.44C75.6147 327.628 76.5795 328.592 77.7695 328.592H245.996C247.186 328.592 248.151 327.628 248.151 326.44V304.469C248.151 303.281 247.186 302.317 245.996 302.317Z" fill="#FE9589"/>
<g opacity="0.3">
<path opacity="0.3" d="M245.996 302.317H77.7695C76.5795 302.317 75.6147 303.281 75.6147 304.469V326.44C75.6147 327.628 76.5795 328.592 77.7695 328.592H245.996C247.186 328.592 248.151 327.628 248.151 326.44V304.469C248.151 303.281 247.186 302.317 245.996 302.317Z" fill="black"/>
</g>
<path d="M245.996 298.66H77.7695C76.5795 298.66 75.6147 299.624 75.6147 300.813V322.783C75.6147 323.972 76.5795 324.935 77.7695 324.935H245.996C247.186 324.935 248.151 323.972 248.151 322.783V300.813C248.151 299.624 247.186 298.66 245.996 298.66Z" fill="#FE9589"/>
<path d="M137.143 147.799C159.398 125.567 159.398 89.522 137.143 67.2902C114.887 45.0584 78.8044 45.0584 56.5491 67.2902C34.2939 89.522 34.2939 125.567 56.5491 147.799C78.8044 170.03 114.887 170.03 137.143 147.799Z" fill="#EFECF3"/>
<path d="M129.496 30.5983C128.499 31.8474 127.891 33.3611 127.747 34.9519C127.603 36.5427 127.93 38.1408 128.686 39.5482C129.398 40.8268 130.484 41.9759 130.646 43.4243C130.913 45.7792 128.629 47.8993 129.026 50.246C129.277 51.8644 130.646 52.973 131.391 54.4054C131.852 55.3369 132.038 56.38 131.927 57.413C131.817 58.4461 131.415 59.4264 130.768 60.2398C129.731 61.5021 128.102 62.3033 127.43 63.8003C126.928 64.9008 127.049 66.2279 126.62 67.3366C126.237 68.2045 125.636 68.9588 124.876 69.526C124.115 70.0933 123.22 70.4541 122.278 70.5734C120.384 70.8007 118.465 70.6939 116.608 70.2578L117.021 68.2105C116.669 68.7542 116.191 69.2042 115.626 69.5214C115.061 69.8387 114.428 70.0137 113.78 70.0312C112.483 70.0571 111.191 69.8656 109.957 69.4648C109.187 65.9933 108.434 62.3275 109.519 58.945C110.508 55.9024 112.841 53.5233 114.785 50.9824C116.943 48.1613 118.672 45.0361 119.913 41.7088C120.804 39.3216 121.444 36.8535 122.691 34.5878C123.939 32.322 125.931 30.3637 128.426 29.8862" fill="#1F1B2D"/>
<path d="M166.558 78.4186L155.282 79.2278L155.169 76.3308C155.018 74.8953 155.361 73.4513 156.141 72.2362C156.265 72.0223 156.356 71.7902 156.408 71.5483C156.489 70.6906 155.225 66.3856 154.788 64.8076C154.237 62.914 155.314 61.9106 155.736 62.6875C156.497 64.1036 158.514 70.1808 159.146 70.7796C159.778 71.3784 159.413 68.1982 159.413 68.1982C158.425 61.506 157.996 60.535 159.187 60.2841C160.556 59.9928 162.062 69.9542 162.062 69.9542C162.062 69.9542 161.86 68.5623 162.929 68.2791C163.998 67.9959 164.492 69.3635 164.492 69.3635C164.355 68.6594 165.367 68.5543 165.367 68.5543C167.895 68.9022 166.582 78.5076 166.582 78.5076L155.306 79.3168L149.903 116.986L144.136 108.157L129.084 118.887L142.653 135.072C143.832 136.473 145.315 137.587 146.99 138.328C148.664 139.07 150.486 139.42 152.317 139.352C155.31 139.244 158.155 138.021 160.292 135.925C162.429 133.829 163.705 131.011 163.869 128.023L166.558 78.4186Z" fill="#EB996E"/>
<path d="M157.737 78.5212C157.688 78.4645 158.288 77.9385 159.09 76.9513C159.555 76.3736 159.978 75.7623 160.353 75.1225C160.578 74.7446 160.783 74.3557 160.969 73.9572C161.197 73.5849 161.33 73.1627 161.358 72.7272C161.355 72.6262 161.322 72.5281 161.265 72.4449C161.208 72.3617 161.127 72.2967 161.034 72.2579C160.812 72.2207 160.584 72.2577 160.386 72.3631C159.943 72.5712 159.522 72.8233 159.13 73.1157C158.496 73.5944 157.948 74.1772 157.51 74.8393L157.38 75.0254L157.283 74.8312C157.051 74.4139 156.75 74.039 156.392 73.7226C156.392 73.7226 157.008 73.8682 157.534 74.7422H157.307C157.722 74.0187 158.272 73.3814 158.928 72.8648C159.337 72.5475 159.78 72.2762 160.248 72.0556C160.536 71.9033 160.869 71.8575 161.188 71.9261C161.359 71.9865 161.509 72.095 161.619 72.2386C161.73 72.3822 161.797 72.5547 161.811 72.7353C161.797 73.256 161.646 73.7637 161.374 74.2081C161.177 74.6108 160.958 75.0025 160.718 75.3814C160.318 76.0311 159.86 76.6432 159.349 77.2103C158.887 77.732 158.342 78.1748 157.737 78.5212Z" fill="#D1734A"/>
<path d="M162.2 70.4849C162.269 71.1737 162.269 71.8676 162.2 72.5565C162.2 73.2362 162.127 73.9888 162.079 74.7899C162.046 75.2155 162.046 75.6429 162.079 76.0684C162.079 76.465 162.459 76.8048 162.743 76.643C163.026 76.4811 163.188 75.9956 163.31 75.5667C163.431 75.1379 163.529 74.709 163.618 74.2963C163.796 73.4871 163.926 72.7264 164.047 72.1033C164.127 71.4153 164.287 70.739 164.525 70.0884C164.524 70.7804 164.462 71.4709 164.339 72.1519C164.258 72.783 164.161 73.5356 163.998 74.3772C163.926 74.7899 163.828 75.2269 163.707 75.68C163.668 75.9465 163.577 76.2026 163.437 76.4333C163.298 76.6639 163.115 76.8645 162.897 77.0233C162.749 77.0909 162.584 77.1123 162.423 77.0849C162.263 77.0575 162.115 76.9824 161.998 76.8696C161.791 76.6741 161.664 76.4088 161.641 76.1251C161.616 75.6714 161.632 75.2163 161.69 74.7656C161.771 73.9672 161.844 73.2227 161.908 72.5322C161.934 71.8415 162.032 71.1554 162.2 70.4849Z" fill="#D1734A"/>
<path d="M164.128 73.3585C164.192 73.3585 164.03 73.8278 164.079 74.5561C164.094 74.9578 164.214 75.3485 164.427 75.689C164.565 75.8266 164.662 75.8347 164.792 75.689C164.938 75.4692 165.062 75.2362 165.164 74.9931C165.679 73.7163 166.082 72.3979 166.371 71.0522C166.498 72.4742 166.217 73.9027 165.561 75.1711C165.445 75.4542 165.301 75.7252 165.132 75.9804C165.072 76.0571 164.996 76.1195 164.91 76.1629C164.823 76.2064 164.727 76.2297 164.63 76.2312C164.537 76.2277 164.447 76.2042 164.364 76.1622C164.282 76.1203 164.209 76.061 164.152 75.9884C163.99 75.7729 163.887 75.5192 163.852 75.2521C163.81 75.0389 163.791 74.8219 163.795 74.6047C163.771 73.7631 164.055 73.3342 164.128 73.3585Z" fill="#D1734A"/>
<path d="M116.64 144.171L117.693 160.55C85.6225 172.826 61.7985 152.458 61.7985 152.458L66.5941 137.803L67.4042 112.216L61.2476 119.037L58.3395 116.61L43.6692 104.407L40.5181 101.777L55.7716 85.6977C75.0593 64.9576 90.0698 71.2937 90.0698 71.2937L112.622 73.4058C112.622 73.4058 128.224 75.6149 135.774 89.2744C141.922 100.393 148.613 112.167 148.613 112.167L129.285 125.924L123.137 114.643L116.64 144.171Z" fill="#666276"/>
<path d="M39.8608 107.328C39.8608 108.291 39.8608 109.246 39.9175 110.217C40.0506 114.017 40.5662 117.793 41.4567 121.489V121.595C41.5701 122.056 41.6997 122.509 41.8293 122.962C42.3315 124.742 42.9958 126.312 43.6276 128.036C43.7087 128.254 43.7897 128.465 43.8788 128.683C45.9201 128.149 51.3395 123.019 57.9577 116.327L43.2712 104.091C41.3838 106.147 40.4927 107.085 39.8608 107.328Z" fill="#EB996E"/>
<path d="M110.573 75.5338C111.383 69.9502 112.299 64.0915 112.299 64.0915C112.299 64.0915 119.662 63.8892 122.449 54.7128C125.106 45.9571 126.499 25.0875 126.499 25.0875C121.673 22.333 116.119 21.1188 110.582 21.6077C105.045 22.0966 99.7902 24.2652 95.5224 27.8226L89.8519 73.2599C89.1958 78.5279 93.2137 83.2941 98.876 83.9577C104.587 84.6212 109.852 80.8503 110.573 75.5338Z" fill="#EB996E"/>
<path d="M121.592 40.8629C121.551 41.1772 121.39 41.4634 121.142 41.6612C120.894 41.859 120.579 41.9528 120.263 41.9229C120.108 41.9138 119.956 41.8736 119.816 41.8048C119.676 41.7359 119.552 41.6399 119.45 41.5222C119.348 41.4045 119.271 41.2677 119.223 41.1197C119.174 40.9717 119.157 40.8156 119.17 40.6606C119.212 40.3477 119.374 40.0635 119.622 39.8674C119.87 39.6713 120.184 39.5785 120.498 39.6086C120.653 39.6178 120.804 39.6577 120.944 39.726C121.083 39.7943 121.207 39.8897 121.309 40.0065C121.41 40.1232 121.488 40.2591 121.537 40.4062C121.585 40.5532 121.604 40.7085 121.592 40.8629Z" fill="#1F1B2D"/>
<path d="M123.727 39.7851C123.557 39.9227 122.739 39.1216 121.443 38.9759C120.147 38.8303 119.102 39.3239 119.013 39.1459C118.924 38.9678 119.142 38.7979 119.596 38.5551C120.211 38.2458 120.907 38.1328 121.589 38.2314C122.264 38.3238 122.894 38.6268 123.387 39.0973C123.719 39.421 123.808 39.7366 123.727 39.7851Z" fill="#1F1B2D"/>
<path d="M108.288 39.2644C108.247 39.5781 108.086 39.8636 107.837 40.0601C107.589 40.2565 107.274 40.3485 106.959 40.3164C106.804 40.3083 106.652 40.2691 106.512 40.2011C106.373 40.1331 106.248 40.0378 106.146 39.9208C106.044 39.8038 105.967 39.6675 105.919 39.5199C105.87 39.3724 105.852 39.2167 105.866 39.0621C105.906 38.7478 106.067 38.4616 106.315 38.2638C106.563 38.066 106.878 37.9721 107.194 38.002C107.349 38.0123 107.501 38.0532 107.64 38.1223C107.779 38.1915 107.903 38.2876 108.005 38.405C108.107 38.5224 108.184 38.6589 108.232 38.8064C108.281 38.9539 108.3 39.1096 108.288 39.2644Z" fill="#1F1B2D"/>
<path d="M110.136 38.3932C109.966 38.5308 109.148 37.7297 107.852 37.584C106.556 37.4384 105.511 37.9239 105.422 37.7459C105.333 37.5679 105.552 37.406 106.005 37.1632C106.621 36.8544 107.316 36.7415 107.998 36.8396C108.675 36.9259 109.307 37.2297 109.796 37.7054C110.12 38.0291 110.217 38.3366 110.136 38.3932Z" fill="#1F1B2D"/>
<path d="M113.904 48.4338C114.576 48.3558 115.26 48.3363 115.939 48.3759C116.251 48.3759 116.556 48.3759 116.64 48.2284C116.705 48.0079 116.676 47.779 116.556 47.5698C116.365 47.0429 116.167 46.4423 115.962 45.8417C115.146 43.3865 114.605 41.3791 114.75 41.3528C114.895 41.3265 115.672 43.3075 116.48 45.7626C116.678 46.3685 116.861 46.9428 117.036 47.496C117.181 47.7735 117.181 48.0773 117.036 48.3548C116.976 48.4263 116.893 48.4875 116.794 48.534C116.695 48.5805 116.583 48.6111 116.464 48.6235C116.285 48.6394 116.103 48.6394 115.923 48.6235C115.242 48.6178 114.564 48.5541 113.904 48.4338Z" fill="#1F1B2D"/>
<path d="M112.279 64.0931C107.835 63.5584 103.628 61.7988 100.128 59.0112C100.128 59.0112 102.291 65.8733 111.81 66.2941L112.279 64.0931Z" fill="#D1734A"/>
<path d="M116.757 22.1913C117.365 23.6722 116.409 25.4282 115.056 26.2374C113.629 26.9762 112.066 27.4168 110.463 27.5321C108.858 27.6581 107.323 28.2423 106.04 29.2153C103.837 31.214 104.42 34.0705 102.193 36.6681C101.674 37.398 100.962 37.9684 100.136 38.3145C99.3095 38.6606 98.4029 38.7687 97.5184 38.6264C95.7363 38.3755 93.4276 38.7882 92.5284 40.8436C91.6292 42.899 92.7147 44.4123 93.7111 46.2977C94.7075 48.1832 94.4402 50.1172 93.8731 52.1807C93.4681 53.6696 92.1882 54.8349 91.9047 56.3562C91.451 58.7839 93.5248 61.4866 92.1234 63.4773C90.722 65.468 87.1658 64.5859 85.6024 66.439C85.0353 67.0945 84.7113 68.0574 83.8769 68.3164C83.3581 68.3893 82.8296 68.2928 82.3702 68.0413L75.0796 64.9582C75.2659 64.2056 75.4603 63.4449 75.6547 62.6924C75.1159 63.2445 74.4532 63.6605 73.7214 63.9059C72.9897 64.1513 72.2099 64.2191 71.4467 64.1036C70.6835 63.9881 69.9588 63.6928 69.3326 63.2419C68.7064 62.791 68.1967 62.1977 67.8457 61.5109C69.3732 60.6247 70.7877 59.5568 72.0581 58.3307C73.3122 57.0827 74.0743 55.4251 74.2047 53.6616C74.2776 51.5252 73.1192 49.3646 73.7673 47.3335C74.6989 44.4284 78.6277 43.7002 80.3612 41.2078C81.9814 38.8773 81.4386 35.4947 83.1155 33.1885C85.0677 30.5181 89.1909 30.3967 91.4267 27.9529C92.9416 26.3345 93.2899 23.9068 94.3916 21.9404C95.8184 19.629 98.0476 17.9235 100.653 17.1499C103.242 16.3953 105.939 16.0808 108.633 16.2193C110.654 16.1243 112.668 16.5272 114.497 17.3927C116.255 18.3718 117.584 20.3787 117.171 22.3531" fill="#1F1B2D"/>
<path d="M97.5225 38.6482C96.5473 38.2939 95.4925 38.2183 94.4767 38.4297C93.969 38.5342 93.4871 38.7381 93.0588 39.0298C92.6305 39.3215 92.2644 39.6951 91.9816 40.1291C91.4632 41.0363 91.3069 42.1057 91.5442 43.1231C91.7874 44.1324 92.2523 45.0749 92.9051 45.8826C93.3234 46.4882 93.8784 46.9872 94.5253 47.3391C94.8538 47.5162 95.2212 47.6089 95.5945 47.6089C95.9678 47.6089 96.3353 47.5162 96.6638 47.3391" fill="#EB996E"/>
<path d="M96.128 44.6542C96.2415 44.7109 95.7149 45.2611 94.8319 44.8808C94.3713 44.6546 94.0147 44.2608 93.8355 43.7803C93.6318 43.2238 93.5409 42.6324 93.5682 42.0405C93.5791 41.4105 93.8146 40.805 94.2325 40.333C94.4091 40.1322 94.6294 39.9746 94.8766 39.8721C95.1238 39.7697 95.3912 39.7253 95.6582 39.7423C96.606 39.8475 96.8085 40.5515 96.7032 40.5515C96.5979 40.5515 96.2982 40.2359 95.6582 40.2926C95.2615 40.3875 94.9116 40.6204 94.6712 40.9496C94.4307 41.2788 94.3154 41.6827 94.3459 42.089C94.3459 43.141 94.5808 44.1363 95.0992 44.4519C95.6177 44.7675 96.0794 44.5895 96.128 44.6542Z" fill="#D1734A"/>
<path d="M116.793 22.7385C116.424 23.7505 116.416 24.8587 116.77 25.876C117.124 26.8933 117.819 27.7573 118.737 28.3221C119.79 28.929 121.086 29.1313 121.977 29.9405C122.807 30.8397 123.289 32.0042 123.338 33.2259C123.38 34.4347 123.607 35.6299 124.011 36.7702C124.232 37.3328 124.629 37.8094 125.142 38.1299C125.656 38.4503 126.259 38.5978 126.862 38.5505L128.895 32.5542C129.64 30.3532 130.394 27.9984 129.859 25.7245C129.098 22.4876 125.89 20.3675 122.682 19.4855C121.212 18.9639 119.606 18.9783 118.146 19.5259C116.752 20.1814 115.805 21.9535 116.526 23.3292" fill="#1F1B2D"/>
<path d="M110.662 35.1706C110.581 35.2677 110.297 35.1706 109.852 35.033C109.254 34.8953 108.642 34.8247 108.029 34.8226C107.413 34.8159 106.799 34.881 106.198 35.0169C105.737 35.1221 105.453 35.2434 105.388 35.1544C105.323 35.0654 105.493 34.7498 105.988 34.4666C106.625 34.1419 107.33 33.9727 108.045 33.9727C108.76 33.9727 109.466 34.1419 110.103 34.4666C110.524 34.7741 110.702 35.0978 110.662 35.1706Z" fill="#1F1B2D"/>
<path d="M122.452 36.7678C122.411 36.9944 121.569 37.0672 120.556 36.9216C119.544 36.7759 118.758 36.5008 118.758 36.2337C118.758 35.9667 119.641 35.9424 120.653 36.0881C121.666 36.2337 122.484 36.5412 122.452 36.7678Z" fill="#1F1B2D"/>
<path d="M94.1034 47.0806C94.1034 47.0806 94.1844 47.1372 94.3059 47.2829C94.4803 47.4956 94.6273 47.7294 94.7433 47.9788C95.1625 48.9064 95.2869 49.9401 95.0997 50.9405C94.8368 52.3967 94.3476 53.8028 93.6497 55.108C93.2627 55.8547 93.1372 56.7093 93.2933 57.5356C93.579 58.4031 93.9708 59.2321 94.4598 60.0037C94.9498 60.8142 95.1641 61.7613 95.0707 62.7036C94.9772 63.6458 94.5811 64.5325 93.9414 65.2312C93.3956 65.854 92.6718 66.2946 91.8676 66.4936C91.1878 66.6345 90.4961 66.7103 89.8019 66.7201C88.8273 66.6935 87.8648 66.9402 87.0234 67.4323C86.7348 67.6426 86.4806 67.8965 86.27 68.1848C86.27 68.1848 86.27 68.0796 86.3753 67.9178C86.5162 67.6782 86.7034 67.4691 86.9262 67.3028C87.7598 66.7364 88.7452 66.4346 89.7533 66.4369C90.4269 66.4075 91.0965 66.3181 91.7542 66.1699C92.4925 65.9754 93.1538 65.5604 93.6497 64.9803C94.1931 64.3482 94.5419 63.5726 94.6542 62.7469C94.7429 61.856 94.5442 60.96 94.0872 60.1898C93.5868 59.383 93.192 58.5155 92.9126 57.6084C92.752 56.7085 92.8944 55.7808 93.3176 54.9704C93.6659 54.1612 94.0467 53.5219 94.2816 52.8341C94.5227 52.2044 94.707 51.5544 94.8324 50.892C95.0337 49.9411 94.9578 48.9526 94.6137 48.0435C94.3302 47.4042 94.071 47.1048 94.1034 47.0806Z" fill="#1F1B2D"/>
<path d="M131.724 68.8647C131.562 68.9392 131.384 68.9725 131.206 68.9618C130.948 68.946 130.696 68.8784 130.465 68.763C130.234 68.6475 130.028 68.4867 129.861 68.2902C129.583 67.9877 129.378 67.6252 129.263 67.2308C129.147 66.8364 129.125 66.4208 129.197 66.0163C129.449 64.9715 129.995 64.02 130.768 63.2731C131.693 62.4309 132.51 61.4768 133.199 60.4327C133.528 59.84 133.688 59.1681 133.66 58.4906C133.613 57.7686 133.443 57.0599 133.158 56.3947C132.43 54.9556 131.781 53.4779 131.214 51.9684C130.962 51.1125 130.962 50.2024 131.214 49.3465C131.534 48.5197 131.939 47.7279 132.421 46.9836C132.882 46.288 133.067 45.4454 132.939 44.6207C132.721 43.8363 132.289 43.1277 131.692 42.5734C131.133 41.9746 130.517 41.4162 129.999 40.777C129.477 40.1498 129.1 39.4146 128.897 38.6245C128.581 37.1715 128.603 35.6654 128.962 34.2223C129.245 32.879 129.634 31.6652 129.877 30.5404C130.388 28.77 130.297 26.8805 129.618 25.1673C129.335 24.5669 128.952 24.0195 128.484 23.5488C128.484 23.5488 128.484 23.5488 128.597 23.6217C128.702 23.696 128.8 23.7799 128.889 23.8725C129.258 24.2462 129.555 24.6853 129.764 25.1673C130.112 25.8912 130.323 26.673 130.388 27.4735C130.46 28.529 130.379 29.5895 130.145 30.6213C129.91 31.7623 129.545 32.9842 129.278 34.3113C128.957 35.7039 128.957 37.151 129.278 38.5435C129.459 39.2779 129.805 39.9614 130.29 40.5423C130.784 41.1492 131.392 41.6914 131.975 42.3064C132.624 42.9048 133.097 43.6686 133.344 44.5155C133.486 45.4361 133.287 46.3766 132.785 47.1616C132.31 47.88 131.908 48.6446 131.586 49.4436C131.353 50.2361 131.353 51.0788 131.586 51.8713C132.141 53.3653 132.774 54.8293 133.482 56.2572C133.781 56.9662 133.954 57.7221 133.992 58.4906C134.017 59.2314 133.838 59.9648 133.474 60.6107C132.759 61.6707 131.912 62.6359 130.955 63.4834C130.204 64.181 129.665 65.0756 129.399 66.0648C129.319 66.4373 129.328 66.8232 129.425 67.1915C129.523 67.5598 129.705 67.9002 129.958 68.185C130.259 68.5689 130.698 68.8212 131.181 68.889C131.546 68.8647 131.724 68.8162 131.724 68.8647Z" fill="#1F1B2D"/>
<path d="M163.512 79.7744C162.985 79.0913 162.396 78.4575 161.754 77.8808C161.03 77.4145 160.269 77.0085 159.478 76.667C159.938 76.6392 160.399 76.7028 160.834 76.8542C161.269 77.0056 161.67 77.2418 162.014 77.5491C162.401 77.799 162.734 78.1252 162.992 78.5078C163.25 78.8904 163.427 79.3213 163.512 79.7744Z" fill="#D1734A"/>
<path d="M151.43 124.121C150.848 122.968 150.452 121.731 150.256 120.455C149.929 119.202 149.811 117.903 149.907 116.611C150.23 117.848 150.485 119.101 150.669 120.366C150.997 121.601 151.251 122.855 151.43 124.121Z" fill="#D1734A"/>
<path d="M99.7741 115.046C101.195 114.573 102.446 113.695 103.373 112.52C104.3 111.346 104.862 109.926 104.991 108.435C105.428 104.219 102.561 100.473 98.6805 100.06C94.8003 99.6471 91.2279 102.746 90.7904 106.962C90.6104 108.461 90.8772 109.979 91.5574 111.326C92.2376 112.674 93.3009 113.79 94.6139 114.537C88.5384 114.852 85.5979 118.583 84.1641 121.917C86.4105 125.076 89.7201 127.322 93.4879 128.245L97.8623 128.698C101.793 128.563 105.538 126.997 108.393 124.296C107.672 120.743 105.558 116.527 99.7741 115.046Z" fill="white"/>
<g opacity="0.3">
<path opacity="0.3" d="M67.4681 112.214L71.0648 108.508C71.0648 108.508 69.5095 135.293 68.4483 138.513C67.3871 141.734 61.8301 152.456 61.8301 152.456L66.6257 137.801L67.4681 112.214Z" fill="black"/>
</g>
<path d="M75.4306 103.97C75.5116 104.051 72.3524 107.474 68.3669 111.617C64.3814 115.76 61.0763 119.062 60.9872 118.981C60.8981 118.9 64.0735 115.477 68.0591 111.325C72.0446 107.174 75.3496 103.889 75.4306 103.97Z" fill="#1F1B2D"/>
<path d="M125.712 101.875C125.727 102.146 125.713 102.417 125.672 102.685C125.623 103.219 125.534 103.996 125.404 104.959C125.145 106.868 124.708 109.506 124.108 112.387C123.509 115.268 122.853 117.866 122.326 119.727C122.059 120.657 121.832 121.402 121.662 121.92C121.598 122.203 121.495 122.475 121.354 122.729C121.375 122.455 121.424 122.184 121.5 121.92C121.654 121.305 121.824 120.568 122.034 119.702C122.488 117.825 123.096 115.236 123.695 112.355C124.295 109.474 124.772 106.86 125.113 104.959C125.267 104.085 125.396 103.34 125.51 102.709C125.538 102.423 125.606 102.142 125.712 101.875Z" fill="#1F1B2D"/>
<path d="M109.577 49.0203C109.787 49.0203 109.577 50.4445 110.662 51.6017C111.748 52.7589 113.254 52.8236 113.238 53.0178C113.222 53.212 112.865 53.2444 112.226 53.1716C111.399 53.0724 110.635 52.6822 110.071 52.071C109.531 51.4857 109.241 50.7138 109.261 49.9185C109.277 49.3197 109.479 48.996 109.577 49.0203Z" fill="#1F1B2D"/>
<path d="M91.6014 28.0589C92.5286 26.9134 93.1252 25.5368 93.3269 24.0775C93.3323 23.0336 92.9571 22.0234 92.2714 21.2356C91.5856 20.4478 90.6362 19.9364 89.6006 19.7968C88.5545 19.7234 87.5151 20.0136 86.6588 20.6183C85.8025 21.223 85.1818 22.105 84.9022 23.1146C84.682 24.1394 84.7997 25.2079 85.2377 26.1603C85.6758 27.1127 86.4106 27.898 87.3324 28.3987C88.2736 28.8609 89.334 29.0242 90.3709 28.8665C91.4078 28.7088 92.3715 28.2378 93.1325 27.5167" fill="#1F1B2D"/>
<path d="M93.4563 23.8555C93.5666 24.9117 93.2776 25.9709 92.6462 26.8253C92.1263 27.7533 91.2763 28.4522 90.2646 28.7836C91.0127 28.1234 91.6912 27.3885 92.2898 26.5906C92.7714 25.7212 93.1622 24.8047 93.4563 23.8555Z" fill="#666276"/>
<path d="M119.517 176.415C130.876 176.415 140.085 167.216 140.085 155.869C140.085 144.521 130.876 135.323 119.517 135.323C108.158 135.323 98.9497 144.521 98.9497 155.869C98.9497 167.216 108.158 176.415 119.517 176.415Z" fill="#FE9589"/>
<g opacity="0.3">
<path opacity="0.3" d="M119.517 176.415C130.876 176.415 140.085 167.216 140.085 155.869C140.085 144.521 130.876 135.323 119.517 135.323C108.158 135.323 98.9497 144.521 98.9497 155.869C98.9497 167.216 108.158 176.415 119.517 176.415Z" fill="black"/>
</g>
<path d="M119.517 172.604C130.876 172.604 140.084 163.405 140.084 152.058C140.084 140.711 130.876 131.512 119.517 131.512C108.158 131.512 98.9492 140.711 98.9492 152.058C98.9492 163.405 108.158 172.604 119.517 172.604Z" fill="#FE9589"/>
<path d="M119.518 164.21C118.934 164.21 118.457 158.764 118.457 152.072C118.457 145.38 118.934 139.934 119.518 139.934C120.101 139.934 120.571 145.38 120.571 152.072C120.571 158.764 120.093 164.21 119.518 164.21Z" fill="white"/>
<path d="M131.717 152.058C131.717 152.64 126.273 153.11 119.566 153.11C112.858 153.11 107.415 152.64 107.415 152.058C107.415 151.475 112.858 151.006 119.566 151.006C126.273 151.006 131.717 151.475 131.717 152.058Z" fill="white"/>
</svg>
