<svg width="544" height="517" viewBox="0 0 544 517" fill="none" xmlns="http://www.w3.org/2000/svg">
<path d="M490.003 234.209H452.38V279.895H442.696V254.028H394.846V294.982H388.514V198.867H346.931V225.256H325.617V258.074H319.165V237.429H281.357V299.04H270.303V248.948H235.726V210.92H212.215V189.262H185.025V285.334H175.886V245.239H131.082V302.629H124.892V255.79H79.4568V213.585H53.9976V410.144H490.003V234.209Z" fill="#F5F4F8"/>
<path d="M479.025 248.687H485.39V239.952H479.025V248.687Z" fill="white"/>
<path d="M467.992 248.687H474.357V239.952H467.992V248.687Z" fill="white"/>
<path d="M456.949 248.687H463.314V239.952H456.949V248.687Z" fill="white"/>
<path d="M479.025 261.827H485.39V253.092H479.025V261.827Z" fill="white"/>
<path d="M467.992 261.827H474.357V253.092H467.992V261.827Z" fill="white"/>
<path d="M456.949 261.827H463.314V253.092H456.949V261.827Z" fill="white"/>
<path d="M479.025 274.967H485.39V266.233H479.025V274.967Z" fill="white"/>
<path d="M467.992 274.967H474.357V266.233H467.992V274.967Z" fill="white"/>
<path d="M456.949 274.967H463.314V266.233H456.949V274.967Z" fill="white"/>
<path d="M479.025 288.118H485.39V279.384H479.025V288.118Z" fill="white"/>
<path d="M467.992 288.118H474.357V279.384H467.992V288.118Z" fill="white"/>
<path d="M456.949 288.118H463.314V279.384H456.949V288.118Z" fill="white"/>
<path d="M258.629 262.491H264.993V255.203H258.629V262.491Z" fill="white"/>
<path d="M247.596 262.491H253.961V255.203H247.596V262.491Z" fill="white"/>
<path d="M236.553 262.491H242.918V255.203H236.553V262.491Z" fill="white"/>
<path d="M258.629 273.445H264.993V266.157H258.629V273.445Z" fill="white"/>
<path d="M247.596 273.445H253.961V266.157H247.596V273.445Z" fill="white"/>
<path d="M236.553 273.445H242.918V266.157H236.553V273.445Z" fill="white"/>
<path d="M258.629 284.409H264.993V277.121H258.629V284.409Z" fill="white"/>
<path d="M247.596 284.409H253.961V277.121H247.596V284.409Z" fill="white"/>
<path d="M236.553 284.409H242.918V277.121H236.553V284.409Z" fill="white"/>
<path d="M258.629 295.374H264.993V288.086H258.629V295.374Z" fill="white"/>
<path d="M247.596 295.374H253.961V288.086H247.596V295.374Z" fill="white"/>
<path d="M236.553 295.374H242.918V288.086H236.553V295.374Z" fill="white"/>
<path d="M258.629 306.611H264.993V299.323H258.629V306.611Z" fill="white"/>
<path d="M247.596 306.611H253.961V299.323H247.596V306.611Z" fill="white"/>
<path d="M236.553 306.611H242.918V299.323H236.553V306.611Z" fill="white"/>
<path d="M258.629 317.847H264.993V310.559H258.629V317.847Z" fill="white"/>
<path d="M247.596 317.847H253.961V310.559H247.596V317.847Z" fill="white"/>
<path d="M236.553 317.847H242.918V310.559H236.553V317.847Z" fill="white"/>
<path d="M258.629 329.073H264.993V321.785H258.629V329.073Z" fill="white"/>
<path d="M247.596 329.073H253.961V321.785H247.596V329.073Z" fill="white"/>
<path d="M236.553 329.073H242.918V321.785H236.553V329.073Z" fill="white"/>
<path d="M258.629 340.31H264.993V333.022H258.629V340.31Z" fill="white"/>
<path d="M247.596 340.31H253.961V333.022H247.596V340.31Z" fill="white"/>
<path d="M236.553 340.31H242.918V333.022H236.553V340.31Z" fill="white"/>
<path d="M400.613 265.09H437.256V259.63H400.613V265.09Z" fill="white"/>
<path d="M400.613 275.696H437.256V270.236H400.613V275.696Z" fill="white"/>
<path d="M400.613 286.291H437.256V280.83H400.613V286.291Z" fill="white"/>
<path d="M400.613 296.886H437.256V291.425H400.613V296.886Z" fill="white"/>
<path d="M400.613 307.492H437.256V302.031H400.613V307.492Z" fill="white"/>
<path d="M400.613 318.086H437.256V312.626H400.613V318.086Z" fill="white"/>
<path d="M400.613 328.692H437.256V323.232H400.613V328.692Z" fill="white"/>
<path d="M400.613 339.276H437.256V333.816H400.613V339.276Z" fill="white"/>
<path d="M136.762 255.79H170.457V250.329H136.762V255.79Z" fill="white"/>
<path d="M136.762 266.396H170.457V260.935H136.762V266.396Z" fill="white"/>
<path d="M136.762 277.001H170.457V271.541H136.762V277.001Z" fill="white"/>
<path d="M136.762 287.596H170.457V282.136H136.762V287.596Z" fill="white"/>
<path d="M136.762 298.191H170.457V292.731H136.762V298.191Z" fill="white"/>
<path d="M136.762 308.797H170.457V303.336H136.762V308.797Z" fill="white"/>
<path d="M136.762 319.392H170.457V313.931H136.762V319.392Z" fill="white"/>
<path d="M136.762 329.998H170.457V324.537H136.762V329.998Z" fill="white"/>
<path d="M136.762 340.06H170.457V334.599H136.762V340.06Z" fill="white"/>
<path d="M136.762 350.132H170.457V344.671H136.762V350.132Z" fill="white"/>
<path d="M136.762 360.205H170.457V354.744H136.762V360.205Z" fill="white"/>
<path d="M136.762 370.267H170.457V364.806H136.762V370.267Z" fill="white"/>
<path d="M136.762 380.339H170.457V374.879H136.762V380.339Z" fill="white"/>
<path d="M82.2965 268.593H117.885V263.132H82.2965V268.593Z" fill="white"/>
<path d="M82.2965 279.199H117.885V273.738H82.2965V279.199Z" fill="white"/>
<path d="M82.2965 289.804H117.885V284.344H82.2965V289.804Z" fill="white"/>
<path d="M82.2965 300.399H117.885V294.939H82.2965V300.399Z" fill="white"/>
<path d="M82.2965 310.994H117.885V305.534H82.2965V310.994Z" fill="white"/>
<path d="M82.2965 321.6H117.885V316.14H82.2965V321.6Z" fill="white"/>
<path d="M82.2965 332.195H117.885V326.734H82.2965V332.195Z" fill="white"/>
<path d="M82.2965 342.801H117.885V337.34H82.2965V342.801Z" fill="white"/>
<path d="M82.2965 352.286H117.885V346.825H82.2965V352.286Z" fill="white"/>
<path d="M82.2965 361.771H117.885V356.311H82.2965V361.771Z" fill="white"/>
<path d="M82.2965 371.257H117.885V365.796H82.2965V371.257Z" fill="white"/>
<path d="M296.785 247.654H308.1V242.378H296.785V247.654Z" fill="white"/>
<path d="M296.785 257.889H308.1V252.614H296.785V257.889Z" fill="white"/>
<path d="M296.785 268.125H308.1V262.85H296.785V268.125Z" fill="white"/>
<path d="M296.785 278.361H308.1V273.086H296.785V278.361Z" fill="white"/>
<path d="M296.785 288.597H308.1V283.321H296.785V288.597Z" fill="white"/>
<path d="M296.785 298.833H308.1V293.557H296.785V298.833Z" fill="white"/>
<path d="M296.785 309.069H308.1V303.793H296.785V309.069Z" fill="white"/>
<path d="M296.785 319.305H308.1V314.029H296.785V319.305Z" fill="white"/>
<path d="M281.39 247.654H292.705V242.378H281.39V247.654Z" fill="white"/>
<path d="M281.39 257.889H292.705V252.614H281.39V257.889Z" fill="white"/>
<path d="M281.39 268.125H292.705V262.85H281.39V268.125Z" fill="white"/>
<path d="M281.39 278.361H292.705V273.086H281.39V278.361Z" fill="white"/>
<path d="M281.39 288.597H292.705V283.321H281.39V288.597Z" fill="white"/>
<path d="M281.39 298.833H292.705V293.557H281.39V298.833Z" fill="white"/>
<path d="M281.39 309.069H292.705V303.793H281.39V309.069Z" fill="white"/>
<path d="M281.39 319.305H292.705V314.029H281.39V319.305Z" fill="white"/>
<path d="M370.41 212.725H382.204V204.404H370.41V212.725Z" fill="white"/>
<path d="M352.838 212.725H364.632V204.404H352.838V212.725Z" fill="white"/>
<path d="M370.41 224.941H382.204V216.62H370.41V224.941Z" fill="white"/>
<path d="M352.838 224.941H364.632V216.62H352.838V224.941Z" fill="white"/>
<path d="M370.41 237.167H382.204V228.846H370.41V237.167Z" fill="white"/>
<path d="M352.838 237.167H364.632V228.846H352.838V237.167Z" fill="white"/>
<path d="M370.41 249.383H382.204V241.062H370.41V249.383Z" fill="white"/>
<path d="M352.838 249.383H364.632V241.062H352.838V249.383Z" fill="white"/>
<path d="M370.41 261.61H382.204V253.288H370.41V261.61Z" fill="white"/>
<path d="M352.838 261.61H364.632V253.288H352.838V261.61Z" fill="white"/>
<path d="M370.41 273.836H382.204V265.515H370.41V273.836Z" fill="white"/>
<path d="M352.838 273.836H364.632V265.515H352.838V273.836Z" fill="white"/>
<path d="M370.41 286.052H382.204V277.73H370.41V286.052Z" fill="white"/>
<path d="M352.838 286.052H364.632V277.73H352.838V286.052Z" fill="white"/>
<path d="M370.41 298.278H382.204V289.957H370.41V298.278Z" fill="white"/>
<path d="M352.838 298.278H364.632V289.957H352.838V298.278Z" fill="white"/>
<path d="M331.046 237.167H342.84V228.846H331.046V237.167Z" fill="white"/>
<path d="M331.046 249.383H342.84V241.062H331.046V249.383Z" fill="white"/>
<path d="M331.046 261.61H342.84V253.288H331.046V261.61Z" fill="white"/>
<path d="M331.046 273.836H342.84V265.515H331.046V273.836Z" fill="white"/>
<path d="M331.046 286.052H342.84V277.73H331.046V286.052Z" fill="white"/>
<path d="M331.046 298.278H342.84V289.957H331.046V298.278Z" fill="white"/>
<path d="M370.41 310.353H382.204V302.031H370.41V310.353Z" fill="white"/>
<path d="M352.838 310.353H364.632V302.031H352.838V310.353Z" fill="white"/>
<path d="M331.046 310.353H342.84V302.031H331.046V310.353Z" fill="white"/>
<path d="M370.41 322.416H382.204V314.094H370.41V322.416Z" fill="white"/>
<path d="M352.838 322.416H364.632V314.094H352.838V322.416Z" fill="white"/>
<path d="M331.046 322.416H342.84V314.094H331.046V322.416Z" fill="white"/>
<path d="M370.41 334.49H382.204V326.169H370.41V334.49Z" fill="white"/>
<path d="M352.838 334.49H364.632V326.169H352.838V334.49Z" fill="white"/>
<path d="M331.046 334.49H342.84V326.169H331.046V334.49Z" fill="white"/>
<path d="M370.41 346.564H382.204V338.243H370.41V346.564Z" fill="white"/>
<path d="M352.838 346.564H364.632V338.243H352.838V346.564Z" fill="white"/>
<path d="M331.046 346.564H342.84V338.243H331.046V346.564Z" fill="white"/>
<path d="M370.41 358.638H382.204V350.317H370.41V358.638Z" fill="white"/>
<path d="M352.838 358.638H364.632V350.317H352.838V358.638Z" fill="white"/>
<path d="M331.046 358.638H342.84V350.317H331.046V358.638Z" fill="white"/>
<path d="M224.563 223.56H230.928V216.272H224.563V223.56Z" fill="white"/>
<path d="M213.531 223.56H219.896V216.272H213.531V223.56Z" fill="white"/>
<path d="M224.563 234.524H230.928V227.236H224.563V234.524Z" fill="white"/>
<path d="M213.531 234.524H219.896V227.236H213.531V234.524Z" fill="white"/>
<path d="M224.563 245.489H230.928V238.201H224.563V245.489Z" fill="white"/>
<path d="M213.531 245.489H219.896V238.201H213.531V245.489Z" fill="white"/>
<path d="M224.563 256.464H230.928V249.176H224.563V256.464Z" fill="white"/>
<path d="M213.531 256.464H219.896V249.176H213.531V256.464Z" fill="white"/>
<path d="M224.563 267.701H230.928V260.413H224.563V267.701Z" fill="white"/>
<path d="M213.531 267.701H219.896V260.413H213.531V267.701Z" fill="white"/>
<path d="M224.563 278.927H230.928V271.639H224.563V278.927Z" fill="white"/>
<path d="M213.531 278.927H219.896V271.639H213.531V278.927Z" fill="white"/>
<path d="M224.563 290.164H230.928V282.876H224.563V290.164Z" fill="white"/>
<path d="M213.531 290.164H219.896V282.876H213.531V290.164Z" fill="white"/>
<path d="M224.563 301.4H230.928V294.112H224.563V301.4Z" fill="white"/>
<path d="M213.531 301.4H219.896V294.112H213.531V301.4Z" fill="white"/>
<path d="M224.563 312.756H230.928V305.468H224.563V312.756Z" fill="white"/>
<path d="M213.531 312.756H219.896V305.468H213.531V312.756Z" fill="white"/>
<path d="M224.563 324.102H230.928V316.814H224.563V324.102Z" fill="white"/>
<path d="M213.531 324.102H219.896V316.814H213.531V324.102Z" fill="white"/>
<path d="M224.563 335.458H230.928V328.17H224.563V335.458Z" fill="white"/>
<path d="M213.531 335.458H219.896V328.17H213.531V335.458Z" fill="white"/>
<path d="M224.563 346.825H230.928V339.537H224.563V346.825Z" fill="white"/>
<path d="M213.531 346.825H219.896V339.537H213.531V346.825Z" fill="white"/>
<path d="M69.0991 226.04H75.4639V217.457H69.0991V226.04Z" fill="white"/>
<path d="M58.0776 226.04H64.4424V217.457H58.0776V226.04Z" fill="white"/>
<path d="M69.0991 238.962H75.4639V230.38H69.0991V238.962Z" fill="white"/>
<path d="M58.0776 238.962H64.4424V230.38H58.0776V238.962Z" fill="white"/>
<path d="M69.0991 251.874H75.4639V243.291H69.0991V251.874Z" fill="white"/>
<path d="M58.0776 251.874H64.4424V243.291H58.0776V251.874Z" fill="white"/>
<path d="M69.0991 264.797H75.4639V256.214H69.0991V264.797Z" fill="white"/>
<path d="M58.0776 264.797H64.4424V256.214H58.0776V264.797Z" fill="white"/>
<path d="M69.0991 278.035H75.4639V269.452H69.0991V278.035Z" fill="white"/>
<path d="M58.0776 278.035H64.4424V269.452H58.0776V278.035Z" fill="white"/>
<path d="M69.0991 291.273H75.4639V282.691H69.0991V291.273Z" fill="white"/>
<path d="M58.0776 291.273H64.4424V282.691H58.0776V291.273Z" fill="white"/>
<path d="M69.0991 304.5H75.4639V295.918H69.0991V304.5Z" fill="white"/>
<path d="M58.0776 304.5H64.4424V295.918H58.0776V304.5Z" fill="white"/>
<path d="M69.0991 317.749H75.4639V309.167H69.0991V317.749Z" fill="white"/>
<path d="M58.0776 317.749H64.4424V309.167H58.0776V317.749Z" fill="white"/>
<path d="M69.0991 331.129H75.4639V322.546H69.0991V331.129Z" fill="white"/>
<path d="M58.0776 331.129H64.4424V322.546H58.0776V331.129Z" fill="white"/>
<path d="M69.0991 344.498H75.4639V335.915H69.0991V344.498Z" fill="white"/>
<path d="M58.0776 344.498H64.4424V335.915H58.0776V344.498Z" fill="white"/>
<path d="M69.0991 357.877H75.4639V349.294H69.0991V357.877Z" fill="white"/>
<path d="M58.0776 357.877H64.4424V349.294H58.0776V357.877Z" fill="white"/>
<path d="M69.0991 371.257H75.4639V362.674H69.0991V371.257Z" fill="white"/>
<path d="M58.0776 371.257H64.4424V362.674H58.0776V371.257Z" fill="white"/>
<path d="M200.954 223.56H207.319V216.272H200.954V223.56Z" fill="white"/>
<path d="M189.921 223.56H196.286V216.272H189.921V223.56Z" fill="white"/>
<path d="M200.954 212.323H207.319V205.035H200.954V212.323Z" fill="white"/>
<path d="M189.921 212.323H196.286V205.035H189.921V212.323Z" fill="white"/>
<path d="M200.954 201.086H207.319V193.798H200.954V201.086Z" fill="white"/>
<path d="M189.921 201.086H196.286V193.798H189.921V201.086Z" fill="white"/>
<path d="M200.954 234.524H207.319V227.236H200.954V234.524Z" fill="white"/>
<path d="M189.921 234.524H196.286V227.236H189.921V234.524Z" fill="white"/>
<path d="M200.954 245.489H207.319V238.201H200.954V245.489Z" fill="white"/>
<path d="M189.921 245.489H196.286V238.201H189.921V245.489Z" fill="white"/>
<path d="M200.954 256.464H207.319V249.176H200.954V256.464Z" fill="white"/>
<path d="M189.921 256.464H196.286V249.176H189.921V256.464Z" fill="white"/>
<path d="M200.954 267.701H207.319V260.413H200.954V267.701Z" fill="white"/>
<path d="M189.921 267.701H196.286V260.413H189.921V267.701Z" fill="white"/>
<path d="M200.954 278.927H207.319V271.639H200.954V278.927Z" fill="white"/>
<path d="M189.921 278.927H196.286V271.639H189.921V278.927Z" fill="white"/>
<path d="M200.954 290.164H207.319V282.876H200.954V290.164Z" fill="white"/>
<path d="M189.921 290.164H196.286V282.876H189.921V290.164Z" fill="white"/>
<path d="M200.954 301.4H207.319V294.112H200.954V301.4Z" fill="white"/>
<path d="M189.921 301.4H196.286V294.112H189.921V301.4Z" fill="white"/>
<path d="M200.954 312.756H207.319V305.468H200.954V312.756Z" fill="white"/>
<path d="M189.921 312.756H196.286V305.468H189.921V312.756Z" fill="white"/>
<path d="M200.954 324.102H207.319V316.814H200.954V324.102Z" fill="white"/>
<path d="M189.921 324.102H196.286V316.814H189.921V324.102Z" fill="white"/>
<path d="M200.954 335.458H207.319V328.17H200.954V335.458Z" fill="white"/>
<path d="M189.921 335.458H196.286V328.17H189.921V335.458Z" fill="white"/>
<path d="M200.954 346.825H207.319V339.537H200.954V346.825Z" fill="white"/>
<path d="M189.921 346.825H196.286V339.537H189.921V346.825Z" fill="white"/>
<path d="M485.368 173.598H368.223C368.223 173.598 379.843 141.879 397.719 141.879C415.594 141.879 421.187 163.776 421.187 163.776C421.187 163.776 433.253 151.875 443.164 151.875C453.076 151.875 461.66 167.594 461.66 167.594C461.66 167.594 475.685 159.142 485.368 173.598Z" fill="#EFECF3"/>
<path d="M419.805 110.867H365.057C365.057 110.867 377.286 93.147 386.925 93.147C396.565 93.147 399.416 104.96 399.416 104.96C399.416 104.96 406.216 99.4451 412.472 100.435C418.728 101.425 419.805 110.867 419.805 110.867Z" fill="#EFECF3"/>
<path d="M165.267 164.156H58.6433C58.6433 164.156 73.2443 131.523 88.868 129.522C104.492 127.52 111.955 153.736 111.955 153.736C111.955 153.736 122.03 144.457 129.951 144.457C137.871 144.457 143.997 156.683 143.997 156.683C143.997 156.683 159.827 148.308 165.267 164.156Z" fill="#EFECF3"/>
<path d="M266.615 83.4767H194.578C194.578 83.4767 206.949 59.8613 220.375 59.5458C233.801 59.2304 240.851 77.4178 240.851 77.4178C240.851 77.4178 261.729 60.6336 266.615 83.4767Z" fill="#EFECF3"/>
<path d="M315.803 466.676C413.772 466.676 493.191 461.421 493.191 454.939C493.191 448.456 413.772 443.202 315.803 443.202C217.835 443.202 138.416 448.456 138.416 454.939C138.416 461.421 217.835 466.676 315.803 466.676Z" fill="#EFECF3"/>
<path d="M526.962 410.144L463.216 410.406L399.481 410.503L272 410.677L144.519 410.503L80.7842 410.406L17.0383 410.144L80.7842 409.873L144.519 409.775L272 409.601L399.481 409.775L463.216 409.873L526.962 410.144Z" fill="#1F1B2D"/>
<path d="M264.048 241.899C282.456 261.044 337.76 346.249 342.068 348.794C342.068 348.794 342.068 404.521 311.267 393.393C280.465 382.265 252.232 282.288 246.204 250.417C243.027 233.589 249.011 226.279 264.048 241.899Z" fill="#E3A59D"/>
<path d="M259.358 307.775L315.804 301.357C315.804 301.357 280.792 254.92 262.698 238.342C243.832 221.069 234.584 223.494 243.332 256.214C252.123 289.13 259.358 307.775 259.358 307.775Z" fill="#FDBC31"/>
<path d="M256.703 277.034C256.083 278.591 255.687 280.228 255.528 281.897C257.498 279.176 258.724 275.989 259.086 272.651C258.079 273.986 257.276 275.463 256.703 277.034ZM288.408 278.307C286.855 277.686 285.221 277.29 283.555 277.132C286.271 279.103 289.456 280.329 292.792 280.689C291.458 279.68 289.98 278.877 288.408 278.307ZM279.998 300.258C279.333 298.724 278.454 297.292 277.386 296.005C277.636 297.657 278.12 299.265 278.822 300.78C279.465 302.324 280.338 303.762 281.412 305.044C281.168 303.39 280.692 301.779 279.998 300.258ZM246.879 229.553C246.596 228.955 246.313 228.368 245.987 227.78C245.6 227.742 245.21 227.742 244.823 227.78C245.084 228.574 245.377 229.336 245.704 230.097C246.357 231.638 247.233 233.075 248.304 234.361C248.059 232.699 247.579 231.08 246.879 229.553ZM311.93 296.277L310.842 296.712C309.303 297.374 307.863 298.25 306.566 299.312C308.225 299.066 309.841 298.586 311.365 297.887C311.8 297.691 312.224 297.484 312.648 297.256L311.93 296.277ZM268.41 251.45C266.874 252.109 265.439 252.98 264.145 254.039C265.804 253.801 267.421 253.325 268.943 252.625C270.481 251.965 271.917 251.089 273.208 250.025C271.541 250.264 269.918 250.744 268.389 251.45H268.41ZM264.624 251.548C264.56 251.592 264.498 251.639 264.439 251.689H264.635C264.635 251.689 264.602 251.58 264.602 251.548H264.624Z" fill="white"/>
<path d="M262.067 297.626C263.384 297.321 264.765 297.201 266.104 297.016L270.26 296.44C273.056 296.048 275.863 295.7 278.67 295.352C284.284 294.7 289.898 294.014 295.523 293.459C297.068 293.307 298.624 293.155 300.169 293.035C301.714 292.916 303.433 292.916 305.065 292.796C305.163 292.796 305.163 292.937 305.065 292.948C303.683 293.155 302.312 293.47 300.931 293.688C299.549 293.905 298.08 294.101 296.655 294.275C293.859 294.634 291.041 294.961 288.234 295.276C282.707 295.874 277.169 296.505 271.62 296.995L266.985 297.386C265.364 297.528 263.721 297.767 262.089 297.756C262.076 297.751 262.065 297.744 262.057 297.733C262.048 297.723 262.042 297.71 262.04 297.697C262.038 297.684 262.039 297.67 262.044 297.658C262.049 297.645 262.057 297.634 262.067 297.626Z" fill="#1F1B2D"/>
<path opacity="0.1" d="M286.743 304.664L259.369 307.775C259.369 307.775 252.134 289.13 243.332 256.214C239.622 242.334 239.154 233.904 241.287 230.108L286.743 304.664Z" fill="#1F1B2D"/>
<path d="M275.014 423.839H189.16C188.453 421.076 187.768 418.401 187.082 415.681C186.299 412.603 185.526 409.601 184.787 406.674C184.623 406.022 184.449 405.369 184.286 404.727C183.72 402.487 183.166 400.311 182.622 398.201C182.295 396.906 181.969 395.634 181.653 394.372C181.338 393.11 181 391.826 180.685 390.597C180.598 390.271 180.522 389.945 180.435 389.629L180.174 388.541L179.847 387.269C179.727 386.823 179.619 386.388 179.51 385.952C179.292 385.126 179.086 384.31 178.89 383.516C178.585 382.341 178.291 381.188 178.008 380.068C177.889 379.578 177.758 379.089 177.638 378.61C177.432 377.827 177.236 377.065 177.051 376.315C176.92 375.814 176.801 375.325 176.681 374.846C176.173 372.874 175.702 371.025 175.267 369.299C175.147 368.842 175.038 368.396 174.918 367.961C174.734 367.21 174.549 366.492 174.374 365.785C174.251 365.35 174.142 364.926 174.048 364.513C173.667 363.033 173.319 361.684 173.025 360.499C172.938 360.183 172.862 359.879 172.786 359.585C172.59 358.802 172.405 358.106 172.253 357.486C172.188 357.235 172.133 356.996 172.068 356.779L171.894 356.093C171.894 355.941 171.818 355.789 171.785 355.658L171.633 355.071C171.633 354.976 171.611 354.889 171.567 354.81L171.372 354.037H254.941C254.941 354.037 257.693 363.523 262.1 378.817C262.992 381.928 263.96 385.343 264.994 388.857C267.921 399.06 271.337 410.96 275.014 423.839Z" fill="#454056"/>
<path d="M203.217 423.84H201.041C197.864 410.692 194.785 397.519 191.804 384.321C191.079 381.108 190.353 377.896 189.628 374.683L189.432 373.78C189.429 373.749 189.436 373.718 189.454 373.692C189.472 373.666 189.499 373.647 189.529 373.639C189.559 373.631 189.592 373.634 189.62 373.648C189.648 373.662 189.67 373.686 189.683 373.715C189.683 373.813 189.737 373.911 189.77 374.009C190.734 377.461 191.695 380.916 192.653 384.375C196.33 397.494 199.852 410.649 203.217 423.84Z" fill="#1F1B2D"/>
<path d="M252.232 354.048L248.543 372.54L245.519 387.682L240.373 413.484L239.839 416.127L238.958 420.533L238.273 423.839H189.15C188.453 421.066 187.757 418.401 187.082 415.681C186.299 412.603 185.526 409.601 184.787 406.674C184.623 406.022 184.449 405.369 184.286 404.727C183.72 402.487 183.166 400.311 182.622 398.201C182.295 396.906 181.969 395.634 181.653 394.372C181.338 393.11 181 391.826 180.685 390.597C180.598 390.271 180.522 389.945 180.435 389.629L180.174 388.541L179.847 387.269C179.727 386.823 179.619 386.388 179.51 385.952C179.292 385.126 179.086 384.31 178.89 383.516C178.585 382.341 178.291 381.188 178.008 380.068C177.878 379.567 177.758 379.089 177.638 378.61C177.432 377.827 177.236 377.065 177.051 376.315C176.92 375.814 176.801 375.325 176.681 374.846C176.173 372.874 175.702 371.025 175.267 369.299C175.147 368.842 175.038 368.396 174.918 367.961C174.734 367.21 174.549 366.492 174.374 365.785C174.251 365.35 174.142 364.926 174.048 364.513C173.667 363.033 173.319 361.684 173.025 360.499C172.938 360.183 172.862 359.879 172.786 359.585C172.59 358.802 172.405 358.106 172.253 357.486C172.188 357.235 172.133 356.996 172.068 356.779L171.894 356.093C171.894 355.941 171.818 355.789 171.785 355.658L171.633 355.071C171.633 354.976 171.611 354.889 171.567 354.81L171.372 354.037L252.232 354.048Z" fill="#1F1B2D"/>
<path d="M252.243 354.016C252.243 354.472 251.894 359.454 251.089 367.069C250.861 369.244 250.589 371.724 250.273 374.335C249.784 378.458 249.185 383.037 248.424 387.813C247.14 396.199 245.464 405.347 243.288 414.289C242.516 417.552 241.667 420.696 240.764 423.818H132.889C134.162 407.381 135.326 392.512 136.251 380.796C137.546 364.306 138.427 353.983 138.427 353.983H236.282L252.243 354.016Z" fill="#454056"/>
<path d="M252.014 363.925C251.895 367.787 251.731 371.637 251.481 375.477C251.22 379.643 250.839 383.799 250.295 387.954C250.295 388.106 250.295 388.259 250.241 388.411C249.733 392.305 249.149 396.188 248.489 400.061C247.869 403.672 247.401 407.566 245.813 410.938C245.209 412.232 244.35 413.39 243.288 414.343C242.317 415.232 241.127 415.848 239.839 416.127C239.629 416.18 239.414 416.216 239.198 416.236H239.013C239.052 416.259 239.085 416.292 239.106 416.333C239.127 416.373 239.136 416.419 239.132 416.464C239.132 417.759 239.132 419.075 238.98 420.359C238.98 420.413 238.98 420.467 238.98 420.522C238.849 421.609 238.643 422.752 238.436 423.861H236.586V423.796C236.913 422.578 237.185 421.348 237.489 420.119C237.794 418.89 238.229 417.639 238.523 416.366C238.539 416.319 238.57 416.277 238.61 416.247C237.436 416.303 236.273 415.999 235.277 415.374C234.281 414.75 233.5 413.836 233.039 412.755C232.575 411.101 232.545 409.355 232.952 407.686C233.29 405.511 233.616 403.27 233.953 401.062C234.584 397.004 235.4 392.99 236.129 388.955L236.456 387.116C237.903 378.904 239.415 370.691 241.232 362.555C241.297 362.217 241.374 361.88 241.45 361.543C241.526 361.206 241.863 361.38 241.841 361.597C241.787 362.141 241.733 362.685 241.667 363.24C241.348 366.365 240.985 369.476 240.579 372.573C240.057 376.217 239.698 379.883 239.187 383.527C239.013 384.767 238.839 386.007 238.654 387.247C237.816 393.241 236.945 399.212 235.923 405.206C235.444 407.98 233.747 412.951 237.707 413.81C238.622 414.013 239.579 413.894 240.416 413.473C242.179 412.41 243.498 410.745 244.126 408.785C245.106 405.52 245.815 402.18 246.248 398.799C246.901 395.173 247.481 391.515 247.989 387.823C248.641 383.248 249.323 378.675 250.034 374.107C250.389 371.779 250.752 369.451 251.122 367.123L251.644 363.86C251.655 363.631 252.014 363.697 252.014 363.925Z" fill="#1F1B2D"/>
<path d="M156.553 392.599C161.046 392.552 165.515 391.949 169.859 390.804C171.861 390.293 173.841 389.651 175.811 389.009C177.762 388.471 179.588 387.554 181.185 386.312C184.21 383.701 185.614 379.6 186.93 375.945C188.359 371.83 189.519 367.626 190.401 363.36C190.401 363.153 190.749 363.229 190.76 363.425C190.864 368.249 190.252 373.063 188.943 377.707C187.855 381.656 186.397 386.051 183.209 388.813C180.021 391.576 175.31 392.751 171.013 393.273C166.194 393.834 161.322 393.768 156.52 393.077C156.457 393.073 156.398 393.044 156.356 392.996C156.314 392.948 156.293 392.885 156.297 392.822C156.302 392.758 156.331 392.699 156.379 392.657C156.427 392.616 156.49 392.595 156.553 392.599Z" fill="#1F1B2D"/>
<path d="M149.057 363.49C148.817 369.524 148.563 375.564 148.295 381.612C147.679 395.688 147 409.764 146.26 423.84H144.237C145.165 409.735 146.141 395.637 147.164 381.547C147.606 375.521 148.063 369.498 148.534 363.479C148.536 363.41 148.565 363.344 148.615 363.296C148.665 363.248 148.732 363.222 148.801 363.224C148.87 363.225 148.936 363.254 148.984 363.304C149.032 363.354 149.058 363.421 149.057 363.49Z" fill="#1F1B2D"/>
<path d="M270.815 398.69L124.468 387.595C124.468 387.595 153.909 270.932 212.041 228.041C226.903 217.087 243.169 224.114 250.491 232.305C269.096 253.169 271.25 398.223 270.815 398.69Z" fill="#FDBC31"/>
<path d="M218.808 233.35C218.194 234.905 217.799 236.537 217.633 238.201C218.635 236.873 219.441 235.407 220.027 233.85C220.641 232.295 221.036 230.662 221.202 228.999C220.204 230.33 219.398 231.794 218.808 233.35ZM202.923 296.288C202.298 297.842 201.906 299.481 201.759 301.15C203.719 298.426 204.941 295.24 205.306 291.904C204.307 293.245 203.505 294.721 202.923 296.288ZM150.634 323.275C150.015 324.833 149.619 326.47 149.459 328.138C151.428 325.417 152.654 322.23 153.017 318.892C152.026 320.237 151.225 321.712 150.634 323.275ZM192.838 363.033C192.206 364.583 191.81 366.218 191.663 367.885C193.623 365.16 194.844 361.975 195.21 358.639C194.212 359.982 193.413 361.462 192.838 363.033ZM256.703 277.013C256.083 278.57 255.687 280.207 255.528 281.875C257.497 279.154 258.724 275.968 259.086 272.629C258.077 273.971 257.274 275.456 256.703 277.034V277.013ZM230.657 356.148C230.024 357.697 229.624 359.332 229.471 360.999C230.471 359.672 231.273 358.206 231.853 356.648C232.472 355.095 232.868 353.461 233.028 351.797C232.032 353.125 231.233 354.59 230.657 356.148ZM177.921 274.054C177.301 275.607 176.905 277.241 176.746 278.905C178.718 276.187 179.941 272.999 180.293 269.659C179.291 271 178.492 272.481 177.921 274.054ZM236.39 253.169C234.839 252.542 233.204 252.146 231.538 251.994C232.868 252.988 234.333 253.786 235.89 254.365C237.444 254.994 239.083 255.39 240.753 255.54C239.421 254.543 237.951 253.745 236.39 253.169ZM252.971 305.61C251.419 304.986 249.785 304.59 248.119 304.435C249.446 305.434 250.912 306.233 252.471 306.807C254.023 307.434 255.657 307.834 257.323 307.992C255.994 307.005 254.528 306.218 252.971 305.654V305.61ZM257.421 368.287C255.868 367.667 254.234 367.271 252.569 367.112C253.896 368.114 255.362 368.917 256.921 369.495C258.475 370.112 260.109 370.508 261.773 370.669C260.439 369.691 258.974 368.903 257.421 368.331V368.287ZM153.245 363.131C151.692 362.51 150.058 362.114 148.393 361.956C151.109 363.927 154.293 365.154 157.63 365.513C156.288 364.528 154.811 363.741 153.245 363.175V363.131ZM190.901 322.884C189.348 322.26 187.714 321.861 186.049 321.698C187.378 322.699 188.843 323.505 190.401 324.091C191.956 324.705 193.589 325.101 195.253 325.266C193.922 324.28 192.456 323.489 190.901 322.916V322.884ZM246.879 229.521C246.726 229.194 246.574 228.879 246.411 228.563C245.878 228.161 245.323 227.769 244.724 227.389C244.994 228.3 245.321 229.194 245.704 230.065C246.357 231.605 247.233 233.042 248.304 234.329C248.056 232.678 247.576 231.07 246.879 229.553V229.521ZM204.109 263.35C203.453 261.811 202.577 260.374 201.509 259.086C202.032 262.404 203.421 265.526 205.535 268.136C205.295 266.48 204.815 264.868 204.109 263.35ZM241.874 392.066C241.218 390.529 240.346 389.093 239.284 387.802C239.525 389.456 240.002 391.068 240.699 392.588C241.319 394.018 242.12 395.364 243.082 396.591H243.256C243.005 395.026 242.54 393.504 241.874 392.066ZM227.98 316.259C227.318 314.723 226.443 313.287 225.38 311.995C225.92 315.306 227.303 318.422 229.395 321.045C229.154 319.391 228.677 317.779 227.98 316.259ZM128.298 374.063C128.232 374.292 128.167 374.52 128.091 374.738C128.232 374.89 128.363 375.053 128.493 375.205C128.45 374.832 128.384 374.462 128.298 374.096V374.063ZM171.818 345.042C171.157 343.508 170.282 342.076 169.217 340.788C169.743 344.102 171.131 347.22 173.243 349.828C172.983 348.183 172.493 346.582 171.785 345.074L171.818 345.042ZM181.153 386.921C180.492 385.383 179.617 383.948 178.552 382.657C179.091 385.973 180.478 389.095 182.578 391.718C182.322 390.072 181.831 388.471 181.12 386.964L181.153 386.921ZM254.342 336.535C252.806 337.198 251.37 338.073 250.077 339.135C251.733 338.891 253.345 338.411 254.865 337.71C256.408 337.054 257.848 336.178 259.14 335.11C257.468 335.359 255.841 335.85 254.31 336.568L254.342 336.535ZM138.906 342.888L138.351 344.389C139.524 343.823 140.621 343.11 141.615 342.268C140.681 342.39 139.762 342.609 138.873 342.921L138.906 342.888ZM213.521 379.132C211.982 379.787 210.546 380.659 209.256 381.721C210.914 381.479 212.529 381.003 214.054 380.307C215.59 379.641 217.026 378.762 218.319 377.696C216.644 377.943 215.016 378.438 213.488 379.165L213.521 379.132ZM146.794 388.835L146.043 389.194L148.6 389.39C149.668 388.851 150.669 388.186 151.581 387.41C149.913 387.665 148.29 388.156 146.761 388.868L146.794 388.835ZM172.427 299.388C170.894 300.058 169.459 300.932 168.162 301.988C171.478 301.452 174.6 300.07 177.225 297.974C175.553 298.219 173.926 298.707 172.394 299.421L172.427 299.388ZM209.941 341.05C208.403 341.713 206.967 342.592 205.676 343.66C208.995 343.127 212.118 341.74 214.739 339.635C213.068 339.885 211.441 340.372 209.908 341.082L209.941 341.05ZM229.525 283.779C227.991 284.445 226.556 285.32 225.26 286.378C228.576 285.853 231.697 284.469 234.312 282.364C232.634 282.611 230.999 283.098 229.46 283.811L229.525 283.779Z" fill="white"/>
<path d="M242.2 256.682C233.758 255.431 225.184 238.397 223.704 226.779C223.606 225.974 236.76 200.88 238.817 195.647C239.241 194.56 268.573 216.707 268.573 216.707C268.573 216.707 260.957 226.41 257.4 235.579C257.149 236.341 250.36 257.879 242.2 256.682Z" fill="#E3A59D"/>
<path opacity="0.4" d="M268.617 216.707C268.617 216.707 261.001 226.41 257.432 235.569C257.367 235.753 256.932 237.102 256.214 239.028C241.134 231.413 234.987 217.816 232.506 208.842C235.357 203.131 238.012 197.769 238.86 195.647C239.285 194.571 268.617 216.707 268.617 216.707Z" fill="#1F1B2D"/>
<path d="M245.595 154.889C237.011 164.82 228.426 200.64 233.333 211.649C240.46 227.595 259.445 237.179 274.808 226.986C289.746 217.098 300.104 170.216 293.935 159.468C284.861 143.631 258.259 140.226 245.595 154.889Z" fill="#E3A59D"/>
<path d="M268.53 183.987C267.442 184.074 266.354 183.987 265.266 183.987C264.111 184.144 262.936 183.914 261.926 183.334C261.644 183.089 261.45 182.758 261.376 182.392C261.301 182.027 261.349 181.646 261.512 181.311C261.937 180.697 262.518 180.208 263.195 179.895C263.872 179.581 264.621 179.454 265.364 179.527C266.89 179.437 268.394 179.918 269.585 180.876C269.837 181.113 270.016 181.418 270.099 181.754C270.183 182.089 270.169 182.442 270.057 182.77C269.946 183.098 269.743 183.387 269.472 183.603C269.201 183.818 268.874 183.952 268.53 183.987Z" fill="#1F1B2D"/>
<path d="M267.572 189.24C267.572 189.143 267.355 189.317 267.333 189.425C266.931 191.873 266.049 194.614 263.688 194.984C263.612 194.984 263.59 195.114 263.688 195.125C266.441 195.278 267.572 191.634 267.572 189.24Z" fill="#1F1B2D"/>
<path d="M265.897 186.26C262.035 185.172 260.163 192.993 263.721 193.983C267.279 194.973 269.128 187.163 265.897 186.26Z" fill="#1F1B2D"/>
<path d="M281.608 192.254C281.608 192.167 281.771 192.417 281.749 192.515C281.096 194.908 280.748 197.769 282.739 199.041C282.804 199.041 282.739 199.205 282.685 199.172C280.106 198.215 280.607 194.429 281.608 192.254Z" fill="#1F1B2D"/>
<path d="M284.371 190.252C288.332 190.883 286.776 198.748 283.109 198.16C279.443 197.573 281.053 189.719 284.371 190.252Z" fill="#1F1B2D"/>
<path d="M288.386 186.38C287.386 185.915 286.413 185.396 285.47 184.824C284.364 184.416 283.426 183.65 282.804 182.649C282.668 182.299 282.652 181.913 282.758 181.553C282.865 181.193 283.088 180.878 283.392 180.658C284.73 179.788 286.275 180.19 287.646 180.865C289.044 181.501 290.156 182.633 290.769 184.041C290.897 184.372 290.926 184.734 290.851 185.081C290.777 185.428 290.602 185.746 290.348 185.995C290.094 186.244 289.773 186.413 289.425 186.481C289.076 186.55 288.715 186.514 288.386 186.38Z" fill="#1F1B2D"/>
<path d="M259.478 210.18C259.913 210.887 260.305 211.801 261.164 212.084C262.071 212.279 263.01 212.279 263.917 212.084C263.935 212.082 263.954 212.086 263.969 212.096C263.985 212.105 263.998 212.119 264.005 212.136C264.012 212.153 264.014 212.172 264.01 212.19C264.006 212.208 263.996 212.224 263.982 212.236C263.524 212.627 262.969 212.887 262.375 212.989C261.781 213.09 261.171 213.029 260.609 212.812C260.146 212.568 259.766 212.192 259.518 211.731C259.27 211.269 259.165 210.745 259.217 210.224C259.217 210.082 259.413 210.071 259.478 210.18Z" fill="#1F1B2D"/>
<path d="M263.743 203.556C264.131 204.657 264.742 205.667 265.537 206.522C266.333 207.377 267.296 208.06 268.367 208.527C269.297 208.947 270.283 209.232 271.293 209.375C271.483 209.418 271.676 209.44 271.87 209.44C272.055 209.452 272.24 209.452 272.425 209.44C272.56 209.449 272.693 209.411 272.803 209.334C272.914 209.257 272.995 209.145 273.034 209.016C273.04 208.929 273.04 208.842 273.034 208.755V208.537C273.524 206.688 274.024 203.817 274.024 203.817C274.623 204.317 277.713 206.71 277.898 205.72C279.345 197.562 280.944 188.49 280.661 180.06C280.661 179.999 280.637 179.941 280.594 179.898C280.551 179.855 280.493 179.831 280.433 179.831C280.372 179.831 280.314 179.855 280.271 179.898C280.228 179.941 280.204 179.999 280.204 180.06C278.507 187.848 278.191 195.887 276.603 203.74C275.539 202.866 274.355 202.149 273.089 201.608C272.806 201.608 272.229 207.178 271.935 207.983C271.938 208.012 271.938 208.041 271.935 208.07C268.671 207.722 266.582 206.21 264.047 203.392C263.884 203.207 263.645 203.327 263.743 203.556Z" fill="#1F1B2D"/>
<path d="M270.423 208.168C269.082 209.249 267.487 209.968 265.788 210.256C264.859 210.386 263.912 210.222 263.079 209.788C261.273 208.82 261.643 207.036 262.361 205.601C262.752 204.844 263.23 204.135 263.786 203.49C265.442 205.718 267.768 207.358 270.423 208.168Z" fill="#1F1B2D"/>
<path d="M265.788 210.256C264.859 210.386 263.912 210.222 263.079 209.788C261.273 208.82 261.643 207.036 262.361 205.601C264.385 206.308 266.093 208.211 265.788 210.256Z" fill="#FF548A"/>
<path d="M297.22 173.414C281.988 179.788 266.582 162.155 266.582 162.155C264.837 164.831 262.273 166.872 259.274 167.974C256.274 169.075 252.999 169.179 249.936 168.268C249.936 168.268 242.625 190.317 236.662 188.99C227.599 187.054 231.222 155.661 235.324 150.201C239.426 144.74 247.477 144.762 247.477 144.762C247.477 144.762 249.011 140.182 255.517 137.06C262.698 133.601 282.717 144.446 282.717 144.446C284.535 141.841 286.938 139.699 289.735 138.192C290.41 137.812 291.155 137.574 291.925 137.491C292.695 137.408 293.474 137.482 294.215 137.709C294.955 137.936 295.642 138.31 296.234 138.81C296.825 139.31 297.309 139.925 297.656 140.617C296.17 142.047 295.027 143.795 294.316 145.73C291.868 152.126 297.275 153.246 298.483 147.231C299.007 144.999 298.714 142.652 297.656 140.617C301.137 137.245 305.761 136.875 307.97 139.53C312.028 144.392 309.896 168.127 297.22 173.414Z" fill="#1F1B2D"/>
<path d="M259.859 201.347C257.984 200.747 256.317 199.632 255.045 198.13C253.774 196.628 252.949 194.799 252.667 192.852C252.384 190.904 252.653 188.917 253.445 187.115C254.236 185.314 255.518 183.77 257.144 182.661C258.77 181.552 260.674 180.922 262.641 180.842C264.608 180.762 266.557 181.236 268.267 182.21C269.978 183.183 271.38 184.617 272.316 186.349C273.251 188.08 273.681 190.04 273.557 192.004C273.454 193.598 272.989 195.149 272.197 196.537C271.405 197.925 270.308 199.115 268.987 200.016C267.667 200.916 266.158 201.504 264.577 201.735C262.995 201.966 261.382 201.833 259.859 201.347ZM265.864 182.692C265.159 182.464 264.428 182.321 263.688 182.268C261.369 182.104 259.075 182.83 257.273 184.299C255.472 185.768 254.298 187.869 253.993 190.173C253.688 192.477 254.273 194.811 255.63 196.698C256.987 198.586 259.013 199.884 261.295 200.329C263.577 200.774 265.943 200.332 267.91 199.092C269.876 197.853 271.296 195.91 271.879 193.66C272.462 191.41 272.164 189.022 271.047 186.984C269.929 184.946 268.075 183.411 265.864 182.692Z" fill="#454056"/>
<path d="M283.044 205.742C279.279 204.328 277.321 199.215 278.692 193.874C279.276 191.319 280.65 189.013 282.62 187.283C283.415 186.481 284.405 185.899 285.493 185.595C286.581 185.29 287.729 185.273 288.825 185.544C289.922 185.816 290.929 186.368 291.748 187.145C292.567 187.923 293.171 188.9 293.5 189.98C294.422 192.435 294.555 195.115 293.88 197.649C292.488 203.262 287.951 206.993 283.762 205.949C283.517 205.902 283.277 205.832 283.044 205.742ZM288.93 187.087L288.419 186.935C287.54 186.757 286.631 186.794 285.769 187.042C284.907 187.29 284.118 187.742 283.468 188.359C281.73 189.902 280.517 191.947 279.997 194.212C278.79 199.085 280.585 203.741 284.034 204.589C287.483 205.437 291.247 202.174 292.455 197.312C293.061 195.067 292.946 192.689 292.129 190.513C291.866 189.75 291.445 189.05 290.894 188.46C290.343 187.869 289.674 187.402 288.93 187.087Z" fill="#454056"/>
<path d="M272.98 193.135L272.305 191.905C274.122 190.894 278.083 189.85 280.074 192.993L278.877 193.733C277.104 190.916 273.143 193.037 272.98 193.135Z" fill="#454056"/>
<path d="M226.544 186.717L225.456 185.847C225.869 185.335 229.536 180.843 232.702 180.952C235.672 181.06 253.798 186.39 254.571 186.662L254.168 188.011C248.968 186.467 234.954 182.431 232.659 182.355C230.548 182.279 227.534 185.477 226.544 186.717Z" fill="#454056"/>
<path d="M240.547 186.945C240.547 186.945 237.62 172.935 231.571 173.533C225.521 174.132 224.499 192.156 229.34 196.757C229.918 197.39 230.619 197.899 231.399 198.254C232.179 198.609 233.023 198.802 233.88 198.822C234.737 198.843 235.589 198.689 236.385 198.372C237.181 198.054 237.904 197.579 238.512 196.975L240.547 186.945Z" fill="#E3A59D"/>
<path d="M231.407 178.711C231.32 178.657 231.244 178.776 231.31 178.852C234.65 182.203 235.161 186.847 234.998 191.351C234.432 189.349 233.148 187.826 230.537 188.403C230.406 188.403 230.439 188.631 230.537 188.664C231.343 188.739 232.105 189.063 232.717 189.591C233.33 190.12 233.762 190.826 233.953 191.612C234.272 192.924 234.451 194.265 234.486 195.615C234.486 196.061 235.248 196.148 235.292 195.615C235.286 195.579 235.286 195.542 235.292 195.506C237.62 190.481 236.706 181.583 231.407 178.711Z" fill="#1F1B2D"/>
<path d="M315.14 285.28C317.892 278.035 381.714 291.154 379.169 302.26C369.823 342.942 343.776 379.295 337.193 387.606C328.555 398.484 311.364 396.069 305.097 389.477C296.013 379.915 312.42 292.459 315.14 285.28Z" fill="#E3A59D"/>
<path d="M310.646 305.251C309.228 309.15 308.104 313.15 307.285 317.216C306.36 321.241 305.555 325.288 304.902 329.356C303.611 337.586 302.884 345.894 302.726 354.222C302.606 358.878 302.726 363.523 302.726 368.178C302.726 368.287 302.9 368.276 302.9 368.178C302.9 364.056 303.15 359.9 303.487 355.789C303.825 351.677 304.238 347.489 304.771 343.366C305.805 335.263 306.947 327.17 308.416 319.131C308.822 316.876 309.247 314.628 309.689 312.387C310.157 310.059 310.69 307.742 310.995 305.382C310.995 305.208 310.723 305.055 310.646 305.251Z" fill="#1F1B2D"/>
<path d="M299.745 170.618C299.325 176.158 298.496 181.659 297.264 187.076C297.057 188 296.829 188.947 296.6 189.882C295.686 193.602 294.598 197.344 293.336 200.945C293.046 201.815 292.742 202.674 292.422 203.523C288.56 213.955 283.457 222.929 277.713 226.736C276.254 227.714 274.706 228.552 273.089 229.238C264.854 224.436 257.976 217.618 253.104 209.426C248.231 201.233 245.523 191.936 245.236 182.409L243.495 181.931C243.767 181.506 244.05 181.071 244.322 180.615C244.594 180.158 244.931 179.581 245.225 179.037C245.661 165.033 251.319 151.697 261.088 141.651C274.764 137.974 291.139 143.228 298.026 155.226C299.701 158.196 300.213 163.787 299.745 170.618Z" fill="#E3A59D"/>
<path d="M271.076 181.191C269.92 181.251 268.761 181.251 267.605 181.191C266.267 181.191 265.201 181.289 264.058 180.495C263.751 180.235 263.54 179.878 263.461 179.483C263.382 179.088 263.439 178.678 263.623 178.319C264.461 176.84 266.093 176.459 267.703 176.427C269.319 176.331 270.913 176.839 272.175 177.852C272.455 178.1 272.656 178.424 272.753 178.785C272.851 179.146 272.841 179.528 272.724 179.883C272.607 180.238 272.389 180.551 272.096 180.783C271.803 181.016 271.448 181.158 271.076 181.191Z" fill="#1F1B2D"/>
<path d="M270.064 186.815C270.064 186.717 269.835 186.902 269.814 187C269.389 189.6 268.454 192.504 265.951 192.895C265.875 192.895 265.853 193.037 265.951 193.048C268.867 193.157 270.064 189.295 270.064 186.815Z" fill="#1F1B2D"/>
<path d="M268.291 183.606C264.2 182.464 262.22 190.731 266.006 191.786C269.792 192.841 271.718 184.563 268.291 183.606Z" fill="#1F1B2D"/>
<path d="M284.937 189.948C284.937 189.861 285.111 190.122 285.078 190.23C284.382 192.765 283.99 195.789 286.166 197.192C286.232 197.192 286.166 197.366 286.112 197.334C283.348 196.257 283.871 192.254 284.937 189.948Z" fill="#1F1B2D"/>
<path d="M287.864 187.826C292.052 188.501 290.399 196.833 286.515 196.213C282.63 195.593 284.349 187.261 287.864 187.826Z" fill="#1F1B2D"/>
<path d="M292.107 183.726C291.019 183.258 290.072 182.638 289.028 182.083C287.862 181.655 286.868 180.856 286.199 179.81C286.056 179.44 286.04 179.034 286.152 178.654C286.264 178.275 286.499 177.943 286.819 177.71C288.244 176.786 289.876 177.21 291.323 177.928C292.79 178.606 293.953 179.803 294.588 181.289C294.711 181.633 294.733 182.006 294.652 182.362C294.57 182.719 294.388 183.044 294.127 183.301C293.866 183.557 293.537 183.733 293.179 183.809C292.821 183.884 292.449 183.855 292.107 183.726Z" fill="#1F1B2D"/>
<path d="M261.49 208.94C261.958 209.68 262.372 210.648 263.286 210.952C264.242 211.164 265.234 211.164 266.191 210.952C266.21 210.952 266.229 210.957 266.245 210.967C266.261 210.977 266.275 210.992 266.283 211.009C266.291 211.026 266.294 211.046 266.291 211.065C266.288 211.084 266.28 211.101 266.267 211.116C265.781 211.531 265.192 211.807 264.561 211.915C263.931 212.022 263.283 211.956 262.687 211.725C262.199 211.465 261.798 211.065 261.536 210.577C261.275 210.089 261.164 209.535 261.218 208.984C261.208 208.831 261.414 208.831 261.49 208.94Z" fill="#1F1B2D"/>
<path d="M266.017 201.913C266.423 203.082 267.066 204.154 267.907 205.062C268.748 205.97 269.767 206.694 270.902 207.189C271.887 207.633 272.932 207.934 274.003 208.081C274.206 208.127 274.414 208.152 274.623 208.157C274.815 208.169 275.007 208.169 275.199 208.157C275.342 208.166 275.484 208.127 275.603 208.046C275.721 207.965 275.809 207.847 275.852 207.711C275.863 207.624 275.863 207.536 275.852 207.45V207.221C276.374 205.263 276.94 202.218 276.94 202.218C277.571 202.751 280.846 205.285 281.031 204.241C282.565 195.539 284.295 185.977 283.969 177.047C283.969 176.983 283.944 176.922 283.899 176.877C283.854 176.833 283.793 176.807 283.729 176.807C283.666 176.807 283.605 176.833 283.56 176.877C283.515 176.922 283.49 176.983 283.49 177.047C281.684 185.292 281.314 193.809 279.671 202.065C278.506 201.165 277.221 200.433 275.852 199.89C275.558 199.89 274.938 205.786 274.634 206.645C274.638 206.674 274.638 206.703 274.634 206.732C271.228 206.362 268.965 204.774 266.289 201.772C266.158 201.554 265.908 201.674 266.017 201.913Z" fill="#1F1B2D"/>
<path d="M273.089 206.808C271.668 207.943 269.978 208.693 268.182 208.984C267.199 209.125 266.197 208.949 265.32 208.483C263.395 207.461 263.797 205.568 264.559 204.056C264.969 203.253 265.473 202.5 266.06 201.815C267.809 204.187 270.272 205.937 273.089 206.808Z" fill="#1F1B2D"/>
<path d="M268.171 209.016C267.188 209.157 266.186 208.982 265.309 208.516C263.384 207.493 263.786 205.601 264.548 204.089C266.68 204.839 268.497 206.841 268.171 209.016Z" fill="#FF548A"/>
<path d="M301.464 169.998C300.887 170.237 300.31 170.444 299.745 170.618C284.165 175.448 269.009 158.065 269.009 158.065C267.168 160.908 264.457 163.08 261.281 164.257C258.104 165.433 254.632 165.551 251.383 164.592C249.694 169.569 247.624 174.41 245.192 179.07C245.485 169.82 248.057 160.786 252.681 152.769C257.304 144.751 263.836 137.999 271.696 133.112C276.659 134.853 281.488 136.954 286.145 139.399C288.073 136.64 290.622 134.371 293.587 132.774C294.301 132.372 295.089 132.119 295.904 132.03C296.719 131.941 297.544 132.019 298.328 132.258C299.112 132.497 299.84 132.892 300.467 133.42C301.094 133.949 301.607 134.598 301.975 135.331C301.975 135.331 301.976 135.333 301.979 135.338C305.667 131.784 310.56 131.394 312.855 134.254C317.142 139.279 314.901 164.396 301.464 169.998Z" fill="#1F1B2D"/>
<path d="M272.403 180.441C270.592 178.932 268.348 178.04 265.995 177.895C265.287 177.849 264.576 177.875 263.873 177.971C262.11 178.199 260.427 178.847 258.965 179.859C257.504 180.872 256.307 182.22 255.474 183.791C255.233 184.23 255.03 184.689 254.865 185.161C254.487 186.166 254.263 187.223 254.201 188.294C254.049 190.763 254.722 193.212 256.115 195.256C257.507 197.3 259.54 198.823 261.893 199.585C262.776 199.863 263.689 200.034 264.613 200.097H265.309C267.977 200.102 270.557 199.151 272.583 197.416C274.609 195.682 275.947 193.279 276.353 190.644C276.353 190.328 276.429 190.013 276.451 189.687C276.472 189.36 276.451 189.208 276.451 188.98C276.447 187.346 276.082 185.733 275.383 184.257C274.683 182.781 273.666 181.478 272.403 180.441ZM264.7 198.606C262.361 198.457 260.156 197.46 258.499 195.803C256.842 194.145 255.845 191.941 255.696 189.603C255.547 187.264 256.255 184.951 257.688 183.096C259.121 181.242 261.18 179.973 263.482 179.527C264.28 179.372 265.096 179.321 265.908 179.375C266.707 179.427 267.496 179.576 268.258 179.821C269.229 180.133 270.144 180.599 270.967 181.202C272.658 182.426 273.905 184.167 274.521 186.161C275.137 188.156 275.087 190.296 274.38 192.26C273.673 194.224 272.346 195.905 270.6 197.05C268.854 198.194 266.784 198.741 264.7 198.606Z" fill="#1F1B2D"/>
<path d="M297.46 187.544L297.264 187.076C296.598 185.547 295.452 184.275 294 183.454C293.531 183.193 293.03 182.996 292.509 182.866C291.751 182.682 290.966 182.638 290.192 182.736C288.614 182.956 287.136 183.633 285.938 184.683C285.038 185.449 284.26 186.348 283.631 187.348C283.152 188.089 282.747 188.876 282.424 189.698C282.202 190.227 282.02 190.773 281.88 191.329C281.84 191.44 281.808 191.552 281.782 191.666C281.137 194.133 281.205 196.732 281.978 199.161C282.3 200.286 282.868 201.326 283.642 202.204C284.415 203.083 285.374 203.779 286.449 204.241C286.678 204.328 286.906 204.393 287.146 204.459C288.047 204.663 288.979 204.686 289.889 204.525C290.799 204.364 291.668 204.024 292.444 203.523C295.215 201.712 297.168 198.89 297.884 195.659C298.594 192.976 298.446 190.138 297.46 187.544ZM296.372 195.3C295.877 197.421 294.821 199.371 293.314 200.945C292.605 201.772 291.691 202.398 290.664 202.76C289.637 203.123 288.532 203.21 287.461 203.012C283.805 202.109 281.901 197.181 283.185 192.025C283.734 189.628 285.015 187.461 286.852 185.825C287.543 185.171 288.381 184.693 289.295 184.43C290.21 184.167 291.174 184.127 292.107 184.313C292.288 184.356 292.466 184.411 292.64 184.476C293.428 184.812 294.137 185.309 294.721 185.934C295.306 186.56 295.753 187.301 296.035 188.109C296.267 188.682 296.442 189.276 296.557 189.883C296.904 191.677 296.856 193.526 296.415 195.3H296.372Z" fill="#1F1B2D"/>
<path d="M275.787 190.883L275.08 189.578C277.005 188.49 281.205 187.402 283.305 190.774L282.043 191.558C280.161 188.534 275.972 190.785 275.787 190.883Z" fill="#1F1B2D"/>
<path d="M256.279 184.03L255.855 185.455L254.865 185.162C252.417 184.444 248.804 183.399 245.203 182.399L243.462 181.92C243.734 181.496 244.017 181.061 244.289 180.604L245.171 180.854C249.523 182.051 253.733 183.28 255.474 183.791L256.279 184.03Z" fill="#1F1B2D"/>
<g opacity="0.3">
<path opacity="0.54" d="M313.345 235.536C302.505 237.923 291.2 237.042 280.861 233.006C270.522 228.969 261.612 221.958 255.258 212.859C248.905 203.759 245.393 192.981 245.167 181.886C244.94 170.791 248.01 159.878 253.988 150.527C259.965 141.176 268.582 133.808 278.748 129.353C288.914 124.899 300.173 123.559 311.101 125.502C322.029 127.445 332.136 132.585 340.142 140.271C348.149 147.957 353.695 157.844 356.081 168.682C357.667 175.877 357.819 183.314 356.529 190.568C355.239 197.822 352.533 204.751 348.564 210.96C344.596 217.168 339.443 222.534 333.4 226.75C327.357 230.967 320.542 233.953 313.345 235.536Z" fill="white"/>
<path opacity="0.5" d="M252.058 207.678C259.166 220.652 271.11 230.296 285.291 234.514C299.473 238.733 314.747 237.184 327.793 230.206L252.058 207.678Z" fill="white"/>
<path opacity="0.5" d="M253.668 151.082L357.398 181.942C357.488 177.486 357.05 173.035 356.092 168.682C355.007 163.688 353.231 158.87 350.815 154.367L274.242 131.578C265.828 136.213 258.745 142.928 253.668 151.082Z" fill="white"/>
<path opacity="0.5" d="M245.573 187.294L344.374 216.663C346.729 213.837 348.802 210.787 350.565 207.559L245.356 176.253C245.052 179.931 245.125 183.63 245.573 187.294Z" fill="white"/>
<path opacity="0.5" d="M250.077 157.869L356.701 189.6C356.81 188.925 356.908 188.251 356.984 187.576L250.926 156.031C250.632 156.629 250.339 157.238 250.077 157.869Z" fill="white"/>
<path opacity="0.5" d="M291.998 125.421L339.326 139.497C338.097 138.355 336.802 137.321 335.464 136.234L297.025 124.812C295.34 124.929 293.662 125.132 291.998 125.421Z" fill="white"/>
</g>
<path d="M321.069 304.894L335.477 301.722L321.523 238.376L307.115 241.549L321.069 304.894Z" fill="#EFECF3"/>
<path d="M362.218 167.333C359.564 155.286 353.397 144.295 344.496 135.752C335.596 127.209 324.361 121.496 312.213 119.337C300.065 117.177 287.549 118.668 276.248 123.62C264.947 128.572 255.369 136.763 248.724 147.157C242.08 157.552 238.667 169.683 238.918 182.016C239.17 194.35 243.073 206.332 250.136 216.447C257.198 226.563 267.102 234.357 278.595 238.845C290.089 243.333 302.655 244.312 314.705 241.66C330.861 238.098 344.942 228.268 353.851 214.33C362.761 200.392 365.77 183.488 362.218 167.333ZM313.345 235.536C302.505 237.925 291.2 237.046 280.86 233.012C270.519 228.977 261.608 221.967 255.253 212.868C248.898 203.769 245.384 192.991 245.157 181.895C244.929 170.8 247.997 159.886 253.974 150.535C259.95 141.183 268.566 133.814 278.733 129.358C288.899 124.902 300.158 123.561 311.087 125.503C322.015 127.446 332.122 132.585 340.129 140.271C348.136 147.956 353.684 157.844 356.07 168.682C357.656 175.876 357.809 183.313 356.52 190.566C355.231 197.82 352.525 204.748 348.558 210.956C344.59 217.164 339.438 222.53 333.396 226.748C327.355 230.965 320.541 233.951 313.345 235.536Z" fill="#666276"/>
<path d="M327.021 349.469L348.814 344.672L336.454 288.51L314.65 293.307L327.021 349.469Z" fill="#454056"/>
<path opacity="0.2" d="M336.53 186.217C336.507 186.281 336.489 186.347 336.476 186.413C336.214 187.349 336.758 185.51 336.563 186.119C336.367 186.729 336.084 187.588 335.812 188.295C334.86 190.819 333.695 193.257 332.33 195.583C332.145 195.909 331.939 196.236 331.754 196.562C331.688 196.671 332.232 195.801 331.754 196.486L331.373 197.073C330.872 197.824 330.361 198.564 329.828 199.249C328.649 200.841 327.366 202.352 325.987 203.774L324.986 204.775C324.529 205.221 325.519 204.285 324.888 204.862L324.257 205.438C323.441 206.145 322.603 206.831 321.733 207.483C320.863 208.136 319.829 208.854 318.839 209.474C318.382 209.757 317.925 210.029 317.457 210.29C316.652 210.757 317.805 210.127 317.207 210.431L316.348 210.866C313.748 212.145 311.03 213.165 308.231 213.912H308.09L307.785 213.977L306.534 214.249C305.718 214.412 304.913 214.554 304.086 214.673C302.358 214.921 300.618 215.08 298.874 215.152C298.39 215.207 297.921 215.357 297.495 215.593C297.068 215.829 296.692 216.147 296.389 216.528C295.776 217.298 295.494 218.28 295.605 219.258C295.716 220.236 296.211 221.13 296.981 221.743C297.751 222.356 298.734 222.638 299.712 222.527C310.829 222.183 321.459 217.891 329.697 210.42C335.17 205.296 339.449 199.031 342.231 192.07C342.868 190.515 343.398 188.92 343.82 187.294C343.97 186.322 343.729 185.331 343.15 184.536C342.571 183.741 341.701 183.207 340.73 183.052C339.761 182.922 338.779 183.17 337.988 183.746C337.198 184.321 336.66 185.179 336.486 186.141L336.53 186.217Z" fill="white"/>
<path d="M338.053 184.324C338.164 185.039 338.484 185.706 338.973 186.239C339.463 186.772 340.1 187.148 340.803 187.318C341.507 187.489 342.245 187.447 342.925 187.198C343.604 186.949 344.195 186.504 344.621 185.919C345.047 185.334 345.29 184.635 345.319 183.912C345.348 183.189 345.161 182.474 344.783 181.857C344.405 181.24 343.852 180.749 343.194 180.446C342.536 180.144 341.804 180.043 341.089 180.158C340.135 180.31 339.28 180.834 338.711 181.615C338.143 182.395 337.906 183.369 338.053 184.324Z" fill="white"/>
<path d="M374.882 314.976C374.882 314.976 390.462 289.37 371.063 264.938C363.077 254.887 344.233 236.863 306.001 239.376C296.927 239.974 284.426 247.251 299.592 251.657C310.363 254.789 318.143 253.517 324.083 256.475C324.083 256.475 309.275 267.625 310.233 276.686C310.657 280.733 310.973 289.576 313.312 297.996C313.312 297.996 316.38 300.171 318.872 299.801C318.872 299.801 325.585 319.164 349.727 325.114L374.882 314.976Z" fill="#E3A59D"/>
<path d="M362.87 261.653C356.625 259.162 343.286 254.115 330.938 253.767C317.218 253.386 290.682 256.356 290.518 266.483C290.388 273.912 300.615 273.662 300.615 273.662C300.615 273.662 289.909 277.197 291.269 283.931C292.498 290.066 300.397 289.37 300.397 289.37C300.397 289.37 294.272 292.633 296.6 298.311C299.396 305.142 311.767 297.223 320.536 301.661C322.56 302.706 362.87 261.653 362.87 261.653Z" fill="#E3A59D"/>
<path d="M332.929 268.321C326.673 266.951 311.647 267.473 300.746 273.423C300.495 273.553 300.463 273.814 300.746 273.738C311.22 270.684 322.027 268.909 332.929 268.452C333.026 268.452 333.026 268.397 332.929 268.321Z" fill="#1F1B2D"/>
<path d="M332.167 282.158C326.64 281.527 311.18 282.756 300.343 289.163C300.093 289.304 300.082 289.565 300.343 289.478C310.652 285.886 321.336 283.474 332.189 282.288C332.206 282.285 332.222 282.276 332.232 282.261C332.242 282.247 332.246 282.229 332.243 282.212C332.24 282.195 332.231 282.179 332.217 282.169C332.202 282.159 332.184 282.155 332.167 282.158Z" fill="#1F1B2D"/>
<path d="M354.438 326.778C348.9 325.464 343.554 323.442 338.532 320.763C333.475 318.027 329 314.332 325.356 309.885C324.268 308.525 323.18 307.111 322.234 305.664C321.287 304.218 320.243 302.575 319.122 301.139C319.035 301.031 318.828 301.139 318.893 301.237C320.154 304.257 321.706 307.146 323.528 309.863C325.162 312.404 327.114 314.726 329.338 316.771C333.729 320.676 338.931 323.559 344.57 325.212C347.773 326.103 351.051 326.697 354.362 326.985C354.525 327.028 354.591 326.811 354.438 326.778Z" fill="#1F1B2D"/>
<path d="M195.623 244.836C167.596 282.462 120.823 380.525 113.947 394.948C109.279 404.738 160.448 430.518 162.613 423.404C165.399 414.289 211.149 293.96 217.557 250.09C221.061 226.04 205.317 231.816 195.623 244.836Z" fill="#E3A59D"/>
<path d="M163.995 418.509C162.809 427.375 156.781 445.236 152.299 447.966C147.816 450.696 124.261 450.142 112.391 450.142C100.521 450.142 98.2471 446.824 98.3885 442.745C98.53 438.666 123.489 437.883 123.489 437.883C123.489 437.883 90.2176 447.368 81.8509 448.967C73.4842 450.566 54.2157 455.385 51.3869 448.456C50.1357 445.323 55.4125 442.157 55.4125 442.157C55.4125 442.157 47.3287 444.518 46.034 440.504C44.576 435.925 51.0061 433.412 51.0061 433.412C51.0061 433.412 45.9469 434.423 45.8272 430.692C45.6096 422.317 77.2487 418.227 77.2487 418.227C77.2487 418.227 53.0298 430.018 52.2247 423.209C51.1367 413.799 100.793 403.476 105.961 399.376C109.721 396.242 113.238 392.827 116.482 389.161L163.995 418.509Z" fill="#E3A59D"/>
<path d="M98.5626 444.768C98.4786 444.19 98.5336 443.601 98.7227 443.049C98.9119 442.496 99.23 441.997 99.6506 441.592C100.504 440.811 101.482 440.178 102.545 439.721C104.74 438.788 107.016 438.06 109.345 437.545C114.023 436.36 118.821 435.522 123.597 434.282C118.674 434.208 113.761 434.756 108.975 435.914C106.529 436.474 104.174 437.375 101.979 438.59C100.842 439.214 99.846 440.066 99.0522 441.091C98.6619 441.611 98.4118 442.222 98.3261 442.866C98.2403 443.51 98.3218 444.165 98.5626 444.768Z" fill="#1F1B2D"/>
<path d="M55.4888 442.114C58.916 441.276 62.2888 440.319 65.6507 439.34C69.0126 438.361 72.3636 437.339 75.7147 436.327L85.7352 433.194C89.0753 432.107 92.4155 431.106 95.7883 430.094C92.2868 430.479 88.8155 431.101 85.3979 431.954C81.9598 432.738 78.587 433.717 75.2251 434.739C71.8632 435.762 68.5339 436.915 65.2481 438.133C61.9624 439.351 58.644 440.635 55.4888 442.114Z" fill="#1F1B2D"/>
<path d="M87.7153 421.773C84.488 421.975 81.2803 422.419 78.1191 423.1C74.947 423.73 71.8124 424.537 68.7297 425.515C65.6395 426.473 62.6063 427.606 59.6449 428.908C56.6729 430.178 53.7967 431.662 51.0388 433.347C54.0961 432.259 57.0772 431.117 60.1127 430.083C63.1483 429.05 66.1729 428.027 69.2302 427.092C72.2875 426.156 75.3447 425.232 78.4238 424.329C81.5028 423.426 84.5927 422.643 87.7153 421.773Z" fill="#1F1B2D"/>
<path d="M82.8193 413.854C77.6213 414.272 72.5005 415.369 67.5873 417.117C62.6263 418.76 57.9036 421.049 53.5413 423.926C58.459 422.175 63.2462 420.326 68.1313 418.694C73.0165 417.063 77.8581 415.453 82.8193 413.854Z" fill="#1F1B2D"/>
<path d="M207.537 309.33L150.743 307.764C150.743 307.764 181.697 258.51 198.278 240.442C215.588 221.624 225.01 223.244 219.102 256.584C213.151 290.153 207.537 309.33 207.537 309.33Z" fill="#FDBC31"/>
<path d="M172.394 299.421C170.862 300.09 169.427 300.965 168.129 302.02C171.446 301.485 174.567 300.102 177.192 298.007C175.533 298.245 173.917 298.721 172.394 299.421ZM204.11 263.35C203.454 261.811 202.578 260.374 201.509 259.086C202.032 262.404 203.421 265.526 205.535 268.137C205.295 266.48 204.815 264.868 204.11 263.35ZM177.921 274.054C177.301 275.607 176.905 277.241 176.746 278.905C178.718 276.187 179.941 272.999 180.293 269.659C179.291 271 178.492 272.481 177.921 274.054ZM202.945 296.288C202.32 297.843 201.928 299.481 201.781 301.15C203.741 298.426 204.963 295.24 205.328 291.904C204.322 293.243 203.512 294.72 202.924 296.288H202.945ZM219.592 231.62C219.32 232.186 219.07 232.762 218.83 233.35C218.216 234.905 217.821 236.537 217.655 238.201C218.657 236.873 219.463 235.407 220.049 233.85C220.103 233.709 220.147 233.578 220.19 233.437C220.035 232.815 219.827 232.207 219.57 231.62H219.592Z" fill="white"/>
<path d="M203.979 299.453C202.63 299.257 201.248 299.257 199.899 299.192L195.71 298.964C192.896 298.826 190.071 298.713 187.235 298.626C181.577 298.452 175.93 298.257 170.284 298.18C168.728 298.18 167.172 298.18 165.616 298.18C164.06 298.18 162.352 298.344 160.72 298.354C160.622 298.354 160.633 298.507 160.72 298.507C162.113 298.594 163.505 298.8 164.909 298.887C166.312 298.974 167.77 299.061 169.206 299.116C172.035 299.225 174.864 299.323 177.693 299.388C183.253 299.518 188.823 299.671 194.383 299.682H199.105C200.726 299.682 202.369 299.769 204.001 299.627C204.044 299.594 204.066 299.464 203.979 299.453Z" fill="#1F1B2D"/>
<path d="M218.547 272.4C218.547 272.292 218.417 272.226 218.362 272.335C217.309 274.275 216.407 276.294 215.664 278.372C215.86 277.382 216.088 276.393 216.273 275.392C216.893 272.194 217.459 268.974 218.09 265.776C218.084 265.757 218.071 265.74 218.054 265.728C218.038 265.717 218.018 265.71 217.998 265.71C217.977 265.71 217.958 265.717 217.941 265.728C217.924 265.74 217.912 265.757 217.905 265.776C216.436 271.28 214.728 276.73 213.423 282.277C212.117 287.825 210.801 293.373 209.582 298.942C208.918 302.02 208.32 305.86 207.645 308.928C206.003 309.123 203.892 308.928 202.118 309.156C201.966 309.156 202.01 309.428 202.118 309.428C203.99 309.482 206.22 309.907 208.189 309.787C208.44 309.787 213.205 290.001 215.185 280.526C216.404 277.828 217.535 275.131 218.547 272.4Z" fill="#1F1B2D"/>
<path d="M258.945 241.638C258.151 244.238 257.247 246.805 256.214 249.318C255.351 251.582 254.292 253.766 253.048 255.845C250.698 259.554 247.086 262.621 242.505 262.61C238.153 262.61 234.171 260.087 231.386 256.867C228.339 253.354 226.316 248.948 224.499 244.706C223.411 242.084 222.323 239.408 221.452 236.7C221.006 235.329 220.538 233.959 220.147 232.566C219.755 231.174 219.418 229.771 218.939 228.411C218.939 228.302 218.7 228.313 218.732 228.411C219.537 231.544 221.877 241.464 222.812 243.988C224.531 248.611 226.468 253.386 229.569 257.28C232.506 260.957 236.499 263.742 241.276 264.199C246.052 264.656 250.143 262.143 252.776 258.357C254.324 255.973 255.532 253.384 256.366 250.667C257.378 247.686 258.227 244.63 258.999 241.573C259.043 241.617 258.945 241.606 258.945 241.638Z" fill="#1F1B2D"/>
<path d="M437.223 452.774H359.203L355.721 384.201H437.223V452.774Z" fill="#EFECF3"/>
<path d="M437.223 384.201L465.25 349.121L487.554 384.201L484.073 452.774H437.223V384.201Z" fill="#EFECF3"/>
<path d="M382.954 337.982H466.24L496.28 386.975H486.608L466.24 353.059L442.75 391.022H348.845L382.954 337.982Z" fill="#BBB7C5"/>
<path d="M392.604 353.483H374.696L365.143 364.926H385.815L392.604 353.483Z" fill="#D5D2DC"/>
<path d="M379.037 362.968V376.902H369.071V362.968L374.054 356.735L379.037 362.968Z" fill="#EFECF3"/>
<path d="M379.037 362.957H386.871L379.037 376.902V362.957Z" fill="#EFECF3"/>
<path d="M376.633 363.186H370.964V372.747H376.633V363.186Z" fill="white"/>
<path d="M373.488 363.849H371.66V366.927H373.488V363.849Z" fill="#F5F4F8"/>
<path d="M375.926 363.849H374.098V366.927H375.926V363.849Z" fill="#F5F4F8"/>
<path d="M373.488 367.482H371.66V372.04H373.488V367.482Z" fill="#F5F4F8"/>
<path d="M375.926 367.482H374.098V372.04H375.926V367.482Z" fill="#F5F4F8"/>
<path d="M436.451 353.483H418.542L409.577 364.926H429.618L436.451 353.483Z" fill="#D5D2DC"/>
<path d="M422.884 362.968V376.902H412.917V362.968L417.901 356.735L422.884 362.968Z" fill="#EFECF3"/>
<path d="M422.884 362.957H430.728L422.884 376.902V362.957Z" fill="#EFECF3"/>
<path d="M420.479 363.186H414.811V372.747H420.479V363.186Z" fill="white"/>
<path d="M417.335 363.849H415.507V366.927H417.335V363.849Z" fill="#F5F4F8"/>
<path d="M419.783 363.849H417.955V366.927H419.783V363.849Z" fill="#F5F4F8"/>
<path d="M417.335 367.482H415.507V372.04H417.335V367.482Z" fill="#F5F4F8"/>
<path d="M419.783 367.482H417.955V372.04H419.783V367.482Z" fill="#F5F4F8"/>
<path d="M451.302 336.002H441.336V349.121H451.302V336.002Z" fill="#EFECF3"/>
<path d="M451.302 336.002H459.136V338.112L451.302 349.121V336.002Z" fill="#EFECF3"/>
<path d="M451.302 331.542H440.215V336.002H451.302V331.542Z" fill="#BBB7C5"/>
<path d="M459.995 331.542H451.302V336.002H459.995V331.542Z" fill="#D5D2DC"/>
<path d="M379.788 396.635H367.45V417.465H379.788V396.635Z" fill="white"/>
<path d="M372.944 398.081H368.973V404.793H372.944V398.081Z" fill="#F5F4F8"/>
<path d="M378.265 398.081H374.293V404.793H378.265V398.081Z" fill="#F5F4F8"/>
<path d="M372.944 406H368.973V415.942H372.944V406Z" fill="#F5F4F8"/>
<path d="M378.265 406H374.293V415.942H378.265V406Z" fill="#F5F4F8"/>
<path d="M425.614 396.635H413.276V417.465H425.614V396.635Z" fill="white"/>
<path d="M418.771 398.081H414.8V404.793H418.771V398.081Z" fill="#F5F4F8"/>
<path d="M424.091 398.081H420.12V404.793H424.091V398.081Z" fill="#F5F4F8"/>
<path d="M418.771 406H414.8V415.942H418.771V406Z" fill="#F5F4F8"/>
<path d="M424.091 406H420.12V415.942H424.091V406Z" fill="#F5F4F8"/>
<path d="M379.788 425.58H367.45V446.411H379.788V425.58Z" fill="white"/>
<path d="M372.944 427.027H368.973V433.738H372.944V427.027Z" fill="#F5F4F8"/>
<path d="M378.265 427.027H374.293V433.738H378.265V427.027Z" fill="#F5F4F8"/>
<path d="M372.944 434.946H368.973V444.888H372.944V434.946Z" fill="#F5F4F8"/>
<path d="M378.265 434.946H374.293V444.888H378.265V434.946Z" fill="#F5F4F8"/>
<path d="M425.614 425.58H413.276V446.411H425.614V425.58Z" fill="white"/>
<path d="M418.771 427.027H414.8V433.738H418.771V427.027Z" fill="#F5F4F8"/>
<path d="M424.091 427.027H420.12V433.738H424.091V427.027Z" fill="#F5F4F8"/>
<path d="M418.771 434.946H414.8V444.888H418.771V434.946Z" fill="#F5F4F8"/>
<path d="M424.091 434.946H420.12V444.888H424.091V434.946Z" fill="#F5F4F8"/>
<path d="M402.636 396.635H390.298V417.465H402.636V396.635Z" fill="white"/>
<path d="M395.792 398.081H391.821V404.793H395.792V398.081Z" fill="#F5F4F8"/>
<path d="M401.124 398.081H397.152V404.793H401.124V398.081Z" fill="#F5F4F8"/>
<path d="M395.792 406H391.821V415.942H395.792V406Z" fill="#F5F4F8"/>
<path d="M401.124 406H397.152V415.942H401.124V406Z" fill="#F5F4F8"/>
<path d="M402.636 425.721H390.298V446.552H402.636V425.721Z" fill="white"/>
<path d="M395.792 427.157H391.821V433.869H395.792V427.157Z" fill="#F5F4F8"/>
<path d="M401.124 427.157H397.152V433.869H401.124V427.157Z" fill="#F5F4F8"/>
<path d="M395.792 435.087H391.821V445.029H395.792V435.087Z" fill="#F5F4F8"/>
<path d="M401.124 435.087H397.152V445.029H401.124V435.087Z" fill="#F5F4F8"/>
<path d="M459.397 417.465H471.735V396.635H459.397V417.465Z" fill="white"/>
<path d="M470.211 398.081H466.24V404.793H470.211V398.081Z" fill="#F5F4F8"/>
<path d="M464.88 398.081H460.909V404.793H464.88V398.081Z" fill="#F5F4F8"/>
<path d="M470.211 406H466.24V415.942H470.211V406Z" fill="#F5F4F8"/>
<path d="M464.88 406H460.909V415.942H464.88V406Z" fill="#F5F4F8"/>
<path d="M459.397 385.267H471.735V367.635H459.397V385.267Z" fill="white"/>
<path d="M470.211 369.071H466.24V375.782H470.211V369.071Z" fill="#F5F4F8"/>
<path d="M464.88 369.071H460.909V375.782H464.88V369.071Z" fill="#F5F4F8"/>
<path d="M470.211 377.065H466.24V383.777H470.211V377.065Z" fill="#F5F4F8"/>
<path d="M464.88 377.065H460.909V383.777H464.88V377.065Z" fill="#F5F4F8"/>
<path d="M457.641 452.902L472.601 452.972L472.729 425.811L457.769 425.74L457.641 452.902Z" fill="white"/>
<path d="M463.618 427.621L463.598 431.689L466.819 431.704L466.838 427.636L463.618 427.621Z" fill="#F5F4F8"/>
<path d="M459.409 427.599L459.39 431.667L462.61 431.683L462.629 427.614L459.409 427.599Z" fill="#F5F4F8"/>
<path d="M461.749 446.46L468.549 446.492L468.553 445.513L461.754 445.481L461.749 446.46Z" fill="#F5F4F8"/>
<path d="M465.631 425.547V429.616H468.852V425.547H465.631Z" fill="#F5F4F8"/>
<path d="M463.607 432.758L463.587 436.826L466.808 436.841L466.827 432.773L463.607 432.758Z" fill="#F5F4F8"/>
<path d="M459.365 432.725L459.346 436.793L462.566 436.808L462.586 432.74L459.365 432.725Z" fill="#F5F4F8"/>
<path d="M467.826 432.78L467.807 436.848L471.027 436.863L471.046 432.795L467.826 432.78Z" fill="#F5F4F8"/>
<path d="M463.584 437.905L463.565 441.974L466.786 441.989L466.805 437.921L463.584 437.905Z" fill="#F5F4F8"/>
<path d="M459.354 437.884L459.335 441.952L462.555 441.967L462.575 437.899L459.354 437.884Z" fill="#F5F4F8"/>
<path d="M467.804 437.927L467.785 441.996L471.005 442.011L471.024 437.943L467.804 437.927Z" fill="#F5F4F8"/>
<path d="M222.496 452.959H153.19L150.089 419.38H222.496V452.959Z" fill="#EFECF3"/>
<path d="M222.474 419.336L247.367 388.183L267.191 419.336L264.09 452.916H222.474V419.336Z" fill="#EFECF3"/>
<path d="M173.873 378.327H249.152L277.037 425.439H269.432L248.129 389.977L227.664 425.439H144.258L173.873 378.327Z" fill="#BBB7C5"/>
<path d="M171.643 431.846H160.676V447.51H171.643V431.846Z" fill="white"/>
<path d="M165.55 433.129H162.025V439.09H165.55V433.129Z" fill="#EFECF3"/>
<path d="M170.282 433.129H166.757V439.09H170.282V433.129Z" fill="#EFECF3"/>
<path d="M165.55 440.221H162.025V446.182H165.55V440.221Z" fill="#EFECF3"/>
<path d="M170.282 440.221H166.757V446.182H170.282V440.221Z" fill="#EFECF3"/>
<path d="M211.92 431.846H200.953V447.51H211.92V431.846Z" fill="white"/>
<path d="M205.827 433.129H202.302V439.09H205.827V433.129Z" fill="#EFECF3"/>
<path d="M210.56 433.129H207.035V439.09H210.56V433.129Z" fill="#EFECF3"/>
<path d="M205.827 440.221H202.302V446.182H205.827V440.221Z" fill="#EFECF3"/>
<path d="M210.56 440.221H207.035V446.182H210.56V440.221Z" fill="#EFECF3"/>
<path d="M191.847 431.008H179.759V452.959H191.847V431.008Z" fill="white"/>
<path d="M187.103 432.52H184.503V435.805H187.103V432.52Z" fill="#EFECF3"/>
<path d="M190.519 432.52H187.919V435.805H190.519V432.52Z" fill="#EFECF3"/>
<path d="M188.55 446.933H183.056V447.727H188.55V446.933Z" fill="#EFECF3"/>
<path d="M183.687 432.52H181.086V435.805H183.687V432.52Z" fill="#EFECF3"/>
<path d="M187.103 436.675H184.503V439.96H187.103V436.675Z" fill="#EFECF3"/>
<path d="M190.519 436.675H187.919V439.96H190.519V436.675Z" fill="#EFECF3"/>
<path d="M183.687 436.675H181.086V439.96H183.687V436.675Z" fill="#EFECF3"/>
<path d="M187.103 440.831H184.503V444.116H187.103V440.831Z" fill="#EFECF3"/>
<path d="M190.519 440.831H187.919V444.116H190.519V440.831Z" fill="#EFECF3"/>
<path d="M183.687 440.831H181.086V444.116H183.687V440.831Z" fill="#EFECF3"/>
<path d="M189.801 376.446H180.945V388.096H189.801V376.446Z" fill="#EFECF3"/>
<path d="M189.801 376.446H196.764V378.317L189.801 388.096V376.446Z" fill="#EFECF3"/>
<path d="M189.801 372.475H179.955V376.435H189.801V372.475Z" fill="#BBB7C5"/>
<path d="M197.526 372.475H189.801V376.435H197.526V372.475Z" fill="#D5D2DC"/>
<path d="M249.892 452.97H272.37L274.513 429.812H249.892V452.97Z" fill="#EFECF3"/>
<path d="M249.892 429.812L238.783 424.797L239.033 452.97H249.892V429.812Z" fill="#EFECF3"/>
<path d="M267.104 435.805H257.649V452.959H267.104V435.805Z" fill="white"/>
<path d="M263.394 436.98H261.359V439.547H263.394V436.98Z" fill="#EFECF3"/>
<path d="M266.059 436.98H264.025V439.547H266.059V436.98Z" fill="#EFECF3"/>
<path d="M264.525 447.096H260.228V447.716H264.525V447.096Z" fill="#EFECF3"/>
<path d="M260.728 436.98H258.693V439.547H260.728V436.98Z" fill="#EFECF3"/>
<path d="M237.086 423.644H269.747L280.301 431.672H248.945L237.086 423.644Z" fill="#BBB7C5"/>
<path d="M248.945 431.672H237.086V423.644L248.945 431.672Z" fill="#EFECF3"/>
<path d="M241.927 411.907C241.927 413.015 242.256 414.099 242.872 415.02C243.488 415.942 244.364 416.66 245.389 417.083C246.413 417.507 247.54 417.617 248.628 417.4C249.715 417.183 250.713 416.649 251.496 415.864C252.28 415.08 252.812 414.08 253.027 412.993C253.242 411.905 253.13 410.779 252.704 409.755C252.278 408.732 251.558 407.858 250.636 407.244C249.713 406.629 248.628 406.303 247.52 406.305C246.035 406.308 244.613 406.899 243.565 407.949C242.516 409 241.927 410.423 241.927 411.907Z" fill="white"/>
<path d="M243.178 411.907C243.178 413.061 243.637 414.168 244.453 414.984C245.269 415.8 246.376 416.258 247.53 416.258C247.898 416.261 248.264 416.213 248.618 416.117C249.632 415.841 250.512 415.209 251.096 414.337C251.679 413.464 251.928 412.41 251.796 411.368C251.663 410.327 251.158 409.368 250.374 408.67C249.591 407.971 248.581 407.579 247.53 407.567C247.163 407.565 246.797 407.613 246.442 407.708C245.936 407.831 245.459 408.053 245.039 408.361C244.467 408.76 244 409.29 243.676 409.907C243.353 410.524 243.182 411.21 243.178 411.907Z" fill="#EFECF3"/>
<path d="M246.921 417.019H248.129V406.707H246.921V417.019Z" fill="white"/>
<path d="M252.688 412.462V411.254H242.374V412.462H252.688Z" fill="white"/>
<path d="M281.922 452.97H246.899L244.506 427.07H281.922V452.97Z" fill="#D5D2DC"/>
<path opacity="0.2" d="M281.922 452.97H246.899L244.506 427.07H281.922V452.97Z" fill="#1F1B2D"/>
<path d="M281.922 427.07L301.125 403.031L316.412 427.07L314.029 452.97H281.922V427.07Z" fill="#D5D2DC"/>
<path d="M284.24 430.236H236.716L265.624 393.893H301.321L322.777 430.236H317.326L301.321 405.337L284.24 430.236Z" fill="#D5D2DC"/>
<path opacity="0.4" d="M284.24 430.236H236.716L265.624 393.893H301.321L322.777 430.236H317.326L301.321 405.337L284.24 430.236Z" fill="#1F1B2D"/>
<path d="M332.199 361.75H322.298V374.781H332.199V361.75Z" fill="#D5D2DC"/>
<path opacity="0.2" d="M332.199 361.75H322.298V374.781H332.199V361.75Z" fill="#1F1B2D"/>
<path d="M339.989 361.75H332.199V374.781H339.989V361.75Z" fill="#D5D2DC"/>
<path d="M332.199 357.312H321.188V361.739H332.199V357.312Z" fill="#D5D2DC"/>
<path opacity="0.5" d="M332.199 357.312H321.188V361.739H332.199V357.312Z" fill="#1F1B2D"/>
<path d="M340.837 357.312H332.199V361.739H340.837V357.312Z" fill="#D5D2DC"/>
<path opacity="0.4" d="M340.837 357.312H332.199V361.739H340.837V357.312Z" fill="#1F1B2D"/>
<path d="M366.993 452.937H289.473L286.002 415.377H366.993V452.937Z" fill="#D5D2DC"/>
<path opacity="0.2" d="M366.993 452.937H289.473L286.002 415.377H366.993V452.937Z" fill="#1F1B2D"/>
<path d="M366.993 415.377L394.835 380.514L417.008 415.377L413.538 452.937H366.993V415.377Z" fill="#D5D2DC"/>
<path d="M394.498 382.722L417.389 418.118H425.386L395.183 369.451H312.724L270.944 422.154H371.661L394.498 382.722Z" fill="#D5D2DC"/>
<path opacity="0.5" d="M394.498 382.722L417.389 418.118H425.386L395.183 369.451H312.724L270.944 422.154H371.661L394.498 382.722Z" fill="black"/>
<path d="M387.6 420.652H399.861V403.128H387.6V420.652Z" fill="white"/>
<path d="M398.349 404.553H394.4V411.221H398.349V404.553Z" fill="#D5D2DC"/>
<path d="M393.061 404.553H389.112V411.221H393.061V404.553Z" fill="#D5D2DC"/>
<path d="M398.349 412.494H394.4V419.162H398.349V412.494Z" fill="#D5D2DC"/>
<path d="M393.061 412.494H389.112V419.162H393.061V412.494Z" fill="#D5D2DC"/>
<path d="M310.101 429.311H297.84V446.835H310.101V429.311Z" fill="white"/>
<path d="M303.301 430.747H299.352V437.415H303.301V430.747Z" fill="#D5D2DC"/>
<path d="M308.6 430.747H304.651V437.415H308.6V430.747Z" fill="#D5D2DC"/>
<path d="M303.301 438.688H299.352V445.356H303.301V438.688Z" fill="#D5D2DC"/>
<path d="M308.6 438.688H304.651V445.356H308.6V438.688Z" fill="#D5D2DC"/>
<path d="M332.634 429.311H320.372V446.835H332.634V429.311Z" fill="white"/>
<path d="M325.823 430.747H321.874V437.415H325.823V430.747Z" fill="#D5D2DC"/>
<path d="M331.122 430.747H327.172V437.415H331.122V430.747Z" fill="#D5D2DC"/>
<path d="M325.823 438.688H321.874V445.356H325.823V438.688Z" fill="#D5D2DC"/>
<path d="M331.122 438.688H327.172V445.356H331.122V438.688Z" fill="#D5D2DC"/>
<path d="M355.156 429.311H342.894V446.835H355.156V429.311Z" fill="white"/>
<path d="M348.356 430.747H344.406V437.415H348.356V430.747Z" fill="#D5D2DC"/>
<path d="M353.643 430.747H349.694V437.415H353.643V430.747Z" fill="#D5D2DC"/>
<path d="M348.356 438.688H344.406V445.356H348.356V438.688Z" fill="#D5D2DC"/>
<path d="M353.643 438.688H349.694V445.356H353.643V438.688Z" fill="#D5D2DC"/>
<path d="M386.969 452.927H400.492V428.376H386.969V452.927Z" fill="white"/>
<path d="M395.194 430.073H392.278V433.749H395.194V430.073Z" fill="#D5D2DC"/>
<path d="M391.375 430.073H388.459V433.749H391.375V430.073Z" fill="#D5D2DC"/>
<path d="M390.657 447.085H396.804V446.193H390.657V447.085Z" fill="#D5D2DC"/>
<path d="M399.002 430.073H396.086V433.749H399.002V430.073Z" fill="#D5D2DC"/>
<path d="M395.194 434.717H392.278V438.394H395.194V434.717Z" fill="#D5D2DC"/>
<path d="M391.375 434.717H388.459V438.394H391.375V434.717Z" fill="#D5D2DC"/>
<path d="M399.002 434.717H396.086V438.394H399.002V434.717Z" fill="#D5D2DC"/>
<path d="M395.194 439.362H392.278V443.039H395.194V439.362Z" fill="#D5D2DC"/>
<path d="M391.375 439.362H388.459V443.039H391.375V439.362Z" fill="#D5D2DC"/>
<path d="M399.002 439.362H396.086V443.039H399.002V439.362Z" fill="#D5D2DC"/>
<path d="M344.645 382.069H326.846L317.696 393.491H337.845L344.645 382.069Z" fill="#D5D2DC"/>
<path opacity="0.4" d="M344.645 382.069H326.846L317.696 393.491H337.845L344.645 382.069Z" fill="#1F1B2D"/>
<path d="M331.165 391.489V405.337H321.253V391.489L326.215 385.3L331.165 391.489Z" fill="#D5D2DC"/>
<path opacity="0.2" d="M331.165 391.489V405.337H321.253V391.489L326.215 385.3L331.165 391.489Z" fill="#1F1B2D"/>
<path d="M331.165 391.489H338.955L331.165 405.337V391.489Z" fill="#D5D2DC"/>
<path d="M328.761 391.707H323.136V401.203H328.761V391.707Z" fill="white"/>
<path d="M325.649 392.36H323.832V395.416H325.649V392.36Z" fill="#D5D2DC"/>
<path d="M328.075 392.36H326.258V395.416H328.075V392.36Z" fill="#D5D2DC"/>
<path d="M325.649 395.982H323.832V400.518H325.649V395.982Z" fill="#D5D2DC"/>
<path d="M328.075 395.982H326.258V400.518H328.075V395.982Z" fill="#D5D2DC"/>
<path d="M447.843 249.818C452.689 253.938 456.294 259.323 458.256 265.372C460.218 271.421 460.46 277.897 458.954 284.075C457.449 290.254 454.255 295.892 449.73 300.362C445.206 304.831 439.527 307.955 433.329 309.385L425.713 324.972L418.326 309.493C412.802 308.31 407.66 305.768 403.366 302.097C399.933 299.176 397.108 295.608 395.054 291.596C393 287.584 391.756 283.207 391.394 278.715C390.663 269.642 393.566 260.651 399.465 253.718C405.365 246.786 413.777 242.48 422.852 241.749C431.927 241.017 440.92 243.92 447.854 249.818H447.843Z" fill="white"/>
<path d="M447.843 249.818C452.688 253.939 456.299 259.319 458.277 265.363C458.773 266.866 459.172 268.399 459.474 269.953C459.734 271.515 459.898 273.092 459.964 274.674C460.112 277.847 459.815 281.025 459.082 284.116C458.362 287.214 457.216 290.197 455.677 292.981C454.898 294.369 454.022 295.699 453.055 296.962C452.12 298.251 451.087 299.466 449.965 300.595C445.428 305.164 439.703 308.374 433.438 309.863L433.775 309.602L426.246 325.233L425.702 326.376L425.158 325.233L417.717 309.787L418.174 310.146C411.69 308.741 405.745 305.509 401.041 300.832C396.338 296.155 393.072 290.228 391.631 283.754C390.19 277.28 390.634 270.529 392.91 264.299C395.187 258.069 399.2 252.621 404.476 248.6C408.661 245.464 413.493 243.301 418.62 242.269C423.745 241.232 429.038 241.373 434.101 242.68C439.163 243.988 443.862 246.429 447.843 249.818ZM447.843 249.818C443.889 246.444 439.213 244.022 434.176 242.739C429.138 241.457 423.873 241.348 418.786 242.421C413.699 243.494 408.927 245.72 404.837 248.928C400.747 252.136 397.448 256.241 395.195 260.925C392.948 265.555 391.787 270.637 391.8 275.783C391.864 280.905 393.037 285.952 395.239 290.577C397.471 295.179 400.718 299.214 404.737 302.379C408.763 305.529 413.443 307.737 418.435 308.841L418.761 308.917L418.892 309.211L426.236 324.711H425.148L432.883 309.178L432.981 308.96H433.21C439.36 307.614 445.013 304.578 449.53 300.193C450.652 299.099 451.688 297.921 452.63 296.669C453.604 295.439 454.488 294.142 455.274 292.785C456.852 290.064 458.038 287.135 458.799 284.083C459.588 281.03 459.926 277.879 459.8 274.728C459.744 273.155 459.595 271.585 459.354 270.029C459.06 268.48 458.671 266.951 458.19 265.45C456.252 259.384 452.67 253.973 447.843 249.818Z" fill="#666276"/>
<path d="M434.929 267.244C434.548 266.857 434.125 266.514 433.667 266.222C433.06 265.829 432.423 265.483 431.763 265.189C430.165 264.464 428.453 264.023 426.703 263.883V273.673L427.607 273.858C429.165 274.23 430.701 274.687 432.209 275.229C433.451 275.665 434.621 276.285 435.679 277.067C436.601 277.776 437.345 278.688 437.855 279.732C438.401 280.941 438.665 282.257 438.628 283.583C438.672 285.055 438.366 286.516 437.736 287.847C437.154 289.015 436.304 290.029 435.255 290.806C434.145 291.615 432.894 292.213 431.567 292.568C430.099 292.972 428.585 293.188 427.063 293.209V298.17H424.615V293.112C422.386 292.977 420.188 292.527 418.087 291.774C416.062 291.046 414.167 289.999 412.472 288.674L414.877 284.148C415.332 284.615 415.839 285.027 416.389 285.378C417.126 285.858 417.897 286.283 418.696 286.65C419.636 287.084 420.607 287.447 421.601 287.738C422.667 288.054 423.76 288.276 424.865 288.402V278.612C424.68 278.557 424.473 278.492 424.277 278.448C424.078 278.407 423.882 278.353 423.69 278.285C422.214 277.904 420.761 277.439 419.338 276.893C418.217 276.476 417.173 275.877 416.248 275.12C415.451 274.463 414.815 273.634 414.387 272.694C413.929 271.627 413.71 270.472 413.745 269.311C413.715 267.902 413.99 266.503 414.55 265.21C415.073 264.029 415.845 262.976 416.814 262.121C417.814 261.234 418.973 260.544 420.23 260.087C421.63 259.577 423.095 259.27 424.582 259.173V254.398H427.03V259.173C428.974 259.272 430.888 259.687 432.698 260.402C434.324 261.036 435.863 261.873 437.279 262.893L434.929 267.244ZM419.349 268.463C419.31 269.037 419.417 269.611 419.661 270.132C419.905 270.654 420.276 271.105 420.741 271.443C422.039 272.259 423.467 272.848 424.963 273.184V263.883C423.434 263.846 421.936 264.321 420.709 265.232C420.256 265.636 419.899 266.135 419.664 266.694C419.429 267.253 419.321 267.857 419.349 268.463ZM433.025 284.138C433.054 283.515 432.916 282.897 432.625 282.346C432.334 281.795 431.901 281.332 431.371 281.005C429.927 280.146 428.365 279.501 426.736 279.09V288.434C428.359 288.513 429.973 288.137 431.393 287.346C431.923 287.002 432.352 286.524 432.639 285.961C432.925 285.397 433.058 284.769 433.025 284.138Z" fill="#07C98B"/>
</svg>
