<svg width="698" height="517" viewBox="0 0 698 517" fill="none" xmlns="http://www.w3.org/2000/svg">
<path d="M348.998 474.483C165.865 474.483 17.4064 457.983 17.4064 437.629C17.4064 417.276 165.865 400.775 348.998 400.775C532.131 400.775 680.59 417.276 680.59 437.629C680.59 457.983 532.131 474.483 348.998 474.483Z" fill="#EFECF3"/>
<path d="M655.055 371.565L578.54 371.229L502.025 371.102L348.997 370.878L195.967 371.102L119.452 371.229L42.9367 371.565L119.452 371.915L195.967 372.043L348.997 372.267L502.025 372.043L578.54 371.915L655.055 371.565Z" fill="#1F1B2D"/>
<path d="M118.082 80.9314H582.252V392.839H118.082V80.9314Z" fill="#D5D2DC"/>
<path d="M121.458 84.7314H578.873V389.023H121.458V84.7314Z" fill="#666276"/>
<path d="M57.6351 416.216H642.713V437.616H57.6351V416.216Z" fill="#D5D2DC"/>
<path d="M642.713 416.216L582.252 392.838H118.082L57.6351 416.216H642.713Z" fill="#D5D2DC"/>
<path d="M576.85 407.928L537.845 392.838H162.489L123.485 407.928H576.85Z" fill="#666276"/>
<path d="M147.314 107.857H553.034V365.915H147.314V107.857Z" fill="white"/>
<path d="M147.301 107.857H553.369V117.785H147.301V107.857Z" fill="#BBB7C5"/>
<path d="M545.51 112.821C545.51 113.309 545.653 113.785 545.923 114.192C546.193 114.599 546.578 114.914 547.025 115.102C547.473 115.289 547.969 115.338 548.445 115.242C548.923 115.147 549.361 114.912 549.704 114.567C550.047 114.221 550.281 113.782 550.376 113.304C550.471 112.825 550.422 112.328 550.236 111.877C550.05 111.426 549.735 111.04 549.331 110.769C548.927 110.497 548.452 110.354 547.965 110.354C547.642 110.352 547.322 110.415 547.023 110.538C546.725 110.661 546.453 110.843 546.225 111.072C545.996 111.302 545.815 111.575 545.692 111.875C545.57 112.176 545.508 112.496 545.51 112.821Z" fill="#D5D2DC"/>
<path d="M537.958 115.289C536.6 115.289 535.5 114.184 535.5 112.821C535.5 111.457 536.6 110.352 537.958 110.352C539.315 110.352 540.414 111.457 540.414 112.821C540.414 114.184 539.313 115.289 537.958 115.289Z" fill="white"/>
<path d="M525.491 112.821C525.491 113.309 525.634 113.785 525.904 114.192C526.174 114.599 526.559 114.914 527.008 115.102C527.456 115.289 527.95 115.338 528.426 115.242C528.904 115.147 529.342 114.912 529.685 114.567C530.029 114.221 530.264 113.782 530.357 113.304C530.453 112.825 530.404 112.328 530.218 111.877C530.032 111.426 529.717 111.04 529.313 110.769C528.91 110.497 528.434 110.354 527.948 110.354C527.625 110.352 527.305 110.415 527.006 110.538C526.707 110.661 526.435 110.843 526.206 111.072C525.979 111.302 525.798 111.575 525.675 111.875C525.552 112.176 525.489 112.496 525.491 112.821Z" fill="#FE9589"/>
<path d="M462.617 86.331C477.401 105.964 478.337 135.034 478.337 135.034C478.337 135.034 490.817 165.886 484.018 180.708C482.179 184.929 479.348 188.64 475.769 191.521C472.195 194.401 467.973 196.37 463.469 197.257L466.261 188.926C466.261 188.926 459.169 199.136 440.044 200.943C420.918 202.751 397.27 193.526 385.461 185.238C378.439 180.366 372.802 173.756 369.1 166.054L372.115 179.179C372.115 179.179 354.246 175.982 346.303 155.341C338.36 134.7 372.827 111.433 376.317 105.867C379.807 100.301 389.174 57.4872 433.44 71.4252C433.469 71.3687 452.44 72.7985 462.617 86.331Z" fill="#1F1B2D"/>
<path d="M470.153 197.074C475.626 195.376 480.609 190.749 483.918 186.178C487.475 181.376 489.329 175.515 489.18 169.532C488.915 162.352 486.109 155.649 483.386 149.114C480.594 142.354 477.258 135.779 474.564 128.991C474.425 128.613 474.983 128.402 475.193 128.71C478.552 134.032 481.605 139.543 484.336 145.216C487.212 150.455 489.471 156.013 491.064 161.777C492.553 167.091 492.496 172.719 490.898 178.001C489.4 182.287 486.873 186.139 483.54 189.22C479.618 192.923 474.983 194.998 470.334 197.55C470.303 197.562 470.269 197.568 470.237 197.567C470.205 197.565 470.171 197.559 470.14 197.546C470.109 197.533 470.082 197.512 470.059 197.487C470.037 197.463 470.017 197.434 470.006 197.403C469.994 197.372 469.989 197.338 469.99 197.305C469.99 197.271 469.998 197.239 470.011 197.208C470.024 197.177 470.045 197.15 470.069 197.127C470.093 197.105 470.121 197.085 470.153 197.074Z" fill="#454056"/>
<path d="M345.295 135.007C352.986 119.847 368.678 111.771 379.316 99.1203C385.081 92.2636 389.898 84.4521 396.933 78.7861C397.128 78.6455 397.38 78.9686 397.197 79.1221C391.349 84.297 387.425 90.9436 382.861 97.1703C378.059 103.306 372.652 108.943 366.723 113.999C356.211 123.534 343.647 134.795 343.563 150.235C343.563 157.373 346.55 165.661 353.335 168.901C353.587 169.012 353.335 169.447 353.112 169.293C350.454 167.757 348.137 165.695 346.303 163.233C344.467 160.766 343.15 157.952 342.434 154.961C340.963 148.182 341.979 141.1 345.295 135.007Z" fill="#1F1B2D"/>
<path d="M344.027 139.199C344.4 133.095 346.643 127.257 350.448 122.484C354.301 117.786 359.746 114.786 365.12 112.191C371.333 109.204 377.81 106.47 382.263 100.972C382.444 100.733 382.766 101.056 382.585 101.281C375.479 110.368 363.962 113.438 355.432 120.716C345.66 129.047 343.705 142.915 347.95 154.638C350.687 161.793 355.073 168.203 360.751 173.345C360.848 173.429 360.751 173.585 360.611 173.486C350.895 164.904 342.994 152.717 344.027 139.199Z" fill="#1F1B2D"/>
<path d="M421.584 207.913C406.884 223.423 331.346 296.794 298.372 289.95C258.405 281.662 211.988 257.233 193.868 239.872C183.705 230.154 232.691 180.974 242.91 188.561C259.005 200.538 297.786 220.45 304.612 223.255C311.439 226.06 369.192 196.148 402.864 184.453C433.185 173.851 431.928 196.99 421.584 207.913Z" fill="#EDBA9E"/>
<path d="M166.244 217.814C175.108 229.692 202.708 246.842 210.916 248.412C219.124 249.982 249.752 203.819 247.002 195.615C244.252 187.411 211.307 149.773 196.746 146.001C182.185 142.228 157.044 205.516 166.244 217.814Z" fill="#EDBA9E"/>
<path d="M242.552 188.196C242.552 188.196 237.317 169.616 238.364 152.647C239.285 138.372 242.258 117.28 234.636 116.495C218.986 114.882 211.588 167.484 211.588 167.484C211.588 167.484 212.048 191.225 227.404 194.129C237.079 196.077 242.552 188.196 242.552 188.196Z" fill="#EDBA9E"/>
<path d="M218.035 156.336C218.817 164.16 209.185 160.613 209.185 160.613C209.185 160.613 221.749 169.027 219.515 177.441C217.282 185.504 205.807 180.792 204.968 180.47C205.639 180.932 217.044 189.023 213.861 197.2C210.552 205.698 199.901 198.995 199.147 198.602C199.651 199.22 206.03 207.619 202.205 213.284C195.644 223.016 178.724 202.066 169.273 201.393L166.244 217.828C166.244 217.828 149.742 198.195 151.264 185.391C151.46 183.53 152.28 181.792 153.592 180.464C154.902 179.135 156.628 178.296 158.482 178.086C158.482 178.086 152.465 172.336 154.754 165.815C155.94 162.464 162.335 161.398 162.335 161.398C162.335 161.398 157.7 156.601 160.101 150.922C162.014 146.392 168.115 146.028 168.115 146.028C168.115 146.028 165.811 139.34 169.246 135.343C176.184 127.252 216.374 139.577 218.035 156.336Z" fill="#EDBA9E"/>
<path d="M169.078 145.804C169.048 145.804 169.02 145.792 168.998 145.771C168.977 145.75 168.966 145.721 168.966 145.692C168.966 145.663 168.977 145.634 168.998 145.613C169.019 145.592 169.048 145.581 169.078 145.581C183.275 146.395 198.631 151.667 209.715 160.74C210.079 161.049 209.715 161.765 209.297 161.511C196.104 154.346 183.805 149.056 169.078 145.804ZM162.154 161.244C162.001 161.244 162.056 160.95 162.154 160.95C176.783 161.874 193.899 168.284 205.43 180.26C205.821 180.666 205.765 181.438 205.277 181.003C197.096 173.626 175.429 164.106 162.154 161.244ZM199.622 199.696C188.105 188.645 174.216 182.406 159.041 178.073C158.845 178.073 158.944 177.735 159.125 177.735C167.123 177.834 176.518 181.606 183.568 185.168C190.184 188.365 195.852 193.232 200.013 199.289C200.223 199.528 199.916 199.934 199.622 199.696Z" fill="#454056"/>
<path d="M209.394 160.543C209.827 160.894 208.822 161.146 209.255 161.511C211.042 163.081 220.982 173.417 218.539 177.905C216.556 181.508 210.371 181.34 208.027 180.344L202.107 177.834L206.797 182.251C208.889 184.202 210.652 186.48 212.019 188.996C212.721 190.127 213.176 191.394 213.354 192.714C213.531 194.033 213.428 195.376 213.052 196.654C212.688 197.829 211.937 198.843 210.922 199.531C209.907 200.22 208.687 200.54 207.468 200.439C204.726 200.141 202.107 199.147 199.859 197.551L193.508 193.344L198.156 199.417C199.445 201.091 200.515 202.924 201.339 204.871C202.194 206.689 202.496 208.718 202.205 210.705C202.04 211.594 201.632 212.418 201.024 213.083C200.418 213.75 199.637 214.233 198.77 214.478C196.748 214.732 194.695 214.406 192.852 213.537C188.848 211.698 184.992 209.551 181.32 207.115C179.422 205.95 177.51 204.787 175.541 203.708C173.636 202.511 171.5 201.73 169.273 201.422C171.422 201.961 173.445 202.915 175.234 204.226C177.09 205.432 178.892 206.736 180.693 208.054C184.279 210.791 188.111 213.191 192.139 215.221C194.3 216.372 196.753 216.86 199.19 216.623C200.499 216.341 201.697 215.684 202.638 214.731C203.58 213.776 204.225 212.568 204.495 211.251C204.918 208.795 204.606 206.267 203.601 203.987C202.717 201.801 201.554 199.742 200.139 197.859L198.408 199.696C201.042 201.627 204.129 202.835 207.371 203.202C209.176 203.336 210.971 202.84 212.452 201.8C213.873 200.736 214.943 199.271 215.522 197.593C216 195.977 216.131 194.279 215.908 192.609C215.685 190.938 215.11 189.334 214.225 187.902C212.69 185.152 210.709 182.677 208.361 180.583L207.133 182.49C210.163 183.668 217.059 184.608 220.814 179.404C224.75 171.846 211.908 162.143 209.394 160.543Z" fill="#454056"/>
<path d="M209.187 160.613C210.783 160.858 212.407 160.858 214.003 160.613C214.644 160.533 215.253 160.283 215.764 159.889C216.278 159.495 216.677 158.969 216.92 158.368C217.264 156.977 217.201 155.517 216.739 154.161C216.306 152.633 215.761 151.063 215.147 149.45C216.485 150.578 217.572 151.972 218.345 153.546C219.282 155.261 219.507 157.276 218.972 159.155C218.581 160.149 217.892 160.995 217.004 161.582C216.161 162.089 215.195 162.356 214.212 162.353C212.394 162.33 210.633 161.719 209.187 160.613Z" fill="#454056"/>
<path d="M254.626 193.679L197.878 258.102C197.878 258.102 282.113 299.527 309.558 293.161C337.003 286.796 393.667 243.883 418.446 213.228C443.225 182.574 428.218 174.046 393.696 185.517C359.174 196.988 310.368 219.384 305.412 219.174C300.457 218.964 254.626 193.679 254.626 193.679Z" fill="#FE9589"/>
<path d="M197.875 258.104C197.875 258.104 282.11 299.514 309.555 293.162C326.641 289.221 355.036 271.089 380.025 250.545C380.13 250.482 380.229 250.406 380.318 250.32C395.367 237.923 409.16 224.687 418.457 213.172C426.512 203.229 430.351 195.615 430.714 190.259C430.803 189.257 430.734 188.249 430.504 187.272C428.578 178.858 414.772 178.493 393.706 185.49C359.14 196.948 310.379 219.344 305.409 219.147C300.439 218.949 254.636 193.679 254.636 193.679L197.875 258.104Z" fill="#FE9589"/>
<path d="M351.34 251.722C350.28 251.356 349.139 251.293 348.045 251.54C347.447 251.764 346.932 252.165 346.563 252.687C346.195 253.209 345.992 253.831 345.979 254.471C345.988 254.895 345.89 255.316 345.693 255.692C345.495 256.068 345.204 256.386 344.848 256.616C344.457 256.876 344.004 257.027 343.536 257.051L341.959 257.346C343.027 257.726 344.187 257.77 345.281 257.472C345.86 257.223 346.352 256.808 346.698 256.28C347.043 255.752 347.224 255.131 347.221 254.5C347.232 254.076 347.35 253.664 347.564 253.299C347.777 252.934 348.076 252.629 348.436 252.409C348.858 252.157 349.339 252.023 349.832 252.017L351.34 251.722ZM425.539 192.403C426.604 192.776 427.755 192.825 428.847 192.544C429.315 192.353 429.729 192.049 430.052 191.662C430.376 191.272 430.599 190.81 430.703 190.314C430.794 189.314 430.723 188.306 430.495 187.327C429.913 187.914 429.578 188.702 429.559 189.529C429.566 189.956 429.464 190.376 429.264 190.75C429.063 191.125 428.771 191.444 428.414 191.675C428.026 191.928 427.579 192.078 427.116 192.109L425.539 192.403ZM271.545 229.524C270.477 229.168 269.333 229.11 268.236 229.356C267.638 229.577 267.121 229.976 266.756 230.5C266.389 231.024 266.189 231.647 266.184 232.287C266.187 232.712 266.083 233.131 265.883 233.506C265.684 233.881 265.394 234.199 265.038 234.432C264.646 234.687 264.193 234.833 263.726 234.852L262.162 235.161C263.227 235.538 264.381 235.582 265.471 235.287C266.054 235.038 266.55 234.621 266.898 234.09C267.245 233.558 267.429 232.936 267.426 232.299C267.432 231.88 267.546 231.469 267.756 231.106C267.966 230.742 268.266 230.438 268.627 230.225C269.046 229.966 269.53 229.83 270.023 229.832L271.545 229.524ZM216.375 252.942C215.312 252.588 214.173 252.53 213.079 252.774C212.482 252.996 211.966 253.392 211.597 253.912C211.229 254.432 211.025 255.052 211.014 255.692C211.024 256.119 210.925 256.54 210.727 256.918C210.53 257.296 210.239 257.617 209.883 257.851C209.49 258.107 209.038 258.253 208.571 258.272L206.993 258.581C208.064 258.947 209.22 258.991 210.316 258.707C210.897 258.456 211.391 258.039 211.736 257.508C212.082 256.977 212.263 256.354 212.257 255.72C212.268 255.296 212.386 254.884 212.598 254.519C212.809 254.154 213.11 253.849 213.47 253.631C213.894 253.384 214.375 253.253 214.866 253.251C215.272 253.139 215.802 253.083 216.375 252.942ZM323.685 268.129C322.617 267.775 321.474 267.717 320.376 267.961C319.768 268.184 319.241 268.588 318.866 269.12C318.492 269.651 318.288 270.284 318.282 270.934C318.291 271.358 318.192 271.778 317.994 272.154C317.795 272.53 317.506 272.848 317.152 273.079C316.76 273.335 316.305 273.48 315.839 273.501L314.262 273.81C315.331 274.184 316.489 274.227 317.584 273.936C318.165 273.685 318.66 273.268 319.005 272.737C319.351 272.205 319.531 271.583 319.524 270.948C319.537 270.527 319.653 270.116 319.867 269.753C320.078 269.39 320.379 269.088 320.739 268.872C321.159 268.614 321.642 268.478 322.135 268.48L323.685 268.129ZM384.213 191.085C383.145 190.731 382.003 190.673 380.904 190.917C380.31 191.141 379.796 191.542 379.429 192.066C379.063 192.589 378.863 193.209 378.852 193.848C378.856 194.272 378.754 194.693 378.554 195.067C378.353 195.442 378.062 195.76 377.708 195.993C377.318 196.253 376.865 196.403 376.396 196.428L374.818 196.722C375.887 197.103 377.047 197.147 378.141 196.849C378.721 196.6 379.213 196.185 379.558 195.657C379.903 195.127 380.085 194.508 380.082 193.875C380.09 193.453 380.206 193.038 380.42 192.673C380.632 192.308 380.933 192.003 381.295 191.786C381.718 191.534 382.2 191.398 382.691 191.393L384.213 191.085ZM253.426 265.1C253.92 266.113 254.683 266.968 255.633 267.569C256.211 267.835 256.856 267.919 257.484 267.813C258.112 267.704 258.693 267.409 259.15 266.966C259.446 266.661 259.813 266.436 260.218 266.31C260.623 266.185 261.053 266.165 261.467 266.25C261.924 266.349 262.349 266.565 262.695 266.882L264.022 267.779C263.422 266.924 262.975 265.872 261.761 265.339C261.175 265.102 260.532 265.044 259.913 265.174C259.294 265.303 258.727 265.615 258.284 266.068C257.982 266.36 257.61 266.57 257.205 266.678C256.8 266.786 256.374 266.788 255.967 266.685C255.512 266.567 255.095 266.336 254.752 266.013C254.306 265.704 253.888 265.324 253.426 265.1ZM319.762 238.681C320.255 239.696 321.024 240.552 321.982 241.15C322.558 241.415 323.202 241.499 323.827 241.391C324.452 241.282 325.03 240.987 325.486 240.546C325.782 240.242 326.149 240.016 326.553 239.891C326.958 239.766 327.388 239.746 327.803 239.832C328.26 239.928 328.684 240.147 329.031 240.462L330.358 241.36C329.757 240.504 329.311 239.452 328.11 238.919C327.524 238.682 326.881 238.625 326.262 238.754C325.643 238.885 325.077 239.195 324.635 239.649C324.329 239.939 323.955 240.148 323.547 240.256C323.14 240.365 322.712 240.368 322.303 240.266C321.847 240.148 321.431 239.915 321.088 239.592C320.641 239.34 320.237 239.017 319.762 238.681ZM287.5 253.152C287.998 254.162 288.76 255.017 289.706 255.621C290.286 255.888 290.932 255.972 291.56 255.86C292.189 255.75 292.769 255.451 293.225 255.004C293.519 254.698 293.887 254.473 294.293 254.351C294.698 254.228 295.128 254.212 295.542 254.303C296.002 254.395 296.427 254.614 296.77 254.934C297.217 255.228 297.621 255.564 298.166 255.831C297.566 254.976 297.119 253.925 295.904 253.391C295.319 253.156 294.677 253.099 294.06 253.225C293.441 253.352 292.874 253.659 292.428 254.107C292.129 254.402 291.757 254.614 291.351 254.722C290.945 254.831 290.518 254.831 290.111 254.724C289.651 254.608 289.229 254.376 288.883 254.051L287.5 253.152ZM245.774 205.516C246.276 206.525 247.043 207.378 247.994 207.984C248.572 208.249 249.217 208.335 249.845 208.227C250.473 208.119 251.054 207.824 251.511 207.38C251.807 207.075 252.174 206.849 252.579 206.724C252.985 206.6 253.414 206.579 253.828 206.666C254.284 206.769 254.707 206.986 255.058 207.296C255.491 207.592 255.909 207.928 256.454 208.194C255.84 207.338 255.407 206.286 254.192 205.755C253.605 205.517 252.962 205.459 252.343 205.59C251.724 205.72 251.158 206.031 250.716 206.483C250.413 206.774 250.041 206.983 249.635 207.091C249.23 207.199 248.804 207.202 248.398 207.101C247.911 206.99 247.459 206.758 247.086 206.427L245.774 205.516Z" fill="white"/>
<path d="M404.987 202.22C404.635 203.293 404.577 204.441 404.821 205.543C405.045 206.141 405.443 206.658 405.963 207.026C406.483 207.393 407.102 207.595 407.739 207.605C408.162 207.601 408.579 207.705 408.952 207.905C409.325 208.107 409.642 208.398 409.875 208.755C410.133 209.148 410.282 209.603 410.306 210.073L410.6 211.658C410.978 210.584 411.022 209.419 410.726 208.32C410.477 207.739 410.065 207.243 409.539 206.897C409.013 206.55 408.396 206.367 407.766 206.37C407.346 206.359 406.934 206.241 406.57 206.028C406.207 205.814 405.903 205.512 405.685 205.15C405.434 204.725 405.3 204.242 405.296 203.748C405.197 203.244 405.142 202.711 404.987 202.22Z" fill="white"/>
<path d="M236.585 242.496C236.233 243.568 236.174 244.716 236.418 245.819C236.639 246.418 237.037 246.936 237.559 247.304C238.079 247.672 238.698 247.873 239.335 247.881C239.76 247.871 240.18 247.972 240.553 248.175C240.928 248.376 241.244 248.671 241.471 249.031C241.728 249.417 241.873 249.869 241.891 250.335L242.198 251.92C242.573 250.849 242.616 249.69 242.322 248.595C242.075 248.01 241.662 247.512 241.132 247.162C240.602 246.811 239.983 246.628 239.349 246.632C238.93 246.623 238.52 246.506 238.159 246.292C237.796 246.078 237.495 245.775 237.283 245.412C237.036 245.011 236.902 244.551 236.892 244.081L236.585 242.496ZM283.873 277.371C283.519 278.443 283.461 279.592 283.705 280.694C283.925 281.294 284.322 281.813 284.844 282.182C285.364 282.551 285.985 282.751 286.623 282.755C287.046 282.752 287.464 282.856 287.836 283.058C288.21 283.259 288.527 283.55 288.759 283.906C289.012 284.3 289.158 284.756 289.177 285.224L289.484 286.809C289.857 285.734 289.901 284.572 289.61 283.471C289.362 282.888 288.946 282.391 288.416 282.043C287.888 281.697 287.267 281.515 286.636 281.521C286.217 281.51 285.807 281.392 285.446 281.179C285.085 280.965 284.784 280.663 284.571 280.301C284.312 279.88 284.177 279.394 284.18 278.899L283.873 277.371ZM292.132 218.446C291.78 219.517 291.722 220.665 291.966 221.769C292.186 222.368 292.583 222.887 293.105 223.255C293.625 223.623 294.245 223.824 294.882 223.83C295.306 223.826 295.724 223.929 296.097 224.131C296.471 224.332 296.788 224.623 297.018 224.979C297.274 225.373 297.417 225.829 297.437 226.297L297.744 227.868C298.12 226.798 298.164 225.64 297.87 224.545C297.623 223.96 297.207 223.46 296.679 223.111C296.151 222.762 295.53 222.578 294.897 222.582C294.479 222.575 294.069 222.461 293.708 222.25C293.345 222.039 293.043 221.738 292.83 221.376C292.573 220.954 292.438 220.468 292.439 219.974L292.132 218.446ZM346.719 213.734C346.358 214.806 346.302 215.954 346.551 217.058C346.77 217.655 347.166 218.172 347.685 218.541C348.202 218.908 348.819 219.11 349.454 219.119C349.879 219.114 350.299 219.219 350.674 219.42C351.05 219.62 351.37 219.912 351.605 220.268C351.858 220.662 352.004 221.118 352.023 221.586L352.33 223.157C352.697 222.085 352.74 220.93 352.456 219.833C352.207 219.25 351.792 218.753 351.264 218.404C350.736 218.054 350.116 217.869 349.483 217.87C349.061 217.866 348.649 217.751 348.286 217.541C347.922 217.331 347.617 217.027 347.402 216.665C347.156 216.239 347.026 215.754 347.026 215.263C346.914 214.841 346.858 214.266 346.719 213.734ZM380.014 250.601C380.119 250.537 380.217 250.462 380.307 250.377C380.307 250.194 380.237 250.012 380.181 249.816C380.139 250.096 380.069 250.348 380.014 250.601Z" fill="white"/>
<path d="M385.432 225.919C384.926 224.911 384.159 224.06 383.212 223.452C382.632 223.189 381.985 223.108 381.358 223.218C380.732 223.328 380.151 223.624 379.694 224.068C379.23 224.537 378.602 224.806 377.943 224.819C377.283 224.833 376.645 224.589 376.162 224.139L374.766 223.241C375.38 224.097 375.813 225.149 377.028 225.682C377.613 225.916 378.255 225.974 378.872 225.847C379.489 225.719 380.058 225.414 380.504 224.966C380.807 224.671 381.181 224.459 381.589 224.351C381.997 224.242 382.426 224.242 382.835 224.349C383.292 224.46 383.711 224.693 384.049 225.023L385.432 225.919Z" fill="white"/>
<path d="M214.978 265.675C217.896 261.398 221.693 257.599 225.015 253.629L235.611 241.626C242.591 233.913 249.766 226.425 256.984 218.964C261.172 214.616 265.541 210.451 269.8 206.147C269.953 205.992 270.218 206.244 270.078 206.414L249.375 230.408C242.326 238.289 235.415 245.832 228.17 253.236C226.104 255.369 223.982 257.443 221.861 259.52C219.787 261.787 217.587 263.936 215.272 265.956C215.118 266.097 214.866 265.858 214.978 265.675Z" fill="#454056"/>
<path opacity="0.1" d="M279.321 290.063C291.578 293.288 302.454 294.845 309.545 293.218C326.632 289.278 355.027 271.145 380.016 250.601C380.121 250.538 380.219 250.462 380.308 250.377C395.357 237.98 409.149 224.741 418.446 213.229C426.502 203.286 430.341 195.672 430.703 190.314C430.794 189.314 430.723 188.306 430.495 187.327C429.601 183.457 426.166 181.283 420.723 180.764L279.321 290.063Z" fill="#454056"/>
<path d="M365.437 290.666L352.217 365.915H510.579C506.069 292.347 463.575 211.883 444.841 188.954C435.46 177.468 416.921 175.014 402.864 184.383C399.527 186.598 360.677 244.178 357.494 252.579C351.155 269.139 365.437 290.666 365.437 290.666Z" fill="#FE9589"/>
<path d="M417.958 234.474C416.891 234.119 415.748 234.061 414.651 234.306C414.056 234.533 413.542 234.933 413.177 235.455C412.81 235.977 412.61 236.597 412.597 237.237C412.605 237.899 412.355 238.541 411.898 239.02C411.44 239.5 410.815 239.78 410.154 239.802L408.577 240.111C409.647 240.491 410.805 240.534 411.899 240.237C412.479 239.988 412.973 239.573 413.318 239.045C413.662 238.516 413.845 237.896 413.84 237.264C413.849 236.841 413.966 236.427 414.179 236.062C414.391 235.697 414.693 235.392 415.055 235.175C415.477 234.923 415.959 234.788 416.451 234.783C416.911 234.642 417.401 234.571 417.958 234.474ZM407.627 300.383C406.559 300.03 405.417 299.971 404.318 300.215C403.724 300.44 403.21 300.841 402.843 301.363C402.477 301.886 402.276 302.507 402.266 303.146C402.271 303.571 402.168 303.991 401.967 304.366C401.767 304.741 401.476 305.059 401.122 305.292C400.731 305.547 400.277 305.692 399.81 305.712L398.246 306.02C399.311 306.398 400.465 306.442 401.555 306.146C402.139 305.9 402.635 305.484 402.98 304.952C403.326 304.419 403.505 303.796 403.496 303.161C403.507 302.739 403.625 302.329 403.837 301.965C404.049 301.603 404.349 301.3 404.709 301.085C405.129 300.827 405.612 300.691 406.105 300.692C406.622 300.65 407.139 300.581 407.627 300.383ZM446.479 256.435C445.413 256.068 444.269 256.005 443.17 256.253C442.575 256.48 442.062 256.88 441.697 257.401C441.331 257.925 441.13 258.545 441.118 259.183C441.125 259.608 441.024 260.03 440.824 260.405C440.624 260.781 440.331 261.099 439.973 261.329C439.588 261.591 439.139 261.741 438.675 261.764L437.097 262.058C438.161 262.436 439.315 262.479 440.406 262.184C440.988 261.938 441.484 261.524 441.831 260.995C442.179 260.465 442.364 259.845 442.361 259.211C442.369 258.788 442.485 258.374 442.697 258.007C442.909 257.642 443.211 257.338 443.574 257.122C443.976 256.881 444.434 256.745 444.901 256.729L446.479 256.435ZM467.515 324.027C466.452 323.671 465.313 323.613 464.22 323.858C463.621 324.079 463.103 324.478 462.737 325.001C462.37 325.524 462.171 326.148 462.168 326.789C462.171 327.214 462.068 327.633 461.869 328.009C461.669 328.384 461.378 328.702 461.023 328.935C460.631 329.19 460.178 329.335 459.711 329.355L458.134 329.663C459.203 330.038 460.361 330.082 461.456 329.789C462.038 329.54 462.532 329.123 462.877 328.592C463.223 328.061 463.403 327.437 463.396 326.804C463.409 326.382 463.525 325.972 463.739 325.608C463.95 325.246 464.251 324.943 464.611 324.728C465.031 324.47 465.514 324.334 466.007 324.335C466.468 324.222 466.998 324.222 467.515 324.027ZM372.826 356.856C371.758 356.501 370.614 356.442 369.517 356.688C368.92 356.912 368.406 357.312 368.042 357.835C367.675 358.359 367.474 358.979 367.465 359.619C367.468 360.044 367.364 360.463 367.164 360.839C366.965 361.213 366.675 361.532 366.319 361.764C365.927 362.02 365.474 362.165 365.007 362.184L363.43 362.493C364.5 362.868 365.657 362.912 366.752 362.619C367.334 362.369 367.829 361.953 368.174 361.422C368.518 360.89 368.699 360.267 368.693 359.632C368.704 359.211 368.822 358.8 369.035 358.438C369.247 358.074 369.547 357.772 369.908 357.557C370.327 357.298 370.811 357.162 371.304 357.165L372.826 356.856ZM502.234 332.833C503.303 333.208 504.461 333.252 505.556 332.959C505.787 332.872 506.003 332.749 506.199 332.596L505.932 331.193C505.74 331.551 505.462 331.854 505.123 332.076C504.731 332.332 504.278 332.478 503.811 332.497C503.281 332.638 502.764 332.638 502.234 332.833ZM434.919 186.795C433.854 186.429 432.708 186.366 431.611 186.613C431.016 186.84 430.503 187.24 430.138 187.761C429.772 188.285 429.57 188.905 429.558 189.543C429.569 189.968 429.47 190.389 429.272 190.765C429.074 191.14 428.784 191.458 428.428 191.689C428.037 191.949 427.584 192.099 427.115 192.124L425.538 192.418C426.602 192.796 427.756 192.839 428.847 192.544C429.428 192.3 429.926 191.886 430.273 191.356C430.622 190.827 430.805 190.205 430.8 189.571C430.809 189.148 430.925 188.734 431.138 188.367C431.349 188.002 431.652 187.697 432.015 187.482C432.438 187.23 432.919 187.094 433.411 187.089L434.919 186.795ZM378.631 282.153C379.128 283.161 379.89 284.015 380.837 284.621C381.417 284.888 382.063 284.97 382.691 284.861C383.32 284.75 383.9 284.452 384.356 284.004C384.65 283.699 385.018 283.474 385.424 283.352C385.829 283.229 386.259 283.211 386.673 283.303C387.131 283.395 387.558 283.613 387.901 283.933L389.227 284.831C388.626 283.975 388.18 282.925 386.965 282.392C386.38 282.156 385.739 282.098 385.121 282.225C384.503 282.353 383.936 282.658 383.49 283.106C383.189 283.402 382.817 283.613 382.412 283.721C382.006 283.83 381.579 283.831 381.173 283.723C380.715 283.612 380.295 283.379 379.958 283.051C379.512 282.7 379.092 282.363 378.631 282.153ZM480.416 261.033C480.922 262.041 481.689 262.894 482.636 263.502C483.031 263.679 483.459 263.771 483.892 263.77C484.325 263.77 484.753 263.679 485.149 263.502L484.688 262.366C484.157 262.631 483.55 262.706 482.971 262.576C482.512 262.45 482.091 262.214 481.743 261.89L480.416 261.033ZM480.415 306.427C480.912 307.44 481.681 308.294 482.635 308.896C483.211 309.161 483.855 309.245 484.48 309.137C485.105 309.03 485.682 308.735 486.139 308.292C486.435 307.988 486.802 307.762 487.207 307.638C487.612 307.513 488.041 307.493 488.456 307.578C488.913 307.675 489.338 307.893 489.684 308.208L491.011 309.106C490.411 308.25 489.964 307.198 488.763 306.667C488.177 306.429 487.534 306.371 486.915 306.502C486.296 306.633 485.73 306.941 485.288 307.395C484.982 307.686 484.608 307.894 484.2 308.003C483.793 308.111 483.365 308.114 482.956 308.012C482.5 307.89 482.082 307.654 481.741 307.326L480.415 306.427ZM436.512 352.269C437.014 353.279 437.781 354.132 438.732 354.738C439.312 355.005 439.958 355.087 440.585 354.977C441.214 354.867 441.794 354.568 442.249 354.121C442.544 353.816 442.911 353.591 443.317 353.468C443.723 353.345 444.153 353.327 444.566 353.42C445.025 353.515 445.45 353.733 445.796 354.05L447.122 354.948C446.507 354.092 446.075 353.04 444.86 352.508C444.274 352.272 443.632 352.214 443.015 352.342C442.397 352.47 441.829 352.776 441.383 353.222C441.083 353.517 440.712 353.728 440.306 353.836C439.9 353.945 439.473 353.946 439.066 353.84C438.607 353.723 438.184 353.492 437.838 353.168L436.512 352.269ZM433.214 296.64C433.721 297.647 434.487 298.5 435.434 299.107C436.012 299.37 436.656 299.453 437.281 299.343C437.907 299.232 438.485 298.935 438.939 298.49C439.407 298.025 440.035 297.757 440.695 297.74C441.354 297.724 441.994 297.963 442.484 298.406L443.81 299.317C443.211 298.462 442.778 297.411 441.563 296.878C440.979 296.635 440.335 296.574 439.716 296.701C439.096 296.829 438.529 297.14 438.087 297.593C437.781 297.884 437.407 298.092 437 298.201C436.593 298.309 436.164 298.312 435.756 298.21C435.3 298.092 434.883 297.86 434.541 297.537C434.15 297.228 433.689 296.905 433.214 296.64ZM396 342.874C396.511 343.877 397.276 344.728 398.219 345.341C398.799 345.608 399.445 345.692 400.074 345.582C400.702 345.471 401.283 345.172 401.738 344.724C402.032 344.419 402.4 344.194 402.806 344.072C403.211 343.949 403.641 343.933 404.055 344.023C404.515 344.115 404.94 344.333 405.283 344.655C405.73 344.949 406.134 345.272 406.679 345.551C406.079 344.697 405.632 343.645 404.418 343.112C403.833 342.877 403.191 342.82 402.573 342.947C401.954 343.073 401.387 343.38 400.941 343.828C400.642 344.123 400.271 344.335 399.864 344.443C399.458 344.551 399.031 344.552 398.624 344.445C398.164 344.329 397.741 344.097 397.396 343.771L396 342.874Z" fill="white"/>
<path d="M404.987 202.22C404.635 203.293 404.577 204.441 404.821 205.543C405.045 206.141 405.443 206.658 405.963 207.026C406.483 207.393 407.102 207.595 407.739 207.605C408.162 207.601 408.579 207.705 408.952 207.905C409.325 208.107 409.642 208.398 409.875 208.755C410.133 209.148 410.282 209.603 410.306 210.073L410.6 211.658C410.978 210.584 411.022 209.419 410.726 208.32C410.477 207.739 410.065 207.243 409.539 206.897C409.013 206.55 408.396 206.367 407.766 206.37C407.346 206.359 406.934 206.241 406.57 206.028C406.207 205.814 405.903 205.512 405.685 205.15C405.434 204.725 405.3 204.242 405.296 203.748C405.197 203.244 405.142 202.711 404.987 202.22Z" fill="white"/>
<path d="M374.12 319.876C373.756 320.945 373.693 322.096 373.939 323.199C374.165 323.795 374.563 324.311 375.083 324.679C375.602 325.047 376.221 325.25 376.857 325.261C377.28 325.256 377.699 325.359 378.072 325.56C378.446 325.761 378.763 326.054 378.993 326.411C379.252 326.804 379.4 327.258 379.424 327.728L379.718 329.3C380.093 328.229 380.137 327.071 379.844 325.975C379.601 325.39 379.189 324.891 378.662 324.542C378.136 324.192 377.517 324.007 376.884 324.012C376.464 324.007 376.051 323.894 375.687 323.682C375.324 323.471 375.02 323.17 374.805 322.807C374.553 322.382 374.419 321.899 374.414 321.404C374.372 320.928 374.315 320.409 374.12 319.876ZM380.182 249.816C379.823 250.887 379.765 252.036 380.016 253.139C380.237 253.735 380.632 254.251 381.15 254.619C381.668 254.987 382.284 255.19 382.919 255.201C383.345 255.194 383.765 255.297 384.141 255.498C384.517 255.699 384.836 255.992 385.068 256.35C385.325 256.744 385.471 257.199 385.487 257.668L385.794 259.238C386.16 258.167 386.204 257.011 385.92 255.915C385.672 255.33 385.257 254.831 384.729 254.482C384.201 254.133 383.58 253.949 382.947 253.952C382.525 253.944 382.112 253.827 381.748 253.614C381.384 253.401 381.081 253.097 380.867 252.732C380.631 252.327 380.502 251.868 380.489 251.399L380.182 249.816ZM412.011 267.808C411.654 268.879 411.591 270.027 411.83 271.131C412.054 271.727 412.453 272.242 412.974 272.611C413.493 272.978 414.111 273.181 414.748 273.192C415.409 273.196 416.044 273.453 416.522 273.911C417 274.372 417.283 274.997 417.315 275.659L417.622 277.231C417.994 276.16 418.033 275.001 417.734 273.906C417.491 273.322 417.08 272.823 416.553 272.473C416.026 272.123 415.407 271.939 414.775 271.944C414.354 271.939 413.942 271.825 413.578 271.614C413.214 271.402 412.909 271.102 412.694 270.738C412.453 270.309 412.32 269.828 412.305 269.336L412.011 267.808ZM482.911 344.248C482.559 345.32 482.501 346.469 482.745 347.571C482.966 348.17 483.363 348.689 483.885 349.056C484.407 349.422 485.024 349.624 485.661 349.632C486.086 349.626 486.504 349.729 486.878 349.93C487.252 350.132 487.568 350.425 487.797 350.783C488.052 351.171 488.198 351.621 488.215 352.087L488.524 353.672C488.889 352.6 488.933 351.444 488.648 350.348C488.401 349.763 487.986 349.264 487.458 348.915C486.929 348.566 486.309 348.38 485.676 348.385C485.253 348.377 484.84 348.26 484.477 348.046C484.113 347.832 483.81 347.529 483.596 347.165C483.36 346.76 483.231 346.301 483.218 345.833L482.911 344.248Z" fill="white"/>
<path d="M460.032 234.025C459.675 235.096 459.612 236.245 459.851 237.348C460.076 237.946 460.475 238.461 460.995 238.828C461.514 239.196 462.132 239.398 462.767 239.41C463.428 239.405 464.067 239.659 464.545 240.117C465.024 240.576 465.308 241.201 465.337 241.864L465.643 243.449C466.015 242.378 466.054 241.219 465.755 240.126C465.511 239.541 465.1 239.041 464.572 238.691C464.046 238.342 463.427 238.158 462.797 238.163C462.375 238.154 461.961 238.038 461.598 237.823C461.234 237.608 460.93 237.306 460.715 236.941C460.481 236.536 460.352 236.078 460.339 235.61L460.032 234.025Z" fill="white"/>
<path d="M460.034 280.148C459.677 281.219 459.614 282.367 459.851 283.471C460.077 284.069 460.476 284.584 460.997 284.951C461.517 285.318 462.134 285.521 462.769 285.533C463.43 285.528 464.068 285.781 464.546 286.239C465.026 286.697 465.31 287.324 465.338 287.987L465.645 289.572C466.014 288.495 466.052 287.333 465.757 286.234C465.513 285.651 465.101 285.154 464.574 284.806C464.047 284.459 463.429 284.277 462.798 284.284C462.377 284.272 461.966 284.154 461.603 283.941C461.239 283.728 460.935 283.426 460.717 283.064C460.472 282.639 460.341 282.154 460.341 281.662L460.034 280.148ZM423.122 319.876C422.768 320.949 422.71 322.096 422.954 323.199C423.177 323.799 423.575 324.316 424.095 324.684C424.615 325.052 425.236 325.253 425.872 325.261C426.295 325.257 426.713 325.361 427.086 325.561C427.459 325.762 427.775 326.054 428.008 326.411C428.262 326.805 428.407 327.26 428.427 327.728L428.734 329.3C429.108 328.229 429.152 327.071 428.86 325.975C428.612 325.39 428.197 324.892 427.667 324.542C427.139 324.193 426.518 324.009 425.885 324.012C425.467 324.006 425.057 323.892 424.696 323.681C424.334 323.469 424.032 323.168 423.82 322.807C423.565 322.384 423.429 321.899 423.429 321.404L423.122 319.876Z" fill="white"/>
<path d="M385.432 225.919C384.926 224.911 384.159 224.06 383.212 223.452C382.632 223.189 381.985 223.108 381.358 223.218C380.732 223.328 380.151 223.624 379.694 224.068C379.23 224.537 378.602 224.806 377.943 224.819C377.283 224.833 376.645 224.589 376.162 224.139L374.766 223.241C375.38 224.097 375.813 225.149 377.028 225.682C377.613 225.916 378.255 225.974 378.872 225.847C379.489 225.719 380.058 225.414 380.504 224.966C380.807 224.671 381.181 224.459 381.589 224.351C381.997 224.242 382.426 224.242 382.835 224.349C383.292 224.46 383.711 224.693 384.049 225.023L385.432 225.919Z" fill="white"/>
<path d="M441.815 221.208C441.313 220.198 440.546 219.345 439.595 218.739C439.017 218.473 438.372 218.389 437.746 218.499C437.121 218.609 436.542 218.909 436.09 219.357C435.796 219.662 435.429 219.887 435.023 220.01C434.617 220.133 434.187 220.149 433.773 220.058C433.313 219.966 432.888 219.747 432.545 219.426L431.219 218.529C431.82 219.384 432.266 220.436 433.466 220.969C434.053 221.205 434.694 221.263 435.311 221.135C435.93 221.008 436.497 220.702 436.943 220.255C437.246 219.961 437.619 219.749 438.027 219.641C438.436 219.533 438.864 219.531 439.273 219.638C439.73 219.749 440.15 219.982 440.488 220.31L441.815 221.208Z" fill="white"/>
<path d="M452.744 196.148C473.795 213.607 549.429 278.269 544.88 301.225C540.301 324.476 522.781 343.294 509.309 330.253C498.141 319.553 448.833 240.14 439.885 218.907C431.356 198.686 432.054 178.984 452.744 196.148Z" fill="#EDBA9E"/>
<path d="M546.807 294.774C546.807 310.872 536.072 341.22 515.231 335.569C501.578 331.88 444.956 238.121 435.825 215.878C425.258 190.119 434.429 179.994 453.973 195.18C473.517 210.367 546.78 271.79 546.807 294.774Z" fill="#FE9589"/>
<path d="M488.005 227.364C489.07 227.741 490.224 227.785 491.314 227.49C491.481 227.422 491.639 227.338 491.79 227.238C491.515 227.018 491.255 226.785 491.008 226.537L490.882 226.635C490.494 226.887 490.045 227.033 489.582 227.055L488.005 227.364Z" fill="white"/>
<path d="M513.318 282.041C512.25 281.687 511.106 281.629 510.009 281.873C509.41 282.095 508.894 282.494 508.529 283.017C508.162 283.541 507.962 284.164 507.957 284.804C507.959 285.229 507.857 285.648 507.658 286.024C507.457 286.399 507.167 286.717 506.813 286.95C506.42 287.205 505.966 287.35 505.499 287.37L503.937 287.678C505.001 288.056 506.154 288.1 507.244 287.804C507.827 287.555 508.323 287.14 508.671 286.609C509.019 286.077 509.203 285.454 509.199 284.819C509.206 284.398 509.319 283.987 509.529 283.623C509.739 283.26 510.039 282.957 510.4 282.742C510.821 282.487 511.303 282.351 511.796 282.35L513.318 282.041Z" fill="white"/>
<path d="M506.63 328.557L507.553 329.539C507.62 329.198 507.759 328.874 507.96 328.589C508.159 328.304 508.414 328.064 508.711 327.883C509.135 327.636 509.616 327.505 510.107 327.505L511.684 327.197C510.616 326.843 509.474 326.785 508.375 327.029C507.997 327.152 507.647 327.351 507.348 327.613C507.049 327.877 506.805 328.197 506.63 328.557Z" fill="white"/>
<path d="M480.415 261.033C480.916 262.043 481.684 262.897 482.635 263.502C483.212 263.769 483.857 263.853 484.484 263.742C485.11 263.632 485.688 263.333 486.139 262.885C486.433 262.58 486.802 262.355 487.207 262.232C487.613 262.109 488.043 262.093 488.456 262.184C488.917 262.276 489.342 262.494 489.684 262.816L491.011 263.712C490.411 262.857 489.964 261.806 488.763 261.273C488.178 261.037 487.536 260.979 486.918 261.106C486.301 261.234 485.734 261.541 485.288 261.988C484.984 262.282 484.61 262.493 484.202 262.601C483.793 262.709 483.365 262.71 482.956 262.604C482.499 262.492 482.079 262.26 481.741 261.932L480.415 261.033Z" fill="white"/>
<path d="M456.875 199.415C456.521 200.483 456.463 201.627 456.707 202.725C456.923 203.325 457.318 203.845 457.836 204.213C458.355 204.582 458.975 204.782 459.61 204.787C460.036 204.782 460.456 204.885 460.832 205.086C461.208 205.287 461.527 205.579 461.761 205.936C462.015 206.33 462.16 206.786 462.179 207.254L462.486 208.839C462.852 207.763 462.895 206.603 462.612 205.501C462.364 204.918 461.948 204.42 461.42 204.075C460.892 203.729 460.271 203.546 459.638 203.553C459.218 203.54 458.807 203.422 458.444 203.209C458.08 202.995 457.776 202.695 457.558 202.333C457.312 201.906 457.182 201.423 457.182 200.93L456.875 199.415Z" fill="white"/>
<path d="M460.032 234.025C459.675 235.096 459.612 236.245 459.851 237.348C460.076 237.946 460.475 238.461 460.995 238.828C461.514 239.196 462.132 239.398 462.768 239.41C463.428 239.405 464.067 239.659 464.545 240.117C465.024 240.576 465.308 241.201 465.337 241.864L465.644 243.449C466.015 242.378 466.054 241.219 465.755 240.126C465.512 239.541 465.1 239.041 464.572 238.691C464.046 238.342 463.427 238.158 462.797 238.163C462.375 238.154 461.961 238.038 461.598 237.823C461.234 237.608 460.931 237.306 460.716 236.941C460.481 236.536 460.352 236.078 460.339 235.61L460.032 234.025Z" fill="white"/>
<path d="M526.174 307.802C525.822 308.874 525.764 310.022 526.006 311.126C526.226 311.724 526.622 312.241 527.14 312.609C527.658 312.976 528.275 313.178 528.91 313.187C529.336 313.183 529.756 313.286 530.131 313.486C530.507 313.687 530.827 313.979 531.06 314.336C531.314 314.73 531.459 315.186 531.479 315.654L531.786 317.239C532.151 316.163 532.194 315.003 531.912 313.901C531.663 313.318 531.247 312.822 530.719 312.475C530.191 312.128 529.571 311.946 528.939 311.953C528.517 311.94 528.107 311.822 527.743 311.609C527.379 311.396 527.076 311.095 526.858 310.733C526.612 310.307 526.482 309.823 526.481 309.331L526.174 307.802Z" fill="white"/>
<path d="M437.056 218.712L437.573 219.819C438.101 219.556 438.705 219.491 439.276 219.636C439.734 219.749 440.152 219.982 440.49 220.31C440.937 220.604 441.341 220.942 441.886 221.208C441.257 220.337 440.853 219.328 439.667 218.74C439.26 218.541 438.816 218.434 438.365 218.429C437.914 218.425 437.467 218.521 437.056 218.712Z" fill="white"/>
<path d="M449.297 248.315L455.272 255.986L456.668 257.808L452.983 250.488C451.147 246.966 449.502 243.347 448.055 239.649C447.956 239.41 448.32 239.298 448.446 239.494C450.33 242.466 451.837 245.636 453.624 248.666L458.832 257.836C462.265 263.964 465.812 270.065 469.428 276.067C476.7 288.071 484.448 299.808 492.462 311.336L499.288 320.97C501.647 324.125 503.867 327.547 506.268 330.715C506.352 330.828 506.197 330.982 506.1 330.87C503.838 328.066 501.507 325.443 499.204 322.736C496.902 320.028 494.947 317.212 492.782 314.407C488.469 308.798 484.406 303.075 480.413 297.256C472.454 285.54 465.088 273.433 458.344 260.978L457.854 260.023C456.699 258.799 455.591 257.531 454.532 256.224C452.535 253.727 450.805 251.049 449.06 248.37C449.003 248.3 449.213 248.189 449.297 248.315Z" fill="#454056"/>
<path d="M405.785 184.298C405.785 184.298 401.164 203.314 406.679 205.936C416.966 210.831 435.352 195.63 436.552 192.909C436.846 192.208 438.381 173.935 439.527 159.743L440.923 143.14L404.835 157.514L405.645 182.503L405.785 184.298Z" fill="#EDBA9E"/>
<path opacity="0.2" d="M404.832 157.514L405.643 182.503C412.554 181.307 419.136 178.662 424.961 174.741C430.786 170.82 435.725 165.71 439.454 159.743L440.85 143.14L436.34 144.767L404.832 157.514Z" fill="#454056"/>
<path d="M398.219 129.103C397.674 139.327 389.996 147.208 381.076 146.717C372.155 146.225 365.371 137.559 365.915 127.35C366.46 117.141 374.152 109.245 383.073 109.737C391.993 110.228 398.778 118.894 398.219 129.103Z" fill="#666276"/>
<path d="M403.438 130.042C402.824 141.401 394.28 150.166 384.354 149.675C374.429 149.184 366.891 139.48 367.491 128.121C368.09 116.761 376.649 107.984 386.574 108.488C396.5 108.992 404.024 118.669 403.438 130.042Z" fill="#D5D2DC"/>
<path d="M373.117 121.67C369.753 165.422 395.453 172.392 404.848 173.108C413.378 173.767 442.54 174.903 450.357 131.725C458.174 88.5476 439.023 73.1491 419.645 70.611C400.267 68.0728 376.495 77.9039 373.117 121.67Z" fill="#EDBA9E"/>
<path d="M386.686 113.874L389.66 113.341C390.73 113.294 391.754 112.895 392.576 112.205C392.789 111.933 392.904 111.597 392.904 111.252C392.904 110.907 392.789 110.571 392.576 110.299C392.097 109.806 391.494 109.452 390.83 109.274C390.167 109.096 389.469 109.101 388.809 109.289C387.408 109.453 386.119 110.133 385.193 111.197C384.994 111.457 384.876 111.769 384.852 112.095C384.828 112.421 384.9 112.746 385.058 113.032C385.217 113.318 385.456 113.549 385.745 113.7C386.034 113.85 386.362 113.91 386.686 113.874ZM416.577 116.215C415.591 115.998 414.617 115.731 413.659 115.415C412.6 115.264 411.62 114.772 410.867 114.013C410.673 113.729 410.579 113.39 410.599 113.047C410.619 112.705 410.753 112.378 410.978 112.119C411.498 111.671 412.128 111.371 412.804 111.25C413.479 111.129 414.175 111.192 414.817 111.433C416.195 111.717 417.42 112.507 418.251 113.648C418.432 113.921 418.529 114.239 418.529 114.566C418.529 114.892 418.434 115.212 418.257 115.486C418.08 115.76 417.826 115.975 417.527 116.105C417.228 116.234 416.897 116.274 416.577 116.215ZM409.023 126.873C409.023 126.76 409.233 127.041 409.219 127.154C408.87 130.127 408.954 133.591 411.55 134.811C411.634 134.811 411.55 134.993 411.55 134.979C408.285 134.221 408.214 129.622 409.023 126.873Z" fill="#1F1B2D"/>
<path d="M411.94 123.998C416.741 123.998 416.266 133.688 411.813 133.632C407.361 133.575 407.92 123.941 411.94 123.998Z" fill="#1F1B2D"/>
<path d="M413.798 124.602C414.607 125.19 415.389 126.187 416.394 126.34C417.399 126.494 418.488 125.555 419.298 124.615C419.382 124.516 419.451 124.615 419.451 124.741C419.451 126.578 418.585 128.442 416.659 128.625C414.733 128.807 413.644 127.082 413.281 125.203C413.211 124.852 413.476 124.363 413.798 124.602ZM391.698 124.923C391.698 124.797 391.46 125.049 391.46 125.175C391.46 128.163 390.903 131.584 388.166 132.454C388.082 132.454 388.082 132.636 388.166 132.622C391.489 132.299 392.145 127.755 391.698 124.923Z" fill="#1F1B2D"/>
<path d="M389.17 121.684C384.411 121.123 383.587 130.743 388.054 131.261C392.522 131.78 393.163 122.161 389.17 121.684Z" fill="#1F1B2D"/>
<path d="M387.133 122.161C386.336 122.61 385.514 123.479 384.606 123.464C383.698 123.45 382.861 122.343 382.262 121.291C382.262 121.18 382.121 121.291 382.108 121.39C381.913 123.212 382.359 125.177 384.089 125.681C385.819 126.185 386.98 124.644 387.552 122.876C387.663 122.511 387.455 121.98 387.133 122.161Z" fill="#1F1B2D"/>
<path d="M406.314 149.998C405.603 150.699 404.918 151.652 403.801 151.736C402.695 151.708 401.606 151.45 400.605 150.979C400.584 150.962 400.558 150.954 400.532 150.956C400.507 150.958 400.482 150.972 400.465 150.991C400.447 151.011 400.44 151.038 400.444 151.064C400.447 151.09 400.458 151.114 400.479 151.132C400.901 151.72 401.476 152.182 402.14 152.468C402.804 152.754 403.533 152.854 404.249 152.757C404.856 152.607 405.406 152.277 405.824 151.809C406.242 151.34 406.511 150.757 406.593 150.134C406.65 149.951 406.412 149.894 406.314 149.993V149.998ZM394.559 138.456L393.539 144.976C393.539 145.174 394.029 145.3 394.74 145.384H394.824C396.6 145.826 398.464 145.766 400.208 145.212C401.953 144.657 403.51 143.629 404.707 142.243C404.861 142.047 404.611 141.823 404.415 141.934C401.634 143.6 398.395 144.324 395.173 143.996C395.062 143.406 396.933 136.48 396.569 136.438C394.936 136.484 393.317 136.748 391.754 137.223C393.317 127.967 396.361 118.992 397.799 109.808C397.802 109.741 397.784 109.677 397.747 109.622C397.71 109.567 397.655 109.528 397.592 109.509C397.529 109.489 397.461 109.491 397.4 109.515C397.338 109.539 397.286 109.583 397.254 109.64C393.415 118.768 391.363 129.371 389.492 138.892C389.297 140.07 393.666 138.764 394.559 138.456Z" fill="#454056"/>
<path d="M396.194 144.332C397.158 145.958 398.523 147.31 400.159 148.258C401.067 148.739 402.101 148.925 403.118 148.791C405.352 148.482 405.632 146.505 405.436 144.752C405.326 143.822 405.106 142.909 404.78 142.031C402.24 143.701 399.229 144.509 396.194 144.332Z" fill="#454056"/>
<path d="M400.159 148.26C401.067 148.741 402.101 148.927 403.118 148.793C405.352 148.484 405.632 146.507 405.436 144.754C403.105 144.726 400.647 146.015 400.159 148.26Z" fill="#FF548A"/>
<path d="M449.716 127.799C444.956 127.799 431.944 115.291 430.395 92.3055C430.395 92.3055 433.187 112.85 434.904 115.795C436.622 118.74 427.63 108.783 426.122 90.2439C426.122 90.2439 416.266 98.1815 407.682 101.083C399.098 103.985 393.722 104.182 393.079 103.579C392.436 102.977 405.056 98.2639 408.324 94.0568C408.324 94.0568 385.666 106.088 375.015 107.449C373.787 107.604 376.621 88.5589 392.606 76.8633C408.59 65.1678 429.766 69.1229 437.152 75.587C437.152 75.587 445.528 76.3447 455.09 88.2083C464.651 100.072 454.839 127.894 449.716 127.796V127.799Z" fill="#1F1B2D"/>
<path d="M443.169 134.557C443.169 134.557 452.577 120.758 458.803 124.124C465.028 127.489 458.035 147.403 450.79 150.193C449.885 150.613 448.906 150.846 447.909 150.877C446.912 150.907 445.922 150.734 444.994 150.371C444.067 150.007 443.22 149.458 442.508 148.759C441.795 148.059 441.233 147.22 440.85 146.296L443.169 134.557Z" fill="#EDBA9E"/>
<path d="M456.654 129.79C456.671 129.796 456.687 129.809 456.699 129.825C456.71 129.841 456.715 129.861 456.715 129.88C456.715 129.9 456.708 129.919 456.699 129.935C456.689 129.951 456.671 129.964 456.654 129.971C451.572 132.102 448.934 136.869 447.104 141.807C448.599 139.9 450.664 138.834 453.206 140.629C453.332 140.727 453.206 140.938 453.067 140.896C452.168 140.621 451.208 140.632 450.317 140.925C449.424 141.219 448.644 141.782 448.082 142.535C447.149 143.81 446.358 145.183 445.723 146.629C445.486 147.093 444.662 146.854 444.83 146.321V146.209C444.718 139.674 449.688 130.505 456.654 129.79Z" fill="#454056"/>
<path d="M446.715 148.287C446.723 148.592 446.822 148.888 446.998 149.137C447.174 149.386 447.419 149.577 447.704 149.686C447.988 149.794 448.299 149.815 448.596 149.746C448.893 149.677 449.163 149.521 449.371 149.298C449.579 149.075 449.716 148.795 449.764 148.494C449.814 148.192 449.774 147.883 449.648 147.605C449.522 147.327 449.317 147.093 449.058 146.931C448.756 146.745 448.399 146.668 448.048 146.715C447.696 146.762 447.371 146.929 447.129 147.188C446.852 147.486 446.704 147.881 446.715 148.287ZM450.902 145.482C450.914 145.738 451.026 145.979 451.213 146.154C451.307 146.24 451.416 146.307 451.535 146.35C451.654 146.393 451.78 146.412 451.907 146.406C452.033 146.402 452.157 146.374 452.271 146.321C452.386 146.269 452.49 146.195 452.576 146.103C452.661 146.01 452.727 145.901 452.771 145.783C452.814 145.664 452.834 145.538 452.829 145.411C452.824 145.283 452.797 145.159 452.745 145.043C452.667 144.869 452.539 144.721 452.378 144.62C452.216 144.518 452.028 144.466 451.837 144.471C451.582 144.485 451.342 144.598 451.168 144.786C450.993 144.975 450.898 145.225 450.902 145.482Z" fill="white"/>
<path d="M458.371 132.819L461.372 133.451C461.451 133.467 461.53 133.468 461.609 133.452C461.688 133.436 461.761 133.405 461.827 133.362C461.894 133.317 461.951 133.26 461.995 133.194C462.04 133.128 462.07 133.052 462.084 132.974C462.116 132.817 462.087 132.654 462 132.52C461.958 132.454 461.903 132.397 461.838 132.352C461.773 132.307 461.701 132.275 461.624 132.258L458.622 131.627C458.544 131.611 458.463 131.611 458.386 131.625C458.307 131.64 458.232 131.671 458.166 131.716C458.1 131.761 458.043 131.817 457.999 131.884C457.956 131.95 457.925 132.024 457.911 132.103C457.877 132.26 457.907 132.423 457.993 132.557C458.036 132.624 458.091 132.681 458.156 132.726C458.221 132.771 458.294 132.803 458.371 132.819ZM458.707 130.883L461.766 131.066C461.846 131.072 461.926 131.061 462.002 131.035C462.078 131.01 462.147 130.969 462.207 130.914C462.267 130.861 462.315 130.796 462.349 130.724C462.384 130.651 462.404 130.572 462.407 130.491C462.416 130.33 462.36 130.172 462.253 130.051C462.146 129.931 461.996 129.857 461.835 129.846L458.791 129.664C458.63 129.652 458.471 129.704 458.348 129.809C458.226 129.914 458.15 130.063 458.135 130.224C458.121 130.386 458.182 130.547 458.29 130.67C458.399 130.793 458.546 130.871 458.707 130.883Z" fill="#FE9589"/>
<path d="M452.201 124.027C452.201 124.027 455.886 101.954 450.624 88.9677C444.76 74.608 416.771 62.6314 394.868 75.2526C394.868 75.2526 428.147 68.606 441.773 89.0792C447.51 97.7034 444.76 123.801 444.76 123.801L452.201 124.027Z" fill="#D5D2DC"/>
<path d="M446.03 155.622C436.151 154.533 429.144 144.482 430.38 133.173C431.616 121.863 440.624 113.578 450.502 114.666C460.381 115.753 467.389 125.805 466.154 137.115C464.92 148.424 455.909 156.709 446.03 155.622Z" fill="#D5D2DC"/>
<path d="M435.657 133.113C434.541 143.28 440.837 152.311 449.716 153.292C458.594 154.273 466.705 146.828 467.864 136.661C469.022 126.494 462.671 117.449 453.792 116.482C444.914 115.514 436.761 122.946 435.657 133.113Z" fill="#666276"/>
<path d="M412.007 162.997L426.568 160.388L440.305 149.604L438.644 147.473L425.437 157.85L411.547 160.331L412.007 162.997Z" fill="#D5D2DC"/>
<path d="M413.92 161.217C413.529 157.01 402.403 155.93 402.99 162.239C403.576 168.548 414.311 165.395 413.92 161.217Z" fill="#666276"/>
<path d="M405.672 183.751L409.343 204.225L437.654 185.154L442.694 194.213C442.694 194.213 411.982 227.462 412.219 225.709L407.807 207.829L394.28 216.833L401.051 188.561L405.672 183.751Z" fill="white"/>
<path d="M507.44 328.192C520.395 344.08 541.475 325.935 543.876 311.8C549.53 278.605 542.257 217.73 532.624 188.884C529.525 179.601 468.158 197.299 468.003 207.745C467.849 218.712 481.168 295.952 507.44 328.192Z" fill="#EDBA9E"/>
<path d="M534.272 205.572C534.272 205.572 533.351 175.098 522.561 154.793C515.106 140.769 495.493 112.023 448.237 109.919C437.069 109.443 420.723 116.734 438.745 124.209C451.546 129.51 461.249 128.992 468.145 133.436C468.145 133.436 448.489 145.188 448.447 156.477C448.412 166.355 449.074 176.224 450.43 186.009C452.286 186.173 454.152 186.216 456.014 186.136C456.014 186.136 456.292 196.709 468.046 207.676L534.272 205.572Z" fill="#EDBA9E"/>
<path d="M513.318 142.537C505.556 139.579 488.999 133.577 473.755 133.409C456.822 133.212 424.155 137.419 424.14 149.97C424.14 159.184 436.704 158.679 436.704 158.679C436.704 158.679 423.568 163.278 425.37 171.596C427.016 179.181 436.746 178.2 436.746 178.2C436.746 178.2 429.251 182.407 432.238 189.419C435.825 197.832 450.944 187.721 461.903 193.093C464.388 194.242 513.318 142.537 513.318 142.537Z" fill="#EDBA9E"/>
<path d="M476.532 151.415C468.77 149.83 450.245 150.77 436.914 158.427C436.607 158.595 436.58 158.918 436.914 158.819C449.787 154.816 463.102 152.4 476.561 151.625C476.616 151.568 476.616 151.429 476.532 151.415ZM475.834 168.565C469.007 167.891 449.953 169.713 436.746 177.876C436.453 178.058 436.439 178.394 436.746 178.283C449.371 173.624 462.484 170.415 475.834 168.718C475.848 168.712 475.861 168.7 475.871 168.688C475.881 168.675 475.884 168.657 475.884 168.641C475.884 168.625 475.879 168.608 475.871 168.595C475.863 168.583 475.848 168.571 475.834 168.565Z" fill="#454056"/>
<path d="M425.607 144.5C427.449 142.453 430.06 141.695 432.35 140.293C432.476 140.224 432.587 140.434 432.461 140.488C428.427 142.185 424.196 146.196 424.867 150.95C425.676 156.671 432.503 158.129 437.236 158.256C437.473 158.256 437.362 158.522 437.124 158.564C431.862 159.49 424.434 157.653 423.456 151.426C423.271 150.184 423.368 148.915 423.739 147.715C424.112 146.517 424.75 145.418 425.607 144.5Z" fill="#454056"/>
<path d="M437.888 158.074C438.014 158.074 438.111 158.215 437.987 158.27C430.7 161.075 426.205 166.165 425.841 169.054C425.58 170.452 425.749 171.898 426.324 173.197C426.899 174.495 427.855 175.589 429.066 176.331C431.595 177.732 434.535 178.198 437.373 177.649C437.609 177.649 437.693 177.958 437.47 178C434.049 178.632 427.475 179.402 425.101 173.864C423.119 169.235 425.339 161.551 437.888 158.073V158.074Z" fill="#454056"/>
<path d="M432.518 181.465C433.97 179.418 436.08 177.934 438.491 177.258C438.604 177.258 438.687 177.414 438.491 177.456C434.303 179.152 430.716 184.186 432.056 188.857C432.14 189.151 431.707 189.235 431.61 188.968C431.178 187.732 431.034 186.413 431.193 185.11C431.35 183.81 431.803 182.563 432.518 181.465ZM430.227 116.524C430.563 114.42 433.201 112.317 438.268 111.364C434.08 112.514 431.023 114.785 431.051 116.832C431.078 118.879 432.587 121.04 437.026 123.437C437.152 123.437 437.026 123.563 436.929 123.507C434.303 122.287 429.642 120.296 430.227 116.524Z" fill="#454056"/>
<path d="M537.453 193.988L461.512 219.68C461.512 219.68 489.18 305.292 502.247 323.676C515.313 342.06 533.434 338.751 543.889 315.95C554.344 293.149 537.453 193.988 537.453 193.988Z" fill="#FE9589"/>
<path d="M497.386 221.727C496.319 221.373 495.176 221.315 494.079 221.559C493.483 221.783 492.969 222.184 492.602 222.706C492.237 223.23 492.036 223.851 492.027 224.49C492.03 224.915 491.927 225.334 491.726 225.709C491.526 226.084 491.237 226.402 490.881 226.635C490.49 226.89 490.037 227.036 489.569 227.055L488.005 227.364C489.07 227.742 490.224 227.785 491.314 227.49C491.898 227.241 492.394 226.826 492.741 226.294C493.089 225.762 493.272 225.14 493.269 224.504C493.276 224.084 493.389 223.672 493.599 223.309C493.809 222.945 494.11 222.641 494.47 222.428C494.892 222.176 495.373 222.04 495.866 222.035L497.386 221.727Z" fill="white"/>
<path d="M513.318 282.041C512.25 281.687 511.106 281.629 510.009 281.873C509.41 282.095 508.894 282.494 508.529 283.017C508.162 283.541 507.962 284.164 507.957 284.804C507.959 285.229 507.857 285.648 507.658 286.024C507.457 286.399 507.167 286.717 506.813 286.95C506.42 287.205 505.966 287.35 505.499 287.37L503.937 287.678C505.001 288.056 506.154 288.1 507.244 287.804C507.827 287.555 508.323 287.14 508.671 286.609C509.019 286.077 509.203 285.454 509.199 284.819C509.206 284.398 509.319 283.987 509.529 283.623C509.739 283.26 510.039 282.957 510.4 282.742C510.821 282.487 511.303 282.351 511.796 282.35L513.318 282.041Z" fill="white"/>
<path d="M506.533 328.767L507.538 329.707C507.587 329.332 507.717 328.975 507.924 328.658C508.131 328.342 508.403 328.078 508.724 327.883C509.146 327.631 509.629 327.501 510.12 327.505L511.697 327.196C510.63 326.842 509.487 326.784 508.39 327.028C507.972 327.164 507.589 327.39 507.268 327.691C506.947 327.991 506.696 328.359 506.533 328.767Z" fill="white"/>
<path d="M480.415 261.033C480.916 262.043 481.684 262.897 482.635 263.502C483.212 263.769 483.857 263.853 484.484 263.742C485.11 263.632 485.688 263.333 486.139 262.885C486.433 262.579 486.802 262.355 487.207 262.232C487.613 262.109 488.043 262.093 488.456 262.184C488.917 262.276 489.342 262.494 489.684 262.815L491.011 263.712C490.411 262.857 489.964 261.805 488.763 261.272C488.178 261.037 487.536 260.979 486.918 261.106C486.301 261.234 485.734 261.541 485.288 261.988C484.984 262.282 484.61 262.492 484.202 262.6C483.793 262.709 483.365 262.71 482.956 262.604C482.499 262.492 482.079 262.259 481.741 261.931L480.415 261.033Z" fill="white"/>
<path d="M532.122 266.433C532.627 267.441 533.395 268.292 534.34 268.901C534.92 269.168 535.566 269.25 536.195 269.14C536.824 269.03 537.404 268.732 537.859 268.284C538.153 267.979 538.522 267.754 538.927 267.631C539.333 267.509 539.763 267.491 540.176 267.583C540.636 267.675 541.061 267.893 541.404 268.213C541.837 268.509 542.256 268.845 542.8 269.111C542.186 268.257 541.753 267.205 540.54 266.672C539.953 266.436 539.312 266.378 538.694 266.505C538.076 266.633 537.509 266.939 537.063 267.386C536.762 267.68 536.391 267.891 535.985 268C535.579 268.108 535.152 268.109 534.746 268.003C534.286 267.887 533.863 267.655 533.518 267.331L532.122 266.433ZM523.675 210.228C524.172 211.24 524.94 212.094 525.895 212.695C526.471 212.959 527.115 213.043 527.74 212.936C528.365 212.828 528.944 212.534 529.399 212.093C529.695 211.787 530.062 211.563 530.467 211.438C530.872 211.313 531.301 211.292 531.716 211.377C532.173 211.476 532.598 211.694 532.944 212.009C533.392 212.303 533.81 212.639 534.34 212.905C533.741 212.051 533.293 210.999 532.093 210.466C531.507 210.229 530.864 210.171 530.246 210.301C529.627 210.43 529.06 210.742 528.617 211.194C528.312 211.487 527.937 211.695 527.53 211.804C527.123 211.912 526.694 211.913 526.286 211.812C525.83 211.693 525.413 211.462 525.071 211.14L523.675 210.228ZM516.097 238.681C515.74 239.752 515.677 240.901 515.916 242.004C516.141 242.601 516.539 243.116 517.06 243.484C517.58 243.851 518.197 244.055 518.834 244.066C519.258 244.056 519.678 244.156 520.052 244.358C520.427 244.559 520.742 244.854 520.97 245.216C521.237 245.6 521.387 246.053 521.403 246.52L521.71 248.105C522.08 247.034 522.119 245.875 521.821 244.782C521.577 244.195 521.165 243.696 520.639 243.347C520.112 242.998 519.493 242.814 518.861 242.817C518.439 242.81 518.026 242.694 517.662 242.48C517.297 242.266 516.994 241.962 516.782 241.597C516.546 241.192 516.412 240.735 516.391 240.266L516.097 238.681Z" fill="white"/>
<path d="M526.174 307.802C525.822 308.873 525.764 310.022 526.006 311.126C526.226 311.723 526.622 312.24 527.14 312.609C527.658 312.976 528.275 313.178 528.91 313.187C529.336 313.182 529.756 313.286 530.131 313.486C530.507 313.687 530.827 313.979 531.06 314.336C531.314 314.73 531.459 315.186 531.479 315.654L531.786 317.239C532.151 316.163 532.194 315.003 531.912 313.901C531.663 313.318 531.247 312.822 530.719 312.475C530.191 312.128 529.571 311.946 528.939 311.953C528.517 311.94 528.107 311.822 527.743 311.609C527.379 311.395 527.076 311.095 526.858 310.733C526.612 310.306 526.482 309.823 526.481 309.331L526.174 307.802Z" fill="white"/>
<path d="M469.987 233.968C474.116 232.077 478.343 230.406 482.649 228.963L495.716 224.292C504.203 221.362 512.76 218.754 521.319 216.174C526.302 214.658 531.314 213.369 536.297 211.967C536.479 211.967 536.549 212.275 536.297 212.345L510.542 221.937C501.899 224.952 493.552 227.743 484.981 230.282C482.538 231.01 480.066 231.684 477.61 232.343C475.112 233.171 472.567 233.845 469.987 234.361C469.862 234.39 469.806 234.067 469.987 233.968ZM459.976 219.875C460.186 219.189 468.604 216.987 469.037 216.861C469.161 216.861 469.218 217.029 469.037 217.071C468.631 217.211 461.498 220.198 461.525 220.255C465.713 231.472 469.539 242.804 473.559 254.078L485.495 288.056C487.631 294.438 487.492 295.068 485.23 289.572C482.968 284.075 480.651 279.56 478.571 273.978C474.383 262.759 470.46 251.357 466.537 240L459.976 219.875Z" fill="#454056"/>
<path d="M327.398 353.153H370.59C374.774 353.15 378.788 351.478 381.745 348.503C384.705 345.523 386.366 341.493 386.364 337.292C386.367 335.21 385.96 333.147 385.168 331.223C384.377 329.298 383.215 327.549 381.749 326.074C380.286 324.601 378.547 323.431 376.631 322.631C374.716 321.833 372.664 321.421 370.59 321.419H327.398C323.213 321.422 319.201 323.094 316.242 326.069C313.282 329.049 311.621 333.079 311.623 337.28C311.621 339.362 312.027 341.425 312.819 343.349C313.61 345.274 314.772 347.023 316.238 348.498C317.701 349.971 319.441 351.141 321.356 351.941C323.271 352.739 325.324 353.151 327.398 353.153Z" fill="#9691A4"/>
<path d="M361.136 337.026C361.115 336.523 360.95 336.036 360.661 335.624C360.549 335.428 360.409 335.246 360.284 335.05L359.446 334.221L358.483 333.52C357.156 332.673 355.676 332.097 354.127 331.824C350.561 331.11 346.888 331.11 343.322 331.824C341.792 332.087 340.33 332.655 339.023 333.493L338.018 334.208L337.221 335.021C337.008 335.328 336.812 335.646 336.636 335.974C336.501 336.313 336.384 336.661 336.287 337.013H336.538H343.406C343.463 337.021 343.521 337.01 343.571 336.982C343.621 336.955 343.662 336.911 343.686 336.858C343.878 336.48 344.166 336.16 344.523 335.932C344.878 335.703 345.288 335.573 345.71 335.554C347.765 335.422 349.825 335.422 351.879 335.554C352.301 335.571 352.71 335.699 353.065 335.926C353.421 336.152 353.71 336.469 353.904 336.845C353.917 336.893 353.946 336.937 353.986 336.968C354.027 336.998 354.077 337.015 354.127 337.013H361.107L361.136 337.026ZM361.15 341.05V338.625C361.158 338.569 361.158 338.512 361.15 338.457H354.17V338.961V341.023C354.156 341.144 354.167 341.269 354.206 341.385C354.246 341.501 354.311 341.606 354.397 341.694C354.483 341.78 354.589 341.846 354.705 341.886C354.82 341.925 354.943 341.937 355.064 341.921H360.286C360.402 341.934 360.52 341.921 360.632 341.883C360.743 341.844 360.843 341.779 360.927 341.695C361.011 341.612 361.075 341.51 361.114 341.399C361.152 341.287 361.165 341.168 361.15 341.05ZM343.324 341.052L343.254 338.415H336.358V338.569V341.052C336.344 341.167 336.357 341.285 336.396 341.395C336.433 341.505 336.496 341.605 336.578 341.687C336.659 341.768 336.759 341.831 336.869 341.87C336.978 341.908 337.095 341.921 337.21 341.907H342.487C342.6 341.918 342.715 341.904 342.823 341.865C342.931 341.826 343.029 341.763 343.11 341.681C343.19 341.598 343.25 341.499 343.287 341.39C343.324 341.281 343.337 341.166 343.324 341.052Z" fill="white"/>
<g filter="url(#filter0_dd_6898_121087)">
<path d="M344.376 86.1353C347.081 82.1124 348.538 77.3738 348.564 72.5189C348.564 55.2704 329.705 41.2888 306.461 41.2888C283.217 41.2888 264.371 55.3124 264.371 72.5189C264.371 89.7253 283.217 103.763 306.461 103.763C316.79 103.928 326.923 100.915 335.497 95.1247L350.002 98.8261L344.376 86.1353Z" fill="white"/>
<path d="M343.637 86.4617L343.456 86.0546L343.705 85.6846C346.321 81.7942 347.73 77.2123 347.756 72.5157C347.756 64.2081 343.214 56.6211 335.748 51.0844C328.281 45.5477 317.926 42.0967 306.461 42.0967C294.995 42.0967 284.647 45.5557 277.182 51.0989C269.717 56.6422 265.179 64.2291 265.179 72.5173C265.179 80.8054 269.717 88.3956 277.182 93.9437C284.647 99.4918 294.995 102.954 306.461 102.954H306.474C316.638 103.117 326.607 100.151 335.045 94.4542L335.345 94.2507L335.698 94.3411L348.59 97.6322L343.637 86.4617Z" stroke="#EFECF3"/>
</g>
<path d="M291.328 72.5172C291.331 73.3864 291.076 74.2379 290.597 74.9617C290.119 75.6844 289.437 76.249 288.637 76.5838C287.838 76.9182 286.959 77.0054 286.109 76.8374C285.259 76.6694 284.48 76.2509 283.869 75.6354C283.257 75.02 282.84 74.2368 282.672 73.3848C282.504 72.5318 282.591 71.648 282.924 70.8451C283.257 70.0421 283.819 69.3571 284.54 68.8756C285.261 68.3942 286.107 68.1389 286.972 68.1421C288.127 68.1454 289.232 68.6074 290.048 69.4282C290.865 70.249 291.325 71.3592 291.328 72.5172Z" fill="#1F1B2D"/>
<path d="M306.474 76.9087C305.309 76.9087 304.193 76.4462 303.369 75.623C302.546 74.7998 302.084 73.6833 302.084 72.5191C302.084 71.3548 302.546 70.2383 303.369 69.4151C304.193 68.5919 305.309 68.1294 306.474 68.1294C308.887 68.1294 310.844 70.094 310.844 72.5191C310.844 74.9441 308.887 76.9087 306.474 76.9087Z" fill="#1F1B2D"/>
<path d="M330.346 72.5175C330.349 73.3867 330.094 74.2381 329.616 74.9619C329.138 75.6847 328.456 76.2492 327.656 76.584C326.856 76.9184 325.977 77.0057 325.127 76.8377C324.278 76.6696 323.499 76.2512 322.888 75.6356C322.275 75.0202 321.859 74.2371 321.691 73.3851C321.523 72.532 321.61 71.6483 321.943 70.8453C322.276 70.0423 322.838 69.3573 323.559 68.8759C324.279 68.3944 325.126 68.1391 325.99 68.1424C327.145 68.1456 328.251 68.6077 329.067 69.4284C329.884 70.2493 330.343 71.3594 330.346 72.5175Z" fill="#1F1B2D"/>
<defs>
<filter id="filter0_dd_6898_121087" x="252.371" y="33.2888" width="109.631" height="86.481" filterUnits="userSpaceOnUse" color-interpolation-filters="sRGB">
<feFlood flood-opacity="0" result="BackgroundImageFix"/>
<feColorMatrix in="SourceAlpha" type="matrix" values="0 0 0 0 0 0 0 0 0 0 0 0 0 0 0 0 0 0 127 0" result="hardAlpha"/>
<feOffset dy="4"/>
<feGaussianBlur stdDeviation="6"/>
<feColorMatrix type="matrix" values="0 0 0 0 0.121569 0 0 0 0 0.105882 0 0 0 0 0.176471 0 0 0 0.08 0"/>
<feBlend mode="normal" in2="BackgroundImageFix" result="effect1_dropShadow_6898_121087"/>
<feColorMatrix in="SourceAlpha" type="matrix" values="0 0 0 0 0 0 0 0 0 0 0 0 0 0 0 0 0 0 127 0" result="hardAlpha"/>
<feOffset dy="2"/>
<feGaussianBlur stdDeviation="1"/>
<feColorMatrix type="matrix" values="0 0 0 0 0.121569 0 0 0 0 0.105882 0 0 0 0 0.176471 0 0 0 0.08 0"/>
<feBlend mode="normal" in2="effect1_dropShadow_6898_121087" result="effect2_dropShadow_6898_121087"/>
<feBlend mode="normal" in="SourceGraphic" in2="effect2_dropShadow_6898_121087" result="shape"/>
</filter>
</defs>
</svg>
