<svg width="577" height="542" viewBox="0 0 577 542" fill="none" xmlns="http://www.w3.org/2000/svg">
<path d="M510.535 212.201L288.932 56.6746L65.0659 210.753L285.593 303.722L510.535 212.201Z" fill="white"/>
<path d="M65.9203 210.609H66.0794L157.602 249.627L282.825 303.009C283.316 303.215 283.84 303.322 284.372 303.324C284.903 303.325 285.427 303.225 285.92 303.025L415.114 249.515L508.885 210.674L509.029 210.609H509.188C510.667 210.611 512.087 211.199 513.133 212.244C513.65 212.761 514.061 213.374 514.342 214.05C514.623 214.726 514.768 215.45 514.769 216.182V458.142C514.768 458.874 514.623 459.599 514.342 460.274C514.061 460.95 513.65 461.564 513.133 462.08C512.087 463.125 510.667 463.713 509.188 463.715H65.9203C64.4398 463.713 63.0218 463.125 61.9761 462.08C61.4584 461.564 61.0474 460.95 60.7667 460.274C60.4859 459.599 60.3409 458.874 60.3398 458.142V216.182C60.3409 215.45 60.4859 214.726 60.7667 214.05C61.0474 213.374 61.4584 212.761 61.9761 212.244C63.0218 211.199 64.4415 210.611 65.9203 210.609Z" fill="white"/>
<path d="M65.5174 212.201C65.6801 212.202 65.8389 212.152 65.9725 212.059L286.459 58.7613C287.129 58.2972 287.926 58.0482 288.744 58.0499C289.56 58.0512 290.356 58.3017 291.026 58.7681L509.921 212.058C510.095 212.178 510.308 212.225 510.516 212.188C510.725 212.151 510.909 212.034 511.031 211.861C511.151 211.688 511.199 211.475 511.162 211.267C511.126 211.059 511.009 210.875 510.836 210.753L291.94 57.4656C291.003 56.8118 289.887 56.4612 288.744 56.4595C287.6 56.4578 286.485 56.805 285.546 57.4554L65.0605 210.752C64.9213 210.849 64.8167 210.987 64.7619 211.148C64.7071 211.309 64.705 211.482 64.7559 211.644C64.807 211.806 64.9084 211.947 65.0453 212.047C65.1823 212.147 65.3482 212.201 65.5174 212.201Z" fill="#1F1B2D"/>
<path d="M497.415 217.635L288.526 63.0803L78.0542 228.633L277.764 346.827L386.189 322.155L497.415 217.635Z" fill="#EFECF3"/>
<path d="M377.042 419.832H480.238C481.515 419.833 482.74 419.327 483.645 418.426C484.092 417.98 484.447 417.45 484.689 416.867C484.931 416.283 485.057 415.658 485.058 415.026C485.059 414.394 484.935 413.768 484.694 413.184C484.454 412.6 484.1 412.069 483.655 411.622C482.755 410.717 481.529 410.208 480.252 410.206H377.042C375.765 410.204 374.539 410.71 373.634 411.612C373.187 412.058 372.832 412.588 372.589 413.171C372.347 413.754 372.222 414.38 372.221 415.012C372.22 415.643 372.343 416.269 372.584 416.853C372.825 417.437 373.178 417.968 373.624 418.416C374.526 419.318 375.751 419.828 377.028 419.832H377.042ZM443.207 399.137H480.232C481.509 399.139 482.734 398.633 483.639 397.731C484.087 397.285 484.441 396.756 484.684 396.172C484.926 395.589 485.052 394.964 485.053 394.332C485.054 393.7 484.93 393.074 484.689 392.49C484.449 391.906 484.095 391.375 483.65 390.928C482.748 390.025 481.524 389.515 480.247 389.512H443.207C441.93 389.51 440.704 390.016 439.799 390.918C439.352 391.363 438.997 391.893 438.754 392.476C438.511 393.06 438.386 393.685 438.385 394.317C438.383 395.592 438.889 396.817 439.789 397.721C440.692 398.626 441.916 399.135 443.194 399.137H443.207Z" fill="#FE9589"/>
<path d="M285.593 303.72C286.377 303.722 287.153 303.569 287.879 303.273L416.708 249.908V82.8635C416.707 82.1317 416.561 81.4073 416.281 80.7316C416 80.0559 415.589 79.4422 415.071 78.9255C414.026 77.8804 412.606 77.2927 411.127 77.291H163.98C162.501 77.2927 161.081 77.8804 160.036 78.9255C159.518 79.4422 159.107 80.0559 158.826 80.7316C158.546 81.4073 158.4 82.1317 158.399 82.8635V250.025L158.641 250.128L283.236 303.247C283.982 303.561 284.784 303.722 285.593 303.72Z" fill="white"/>
<path d="M283.08 303.613L158.001 250.287V82.8633C158.003 81.2813 158.634 79.7637 159.754 78.6442C160.875 77.5246 162.396 76.8962 163.981 76.8945H411.127C412.712 76.8962 414.232 77.5263 415.354 78.6442C416.475 79.7621 417.105 81.2797 417.107 82.8633V250.174L288.033 303.642C286.443 304.287 284.663 304.277 283.08 303.613ZM415.513 82.8633C415.511 81.7031 415.049 80.5903 414.227 79.7688C413.403 78.9478 412.289 78.4863 411.127 78.485H163.981C162.819 78.4867 161.704 78.9474 160.883 79.7688C160.062 80.5903 159.599 81.7014 159.597 82.8633V249.235L283.703 302.148C284.892 302.646 286.229 302.654 287.424 302.17L415.513 249.11V82.8633Z" fill="#1F1B2D"/>
<path d="M61.5327 216.182V458.142C61.5338 458.874 61.6788 459.599 61.9596 460.274C62.2403 460.95 62.6513 461.564 63.169 462.08C64.2147 463.125 65.6343 463.713 67.1132 463.715H510.383C511.862 463.713 513.281 463.125 514.327 462.08C514.845 461.564 515.256 460.95 515.537 460.274C515.817 459.599 515.962 458.874 515.963 458.142V216.182C515.962 215.45 515.817 214.726 515.537 214.05C515.256 213.374 514.845 212.761 514.327 212.244C513.281 211.199 511.862 210.611 510.383 210.609H510.224L510.08 210.674L416.308 249.515L287.114 303.025C286.622 303.225 286.096 303.327 285.566 303.324C285.036 303.32 284.51 303.215 284.021 303.009L158.797 249.627L67.2739 210.609H67.1149C65.636 210.611 64.2164 211.199 63.1706 212.244C62.653 212.761 62.242 213.374 61.9613 214.05C61.6805 214.726 61.5338 215.45 61.5327 216.182ZM63.1267 216.182C63.1283 215.154 63.5273 214.166 64.24 213.426C64.9524 212.684 65.9237 212.246 66.9525 212.202L158.797 251.353L283.39 304.474C284.776 305.055 286.335 305.063 287.727 304.497L416.308 251.234L510.533 212.202C511.564 212.242 512.539 212.681 513.253 213.421C513.968 214.162 514.368 215.152 514.369 216.182V458.142C514.369 458.665 514.265 459.183 514.064 459.666C513.864 460.148 513.57 460.587 513.2 460.956C512.454 461.703 511.44 462.123 510.383 462.123H67.1132C66.0563 462.123 65.0426 461.703 64.2942 460.956C63.5463 460.211 63.1267 459.198 63.1267 458.142V216.182Z" fill="#1F1B2D"/>
<path d="M185.615 139.733H273.312C275.003 139.734 276.625 139.063 277.821 137.868C279.018 136.674 279.691 135.054 279.691 133.366C279.691 131.677 279.018 130.058 277.821 128.864C276.625 127.669 275.003 126.998 273.312 126.999H185.615C183.924 126.999 182.302 127.67 181.105 128.864C179.909 130.058 179.237 131.677 179.237 133.366C179.237 135.054 179.909 136.674 181.105 137.868C182.302 139.062 183.924 139.733 185.615 139.733ZM185.667 112.672H227.92C229.612 112.672 231.235 112.001 232.431 110.807C233.628 109.613 234.299 107.993 234.299 106.305C234.299 104.616 233.628 102.997 232.431 101.803C231.235 100.609 229.612 99.938 227.92 99.938H185.667C183.977 99.9369 182.355 100.608 181.158 101.803C179.962 102.997 179.29 104.616 179.29 106.305C179.29 107.993 179.962 109.613 181.158 110.807C182.355 112.002 183.977 112.673 185.667 112.672Z" fill="#FE9589"/>
<path d="M221.962 203.407H355.899C357.589 203.407 359.212 202.737 360.408 201.543C361.605 200.349 362.276 198.729 362.276 197.041C362.276 195.352 361.605 193.731 360.408 192.537C359.212 191.343 357.589 190.672 355.899 190.672H221.962C220.27 190.672 218.647 191.343 217.451 192.537C216.255 193.731 215.583 195.352 215.583 197.041C215.583 198.729 216.255 200.349 217.451 201.543C218.647 202.737 220.27 203.407 221.962 203.407ZM221.962 232.857H355.899C357.589 232.857 359.212 232.186 360.408 230.992C361.605 229.798 362.276 228.179 362.276 226.49C362.276 224.801 361.605 223.182 360.408 221.988C359.212 220.794 357.589 220.121 355.899 220.121H221.962C220.27 220.121 218.647 220.794 217.451 221.988C216.255 223.182 215.583 224.801 215.583 226.49C215.583 228.179 216.255 229.798 217.451 230.992C218.647 232.186 220.27 232.857 221.962 232.857Z" fill="#BBB7C5"/>
</svg>
