<svg width="515" height="528" viewBox="0 0 515 528" fill="none" xmlns="http://www.w3.org/2000/svg">
<path opacity="0.2" d="M400.233 497.523C378.825 480.994 373.962 450.312 374.814 422.72C374.96 418.125 374.502 413.266 376.477 409.223C378.451 405.179 383.086 402.422 386.869 404.364C389.987 405.972 391.306 409.958 393.042 413.243C395.349 417.641 398.736 421.225 402.81 423.582C405.46 425.098 408.734 426.028 411.353 424.432C414.948 422.249 415.375 416.758 415.343 412.175C415.302 403.644 415.257 395.109 415.208 386.57C415.208 381.976 415.208 377.323 416.455 372.97C417.702 368.616 420.612 364.596 424.53 363.367C428.448 362.138 433.342 364.665 434.174 369.11C434.527 370.971 434.174 372.912 434.299 374.854C434.423 376.795 435.213 378.863 436.845 379.448C438.476 380.034 440.16 378.69 441.396 377.346C445.668 372.752 448.567 366.767 451.279 360.84C453.992 354.912 456.621 348.859 460.508 343.816C464.394 338.773 469.757 334.775 475.68 334.408C481.604 334.04 487.943 338.084 489.439 344.516C490.936 350.949 487.537 357.52 483.827 362.746C478.293 370.475 471.775 377.276 464.477 382.941C463.178 383.974 461.755 385.077 461.256 386.777C460.362 389.821 462.981 392.854 465.704 393.865C468.821 395.013 472.136 394.646 475.368 395.013C478.6 395.381 482.144 397.115 483.36 400.435C485.064 405.156 481.52 410.015 477.987 413.197C471.005 419.625 463.075 424.677 454.542 428.13C451.487 429.371 448.307 430.428 445.823 432.817C443.34 435.206 447.185 443.557 448.671 446.785C450.157 450.013 448.671 446.785 451.861 446.131C455.052 445.476 457.909 443.557 460.954 442.294C466.639 439.916 473.997 440.353 477.644 445.74C480.034 449.312 480.253 454.298 479.037 458.559C477.821 462.821 475.368 466.486 472.801 469.874C463.677 481.706 452.017 491.229 438.788 496.294C425.559 501.36 413.348 502.727 400.223 497.443" fill="#07C98B"/>
<path d="M399.9 517.97C401.062 505.182 403.327 492.546 406.666 480.235C410.811 465.21 415.731 450.459 421.402 436.056L425.808 424.684C427.263 420.962 428.697 417.263 430.308 413.748C433.4 407.007 436.827 400.461 440.575 394.14C444.129 388.075 447.694 382.458 451.061 377.231C454.428 372.005 457.681 367.226 460.798 362.987C465.701 356.289 471.076 350.032 476.875 344.275C478.953 342.23 480.554 340.702 481.666 339.68L482.944 338.531C483.084 338.387 483.237 338.26 483.401 338.152C483.281 338.314 483.145 338.46 482.996 338.589L481.77 339.806C480.73 340.863 479.088 342.426 477.072 344.505C471.381 350.354 466.091 356.663 461.245 363.378C458.127 367.628 455.01 372.43 451.612 377.656C448.213 382.883 444.722 388.511 441.219 394.576C437.491 400.875 434.078 407.394 430.994 414.104C429.393 417.55 427.97 421.261 426.525 425.006L422.129 436.355C416.45 450.736 411.506 465.459 407.32 480.453C403.96 492.711 401.65 505.291 400.42 518.027" fill="#07C98B"/>
<path d="M430.526 413.727C430.324 413.095 430.188 412.44 430.12 411.774C429.902 410.51 429.642 408.672 429.351 406.386C428.769 401.792 428.156 395.497 427.502 388.524C426.847 381.551 426.151 375.291 425.506 370.696C425.184 368.399 424.914 366.595 424.706 365.32C424.563 364.669 424.486 364.003 424.478 363.333C424.71 363.951 424.884 364.594 424.997 365.251C425.288 366.503 425.652 368.33 426.036 370.593C426.816 375.119 427.606 381.437 428.25 388.421C428.894 395.405 429.455 401.55 429.892 406.306C430.1 408.454 430.276 410.257 430.411 411.716C430.517 412.38 430.556 413.054 430.526 413.727Z" fill="#07C98B"/>
<path d="M483.785 402.722C483.102 402.888 482.406 402.984 481.707 403.009C480.335 403.135 478.36 403.319 475.918 403.641C471.044 404.215 464.331 405.283 456.973 406.811C449.616 408.339 443.006 410.073 438.268 411.475C435.888 412.152 433.976 412.75 432.656 413.163C431.981 413.423 431.285 413.612 430.577 413.726C431.215 413.362 431.884 413.065 432.573 412.842C433.872 412.336 435.763 411.693 438.122 410.889C442.851 409.338 449.46 407.535 456.828 405.973C464.196 404.41 470.961 403.468 475.866 403.032C478.319 402.802 480.314 402.71 481.686 402.676C482.386 402.622 483.088 402.638 483.785 402.722Z" fill="#07C98B"/>
<path d="M407.321 479.143C407.321 479.143 407.165 478.914 406.947 478.431L406.043 476.295C405.253 474.445 404.182 471.7 402.925 468.357C400.358 461.614 397.074 452.172 393.572 441.707C390.07 431.243 386.869 421.766 384.437 414.977L381.528 406.936C381.216 406.063 380.956 405.339 380.748 404.742C380.641 404.494 380.564 404.231 380.52 403.961C380.668 404.18 380.79 404.42 380.883 404.673L381.798 406.798C382.577 408.659 383.648 411.393 384.915 414.747C387.482 421.49 390.766 430.932 394.268 441.409C397.77 451.885 400.961 461.339 403.403 468.127C404.598 471.436 405.575 474.147 406.313 476.168C406.625 477.041 406.884 477.765 407.092 478.362C407.193 478.613 407.27 478.875 407.321 479.143Z" fill="#07C98B"/>
<path d="M478.101 453.932C477.881 454.076 477.643 454.185 477.395 454.253L475.316 455.023L467.73 457.734C461.339 460.031 452.526 463.305 442.789 466.923C433.051 470.542 424.229 473.758 417.775 475.906C414.553 476.986 411.945 477.825 410.126 478.365L408.048 478.973C407.81 479.064 407.562 479.114 407.31 479.123C407.528 478.982 407.763 478.874 408.006 478.801L410.085 478.043L417.661 475.332C424.062 473.035 432.864 469.761 442.602 466.142C452.339 462.524 461.162 459.308 467.595 457.159C470.816 456.08 473.435 455.241 475.254 454.701L477.332 454.092C477.583 454.008 477.84 453.954 478.101 453.932Z" fill="#07C98B"/>
<path opacity="0.7" d="M127.463 91.7785C129.578 90.8105 132.07 91.8448 132.878 94.0262L196.716 266.345C197.449 268.325 196.517 270.534 194.588 271.39L82.2916 321.237C80.1778 322.175 77.7111 321.131 76.9139 318.96L14.0405 147.742C13.3203 145.781 14.231 143.596 16.1309 142.726L127.463 91.7785Z" fill="#FE9589"/>
<path d="M131.379 89.9854L12.7415 144.113C12.7313 144.117 12.7203 144.12 12.7091 144.12C12.6537 144.12 12.616 144.176 12.6371 144.227L12.6534 144.267C31.0809 194.48 53.7461 256.269 78.2395 322.997L78.2571 323.048C78.2828 323.122 78.3523 323.171 78.4305 323.171C78.4562 323.171 78.4816 323.166 78.5051 323.155L79.3412 322.783L198.074 270.048C198.085 270.043 198.097 270.041 198.11 270.041C198.171 270.041 198.213 269.979 198.192 269.922L198.176 269.88L131.379 89.9854L197.828 269.813C197.844 269.854 197.903 269.854 197.918 269.813C197.933 269.773 197.893 269.735 197.854 269.752L79.196 322.408L78.4344 322.747C78.3914 322.767 78.3909 322.828 78.4336 322.847C78.478 322.868 78.5252 322.824 78.5082 322.778C54.0256 256.159 31.3557 194.482 12.9346 144.306C12.9213 144.27 12.8699 144.271 12.8567 144.307C12.8442 144.342 12.8797 144.375 12.9132 144.359L131.379 89.9854Z" fill="#EFECF3"/>
<path d="M136.196 74.6076C138.312 73.6396 140.804 74.6739 141.612 76.8553L205.449 249.174C206.183 251.154 205.251 253.363 203.322 254.22L91.0258 304.079C88.9119 305.018 86.4449 303.973 85.6477 301.802L22.7744 130.571C22.0542 128.61 22.9649 126.425 24.8648 125.555L136.196 74.6076Z" fill="white"/>
<path d="M141.597 76.8606L141.143 77.029C140.436 75.1203 138.255 74.2153 136.404 75.0623L25.0729 126.01C23.4105 126.771 22.6136 128.683 23.2438 130.399L86.1171 301.63C86.8146 303.529 88.9732 304.443 90.8229 303.622L203.119 253.763C204.807 253.013 205.622 251.08 204.98 249.348L141.143 77.029L141.597 76.8606Z" stroke="#1F1B2D" stroke-opacity="0.4"/>
<path d="M140.097 72.8145L21.4659 126.939C21.4516 126.945 21.4362 126.949 21.4205 126.949C21.3601 126.949 21.3111 126.998 21.3111 127.058V127.074C21.3111 127.088 21.3137 127.103 21.3188 127.117L86.9576 305.88L86.9638 305.899C86.9923 305.987 87.093 306.029 87.1755 305.987L88.0473 305.599L206.809 252.87C206.891 252.832 206.932 252.737 206.902 252.652L206.894 252.629L140.097 72.8145L206.558 252.628C206.574 252.67 206.633 252.67 206.648 252.628C206.663 252.589 206.623 252.551 206.584 252.568L87.9262 305.238L87.1583 305.568C87.1175 305.585 87.116 305.642 87.1559 305.662C87.198 305.683 87.2437 305.641 87.2275 305.597C62.7581 238.981 40.0771 177.307 21.6684 127.132C21.6541 127.093 21.5992 127.094 21.586 127.133C21.5736 127.17 21.6108 127.203 21.6458 127.187L140.097 72.8145Z" fill="#EFECF3"/>
<path d="M50.0553 154.437C50.1643 154.744 70.9043 146.086 96.3782 135.098C121.852 124.111 142.386 115.024 142.326 114.689C142.265 114.354 121.477 123.04 96.0029 134.028C70.5289 145.015 49.9464 154.142 50.0553 154.437Z" fill="#EFECF3"/>
<path d="M54.6309 170.9C54.7399 171.194 75.4799 162.536 100.954 151.561C126.428 140.587 146.962 131.487 146.902 131.139C146.841 130.791 126.053 139.503 100.579 150.491C75.1046 161.478 54.5341 170.605 54.6309 170.9Z" fill="#EFECF3"/>
<path d="M70.103 220.763C70.1998 221.058 90.952 212.399 116.426 201.425C141.9 190.451 162.434 181.35 162.362 181.002C162.289 180.654 141.525 189.367 116.039 200.341C90.5524 211.315 69.994 220.469 70.103 220.763Z" fill="#EFECF3"/>
<path d="M77.4039 237.613C77.5008 237.907 98.2529 229.248 123.727 218.274C149.201 207.3 169.735 198.2 169.663 197.852C169.59 197.504 148.826 206.203 123.34 217.19C97.8534 228.178 77.2949 237.305 77.4039 237.613Z" fill="#EFECF3"/>
<path d="M83.4705 254.624C83.5794 254.918 104.319 246.259 129.794 235.285C155.268 224.311 175.802 215.211 175.729 214.863C175.657 214.515 154.892 223.227 129.406 234.201C103.92 245.175 83.3615 254.329 83.4705 254.624Z" fill="#EFECF3"/>
<path d="M89.5352 271.63C89.6442 271.925 110.384 263.266 135.858 252.292C161.332 241.318 181.867 232.217 181.794 231.869C181.721 231.521 160.957 240.234 135.471 251.208C109.985 262.182 89.4263 271.336 89.5352 271.63Z" fill="#EFECF3"/>
<path d="M124.348 137.732C125.425 137.269 126.771 138.05 127.202 139.141C127.619 140.198 127.019 141.114 125.983 141.579L79.89 162.244C78.5394 162.85 76.9622 162.147 76.5099 160.737C76.1188 159.519 76.718 158.203 77.8937 157.697L124.348 137.732Z" fill="#FE9589"/>
<path d="M149.251 144.912C150.62 144.344 152.287 145.212 152.877 146.571C153.485 147.971 152.727 149.354 151.32 149.946L61.9713 187.555C60.469 188.188 58.7381 187.486 58.0996 185.987C57.4552 184.473 58.1687 182.724 59.6881 182.094L149.251 144.912Z" fill="#FE9589"/>
<path d="M154.764 161.846C156.12 161.284 157.676 161.91 158.264 163.255C158.867 164.632 158.227 166.236 156.841 166.819L67.4689 204.443C65.967 205.076 64.2365 204.375 63.5981 202.875C62.9537 201.361 63.6677 199.613 65.1875 198.982L154.764 161.846Z" fill="#FE9589"/>
<path d="M61.8462 516.138C61.8462 516.313 159.944 516.441 280.907 516.441C401.871 516.441 500 516.313 500 516.138C500 515.962 401.923 515.834 280.907 515.834C159.891 515.834 61.8462 515.974 61.8462 516.138Z" fill="#1F1B2D"/>
<path d="M458.289 56.51C459.704 109.313 463.857 307.795 464.956 360.751C465.03 364.223 463.858 367.587 461.696 370.107C459.535 372.628 456.558 374.101 453.417 374.205L256.63 380.851C255.06 380.904 253.496 380.613 252.028 379.995C250.56 379.377 249.218 378.444 248.077 377.249C246.937 376.055 246.022 374.624 245.384 373.037C244.747 371.45 244.4 369.739 244.363 368.004L241.299 214.604L224.635 214.301C222.665 214.264 220.784 213.38 219.393 211.836C218.002 210.293 217.211 208.21 217.186 206.032L215.908 82.4502C215.888 80.2392 216.66 78.1092 218.055 76.5251C219.451 74.9409 221.357 74.0311 223.357 73.9942L238.446 73.6672L238.329 61.719C238.295 58.2645 239.498 54.9351 241.675 52.4564C243.852 49.9777 246.827 48.5506 249.952 48.4861L446.264 43.8143C449.376 43.7575 452.383 45.0581 454.634 47.4343C456.884 49.8106 458.197 53.0712 458.289 56.51Z" fill="#FE9589"/>
<path opacity="0.4" d="M458.289 56.51C459.704 109.313 463.857 307.795 464.956 360.751C465.03 364.223 463.858 367.587 461.696 370.107C459.535 372.628 456.558 374.101 453.417 374.205L256.63 380.851C255.06 380.904 253.496 380.613 252.028 379.995C250.56 379.377 249.218 378.444 248.077 377.249C246.937 376.055 246.022 374.624 245.384 373.037C244.747 371.45 244.4 369.739 244.363 368.004L241.299 214.604L224.635 214.301C222.665 214.264 220.784 213.38 219.393 211.836C218.002 210.293 217.211 208.21 217.186 206.032L215.908 82.4502C215.888 80.2392 216.66 78.1092 218.055 76.5251C219.451 74.9409 221.357 74.0311 223.357 73.9942L238.446 73.6672L238.329 61.719C238.295 58.2645 239.498 54.9351 241.675 52.4564C243.852 49.9777 246.827 48.5506 249.952 48.4861L446.264 43.8143C449.376 43.7575 452.383 45.0581 454.634 47.4343C456.884 49.8106 458.197 53.0712 458.289 56.51Z" fill="black"/>
<path d="M439.28 59.0731C441.51 58.9089 443.441 60.6037 443.568 62.8354L460.472 360.42C460.597 362.618 458.922 364.503 456.725 364.639L261.943 376.7C259.726 376.837 257.822 375.141 257.702 372.923L241.763 77.5475C241.646 75.3721 243.291 73.5028 245.464 73.3428L439.28 59.0731Z" fill="#D5D2DC"/>
<path d="M463.701 52.1362C465.915 52.1387 467.706 53.9396 467.696 56.1538L466.379 354.333C466.369 356.555 464.55 358.344 462.327 358.315L267.254 355.802C265.053 355.774 263.289 353.974 263.305 351.773L265.445 55.8829C265.461 53.6833 267.25 51.9093 269.45 51.9118L463.701 52.1362Z" fill="#F5F4F8"/>
<path d="M489.467 72.4826C492.153 72.8857 494.026 75.3595 493.686 78.0543L456.613 371.354C456.258 374.161 453.646 376.115 450.853 375.662L259.793 344.702C257.129 344.271 255.288 341.803 255.634 339.126L293.243 48.1938C293.602 45.4156 296.174 43.4744 298.944 43.8902L489.467 72.4826Z" fill="white"/>
<path d="M494.298 73.2106L293.945 42.8461C293.934 42.8445 293.924 42.8438 293.914 42.8438C293.8 42.8438 293.707 42.9361 293.707 43.0501V43.089C282.771 127.591 269.31 231.574 254.781 343.872V343.922C254.781 344.062 254.895 344.176 255.035 344.176C255.049 344.176 255.062 344.177 255.076 344.179L256.514 344.41L455.913 376.771C455.926 376.773 455.938 376.774 455.951 376.774C456.081 376.774 456.186 376.669 456.186 376.539V376.493C478.713 197.061 493.96 75.5932 494.224 73.1755L455.673 376.219C455.664 376.291 455.748 376.336 455.803 376.289C455.854 376.245 455.83 376.162 455.764 376.151L256.45 343.837L255.173 343.624C255.1 343.612 255.048 343.693 255.089 343.754C255.132 343.819 255.233 343.795 255.243 343.718C269.719 231.57 283.13 127.734 294.023 43.3081C294.031 43.2461 293.959 43.2075 293.911 43.2475C293.865 43.2855 293.885 43.3599 293.944 43.3687L494.298 73.2106Z" fill="#FE9589"/>
<path d="M306.524 143.487C306.45 143.989 340.896 150.378 383.457 157.771C426.018 165.164 460.591 170.736 460.591 170.245C460.591 169.754 426.219 163.354 383.658 155.961C341.097 148.568 306.598 142.997 306.524 143.487Z" fill="#1F1B2D"/>
<path d="M291.805 224.941C291.742 225.431 326.188 231.832 368.738 239.213C411.289 246.595 445.873 252.189 445.873 251.687C445.873 251.185 411.511 244.796 368.939 237.415C326.367 230.033 291.879 224.427 291.805 224.941Z" fill="#1F1B2D"/>
<path d="M289.66 254.255C289.597 254.757 324.043 261.146 366.593 268.527C409.144 275.909 443.728 281.503 443.728 281.001C443.728 280.499 409.366 274.11 366.794 266.729C324.222 259.347 289.734 253.753 289.66 254.255Z" fill="#1F1B2D"/>
<path d="M314.343 79.1441C314.343 79.5996 337.462 83.5823 366.012 88.0439C394.563 92.5055 417.787 95.7524 417.787 95.2969C417.787 94.8414 394.668 90.847 366.107 86.3971C337.547 81.9472 314.364 78.6886 314.343 79.1441Z" fill="#1F1B2D"/>
<path d="M311.078 95.3786C311.078 95.8341 334.197 99.8285 362.747 104.278C391.297 108.728 414.522 111.987 414.522 111.531C414.522 111.076 391.414 107.093 362.853 102.632C334.292 98.17 311.088 94.9231 311.078 95.3786Z" fill="#1F1B2D"/>
<path d="M307.126 112.512C307.126 112.979 330.245 116.962 358.806 121.424C387.367 125.885 410.518 129.12 410.581 128.665C410.645 128.209 387.43 124.227 358.901 119.823C330.372 115.42 307.126 112.057 307.126 112.512Z" fill="#1F1B2D"/>
<path d="M285.719 282.73C285.645 283.22 320.091 289.621 362.653 297.002C405.214 304.383 439.787 309.978 439.787 309.476C439.787 308.974 405.414 302.585 362.853 295.203C320.292 287.822 285.793 282.227 285.719 282.73Z" fill="#1F1B2D"/>
<path d="M281.767 311.203C281.693 311.694 316.139 318.094 358.69 325.476C401.24 332.857 435.824 338.452 435.887 337.949C435.951 337.447 401.515 331.058 358.943 323.677C316.372 316.296 281.841 310.701 281.767 311.203Z" fill="#1F1B2D"/>
<path d="M425.445 159.474C427.163 159.773 428.32 161.667 428.141 163.401C427.942 165.334 426.195 166.357 424.275 166.053L346.804 153.782C344.633 153.438 343.159 151.389 343.523 149.221C343.887 147.058 345.942 145.604 348.103 145.981L425.445 159.474Z" fill="#FE9589"/>
<path d="M454.235 191.098C456.407 191.506 457.911 193.74 457.751 195.944C457.564 198.506 455.215 200.09 452.687 199.629L304.242 172.537C301.866 172.103 300.203 169.941 300.394 167.533C300.615 164.744 303.206 162.762 305.955 163.278L454.235 191.098Z" fill="#FE9589"/>
<path d="M449.549 218.964C451.724 219.372 453.229 221.609 453.069 223.815C452.883 226.381 450.53 227.968 447.999 227.506L299.566 200.416C297.187 199.982 295.522 197.818 295.713 195.407C295.934 192.615 298.528 190.63 301.281 191.147L449.549 218.964Z" fill="#FE9589"/>
<path d="M443.13 247.254C445.432 247.718 446.842 249.68 446.429 251.992C445.952 254.667 443.383 256.482 440.708 256.001L371.363 243.532C368.706 243.054 366.838 240.647 367.035 237.955C367.266 234.785 370.226 232.538 373.341 233.166L443.13 247.254Z" fill="#FE9589"/>
<path d="M466.129 93.0644C468.279 93.3842 469.78 95.362 469.51 97.5185L463.45 145.849C463.169 148.086 461.097 149.65 458.869 149.305L420.354 143.339C418.235 143.011 416.751 141.07 416.991 138.939L422.417 90.7505C422.67 88.4999 424.74 86.9084 426.98 87.2416L466.129 93.0644Z" fill="#FE9589"/>
<mask id="mask0_6240_14927" style="mask-type:alpha" maskUnits="userSpaceOnUse" x="416" y="87" width="54" height="63">
<path d="M466.129 93.0634C468.278 93.3832 469.779 95.361 469.509 97.5175L463.449 145.848C463.169 148.085 461.096 149.649 458.868 149.304L420.353 143.338C418.234 143.01 416.751 141.069 416.991 138.938L422.416 90.7496C422.67 88.4989 424.74 86.9074 426.98 87.2406L466.129 93.0634Z" fill="#5D3CF2"/>
</mask>
<g mask="url(#mask0_6240_14927)">
<path d="M446.876 140.265L432.865 136.084C433.087 134.227 434.408 127.173 434.408 127.173C434.408 127.173 428.67 124.942 429.706 118.401C430.741 111.861 434.281 97.0978 434.281 97.0978C437.898 96.2069 441.665 96.3973 445.193 97.6495C448.722 98.9017 451.885 101.17 454.357 104.222L455.107 105.145L446.876 140.265Z" fill="#FFBE9D"/>
<path d="M433.785 108.591C433.893 108.532 433.99 108.448 434.067 108.345C434.144 108.241 434.201 108.121 434.234 107.992C434.267 107.863 434.275 107.728 434.258 107.596C434.24 107.463 434.198 107.336 434.133 107.222C434.068 107.109 433.983 107.012 433.882 106.937C433.781 106.863 433.668 106.812 433.548 106.789C433.429 106.767 433.306 106.772 433.189 106.804C433.071 106.837 432.961 106.897 432.865 106.98C432.767 107.044 432.681 107.13 432.614 107.232C432.546 107.334 432.497 107.45 432.471 107.573C432.444 107.696 432.44 107.824 432.459 107.948C432.478 108.073 432.519 108.192 432.58 108.299C432.706 108.513 432.903 108.664 433.128 108.719C433.354 108.773 433.59 108.728 433.785 108.591Z" fill="#1F1B2D"/>
<path d="M432.601 106.802C432.675 106.943 433.34 106.569 434.154 106.732C434.968 106.896 435.475 107.48 435.58 107.386C435.686 107.293 435.58 107.118 435.358 106.849C435.063 106.495 434.669 106.261 434.238 106.183C433.811 106.106 433.372 106.175 432.981 106.382C432.685 106.557 432.569 106.744 432.601 106.802Z" fill="#1F1B2D"/>
<path d="M441.836 109.525C441.729 109.569 441.631 109.636 441.547 109.722C441.464 109.809 441.396 109.912 441.349 110.027C441.302 110.142 441.276 110.267 441.272 110.393C441.269 110.519 441.288 110.645 441.329 110.763C441.37 110.881 441.431 110.989 441.51 111.081C441.589 111.173 441.683 111.246 441.787 111.298C441.892 111.349 442.004 111.378 442.119 111.381C442.233 111.385 442.347 111.363 442.454 111.318C442.561 111.273 442.658 111.204 442.742 111.117C442.825 111.03 442.891 110.926 442.938 110.811C442.984 110.695 443.01 110.571 443.013 110.444C443.016 110.318 442.997 110.192 442.956 110.074C442.873 109.837 442.709 109.646 442.499 109.543C442.289 109.44 442.05 109.434 441.836 109.525Z" fill="#1F1B2D"/>
<path d="M441.319 109.419C441.393 109.547 442.058 109.174 442.861 109.337C443.664 109.501 444.193 110.096 444.298 109.991C444.404 109.886 444.298 109.734 444.076 109.454C443.769 109.117 443.375 108.892 442.947 108.81C442.52 108.729 442.081 108.795 441.689 108.999C441.382 109.174 441.255 109.314 441.319 109.419Z" fill="#1F1B2D"/>
<path d="M436.785 116.158C436.399 115.888 435.974 115.69 435.528 115.574C435.317 115.504 435.158 115.423 435.158 115.294C435.195 115.056 435.29 114.834 435.433 114.652L436.384 112.958C437.246 111.537 437.982 110.028 438.582 108.45C437.582 109.758 436.711 111.179 435.982 112.69L435.063 114.406C434.874 114.677 434.773 115.01 434.778 115.352C434.792 115.45 434.827 115.543 434.88 115.622C434.933 115.702 435.004 115.765 435.084 115.808C435.195 115.866 435.312 115.91 435.433 115.936C435.869 116.094 436.326 116.169 436.785 116.158Z" fill="#1F1B2D"/>
<path d="M439.205 117.7C440.145 117.314 436.637 118.587 434.978 118.155C435.175 118.683 435.527 119.122 435.978 119.4C436.429 119.678 436.952 119.778 437.461 119.685C439.426 119.335 439.205 117.7 439.205 117.7Z" fill="white"/>
<path d="M434.44 127.077C437.156 127.699 439.977 127.41 442.544 126.248C442.544 126.248 439.934 130.569 434.091 128.759L434.44 127.077Z" fill="#EB996E"/>
<path d="M454.135 111.45C454.273 111.45 458.594 111.999 456.956 117.29C455.319 122.58 450.976 119.041 451.008 118.89C451.04 118.738 454.135 111.45 454.135 111.45Z" fill="#FFBE9D"/>
<path d="M453.068 117.63C453.068 117.63 453.131 117.723 453.258 117.852C453.43 118.018 453.653 118.106 453.881 118.097C454.452 118.097 455.16 117.35 455.477 116.392C455.628 115.937 455.686 115.45 455.646 114.967C455.65 114.783 455.615 114.6 455.544 114.434C455.472 114.267 455.366 114.122 455.234 114.01C455.146 113.945 455.041 113.916 454.937 113.929C454.832 113.942 454.735 113.995 454.663 114.08C454.547 114.208 454.547 114.325 454.515 114.325C454.483 114.325 454.441 114.196 454.515 113.986C454.585 113.866 454.689 113.776 454.811 113.729C454.891 113.692 454.978 113.673 455.065 113.673C455.152 113.673 455.238 113.692 455.318 113.729C455.504 113.849 455.658 114.019 455.767 114.224C455.877 114.428 455.937 114.66 455.942 114.897C456.008 115.437 455.954 115.986 455.783 116.497C455.661 116.984 455.412 117.421 455.066 117.751C454.72 118.082 454.293 118.292 453.839 118.354C453.697 118.347 453.559 118.305 453.434 118.23C453.31 118.155 453.203 118.05 453.121 117.922C453.036 117.758 453.047 117.63 453.068 117.63Z" fill="#EB996E"/>
<path d="M434.365 96.91C435.137 101.71 440.705 104.689 444.995 105.845C443.315 103.509 444.488 104.151 443.474 102.528C446.271 106.407 450.24 109.04 454.653 109.944C455.173 108.907 455.499 107.765 455.612 106.586C455.725 105.407 455.622 104.215 455.31 103.08C454.997 101.946 454.482 100.893 453.793 99.9831C453.105 99.0735 452.258 98.3263 451.303 97.7859C450.046 97.0735 448.651 96.7348 447.351 96.1158C446.295 95.5902 445.238 94.8544 444.118 94.4222C440.737 93.1375 435.274 90.9184 434.365 96.91Z" fill="#1F1B2D"/>
<path d="M452.413 106.978C452.529 107.655 452.519 115.316 452.519 115.316L455.234 108.484L452.413 106.978Z" fill="#1F1B2D"/>
<path d="M474.644 167.537L462.905 148.418C460.674 144.626 457.666 141.469 454.124 139.203C452.25 137.986 450.214 137.103 448.091 136.586C442.877 137.288 437.595 136.2 432.96 133.468C428.735 133.109 424.485 133.555 420.397 134.788L397.151 140.02L400.511 162.562L412.789 160.705L410.126 180.7L402.814 209.899L447.573 219.663L451.546 192.601L454.801 173.108L460.084 181.401L474.644 167.537Z" fill="#454056"/>
</g>
<path d="M194.974 512.047L195.027 501.258L176.757 501.023L176.524 516.796L177.659 516.89C182.699 517.265 203.302 518.415 206.686 517.324C210.453 516.116 194.974 512.047 194.974 512.047Z" fill="#FE9589"/>
<path d="M183.146 516.725C182.894 515.018 182.082 513.473 180.865 512.386C179.673 511.308 178.158 510.764 176.621 510.862L176.557 516.502L183.146 516.725Z" fill="#FE9589"/>
<path d="M202.54 514.334C202.54 514.334 207.961 516.14 207.271 517.125C206.582 518.11 185.713 517.817 176.504 516.797V516.339L200.842 516.914C200.842 516.914 201.468 514.369 202.54 514.334Z" fill="#FE9589"/>
<path d="M176.271 516.329H176.59L177.491 516.411L180.802 516.611C183.613 516.763 187.485 516.915 191.772 516.974C196.058 517.033 199.93 516.974 202.742 516.974L206.063 516.869H206.964H207.283H206.063H202.731C199.93 516.869 196.058 516.869 191.772 516.869C187.485 516.869 183.613 516.669 180.812 516.564L177.491 516.446H176.59L176.271 516.329Z" fill="#1F1B2D"/>
<path d="M200.884 517.23C201.033 516.622 201.247 516.035 201.521 515.482C201.853 514.974 202.237 514.509 202.666 514.099C202.091 514.323 201.613 514.78 201.33 515.377C200.983 515.915 200.825 516.573 200.884 517.23Z" fill="#1F1B2D"/>
<path d="M195.527 514.124C195.58 514.124 195.835 513.819 196.111 513.362C196.305 513.099 196.443 512.79 196.514 512.459C196.461 512.459 196.195 512.764 195.93 513.233C195.665 513.702 195.474 514.089 195.527 514.124Z" fill="#1F1B2D"/>
<path d="M194.052 513.247C194.052 513.247 194.392 513.083 194.71 512.778C195.028 512.473 195.251 512.18 195.208 512.133C195.166 512.086 194.88 512.285 194.561 512.602C194.243 512.918 194.02 513.2 194.052 513.247Z" fill="#1F1B2D"/>
<path d="M193.14 511.322C193.443 511.456 193.77 511.508 194.095 511.474C194.415 511.516 194.74 511.484 195.049 511.38C194.746 511.247 194.419 511.195 194.095 511.228C193.774 511.187 193.449 511.219 193.14 511.322Z" fill="#1F1B2D"/>
<path d="M192.831 509.973C193.143 510.21 193.513 510.337 193.892 510.336C194.251 510.405 194.621 510.352 194.953 510.184C194.602 510.117 194.247 510.086 193.892 510.09C193.542 510.019 193.187 509.98 192.831 509.973Z" fill="#1F1B2D"/>
<path d="M196.163 512.373C196.553 512.445 196.951 512.445 197.341 512.373C197.765 512.314 198.184 512.216 198.593 512.08C198.844 512.006 199.086 511.9 199.314 511.763C199.455 511.676 199.56 511.534 199.611 511.365C199.628 511.269 199.621 511.169 199.589 511.078C199.557 510.986 199.502 510.907 199.431 510.849C198.988 510.595 198.478 510.521 197.991 510.641C197.504 510.761 197.071 511.067 196.768 511.505C196.583 511.756 196.449 512.048 196.375 512.361C196.352 512.477 196.352 512.597 196.375 512.713C196.503 512.315 196.69 511.942 196.927 511.611C197.199 511.28 197.547 511.036 197.935 510.907C198.165 510.826 198.406 510.796 198.647 510.818C198.887 510.84 199.121 510.914 199.335 511.036C199.526 511.189 199.441 511.435 199.24 511.564C199.027 511.69 198.803 511.792 198.571 511.869C198.177 512.016 197.773 512.125 197.362 512.197C196.609 512.338 196.163 512.338 196.163 512.373Z" fill="#1F1B2D"/>
<path d="M196.47 512.446C196.611 512.173 196.664 511.854 196.618 511.543C196.582 511.203 196.473 510.877 196.3 510.593C196.204 510.399 196.065 510.235 195.896 510.116C195.727 509.997 195.534 509.927 195.334 509.913C195.214 509.939 195.107 510.016 195.038 510.128C194.968 510.24 194.941 510.377 194.963 510.511C194.989 510.719 195.054 510.919 195.154 511.097C195.305 511.385 195.491 511.65 195.706 511.883C195.881 512.125 196.112 512.311 196.374 512.422C196.374 512.422 196.141 512.188 195.822 511.766C195.632 511.527 195.468 511.263 195.334 510.98C195.175 510.71 195.069 510.218 195.334 510.159C195.6 510.101 195.929 510.464 196.109 510.722C196.269 510.975 196.378 511.263 196.427 511.566C196.464 511.858 196.478 512.152 196.47 512.446Z" fill="#1F1B2D"/>
<path d="M176.706 510.807C176.706 510.807 177.236 510.807 178.053 510.877C179.128 511.025 180.144 511.505 180.983 512.262C181.822 513.019 182.45 514.023 182.795 515.158C183.061 516.037 183.082 516.612 183.124 516.612C183.142 516.476 183.142 516.337 183.124 516.201C183.091 515.832 183.027 515.467 182.933 515.111C182.62 513.918 181.987 512.858 181.118 512.071C180.248 511.284 179.184 510.806 178.064 510.701C177.729 510.663 177.391 510.663 177.056 510.701C176.936 510.719 176.818 510.754 176.706 510.807Z" fill="#1F1B2D"/>
<path d="M178.731 502.479C178.51 505.236 178.446 508.005 178.539 510.77C178.745 508.013 178.809 505.245 178.731 502.479Z" fill="#1F1B2D"/>
<path d="M185.468 514.792C187.216 515.181 189.012 515.225 190.773 514.921C190.773 514.851 189.574 514.921 188.099 514.921C186.625 514.921 185.479 514.722 185.468 514.792Z" fill="#1F1B2D"/>
<path d="M181.914 514.735C181.914 514.735 182.01 515.016 182.126 515.321C182.243 515.626 182.307 515.896 182.37 515.884C182.434 515.872 182.466 515.568 182.37 515.216C182.275 514.864 181.914 514.688 181.914 514.735Z" fill="#1F1B2D"/>
<path d="M180.568 512.858C180.515 512.858 180.631 513.116 180.822 513.327C181.013 513.538 181.193 513.678 181.236 513.631C181.278 513.584 181.172 513.373 180.981 513.162C180.79 512.951 180.61 512.811 180.568 512.858Z" fill="#1F1B2D"/>
<path d="M178.647 511.977C178.647 512.048 178.902 512.048 179.167 512.153C179.432 512.259 179.623 512.423 179.676 512.376C179.73 512.329 179.57 512.059 179.242 511.93C178.913 511.801 178.626 511.919 178.647 511.977Z" fill="#1F1B2D"/>
<path d="M177.267 511.554C177.267 511.625 177.352 511.73 177.501 511.789C177.649 511.848 177.798 511.871 177.819 511.789C177.84 511.707 177.734 511.625 177.586 511.554C177.437 511.484 177.299 511.496 177.267 511.554Z" fill="#1F1B2D"/>
<path d="M101.591 506.475L104.573 496.202L122.004 502.242L117.76 517.311L116.699 517.018C111.798 515.646 91.8942 509.665 88.9766 507.472C85.7301 505.033 101.591 506.475 101.591 506.475Z" fill="#FE9589"/>
<path d="M111.523 514.977C112.236 513.437 113.442 512.246 114.907 511.635C116.346 511.014 117.944 511.014 119.384 511.635L117.856 517.018L111.523 514.977Z" fill="#FE9589"/>
<path d="M93.7596 506.054C93.7596 506.054 88.0942 505.913 88.4549 507.086C88.8157 508.259 108.751 515.131 117.779 517.312L117.864 516.878L94.5766 509.068C94.5766 509.068 94.7569 506.453 93.7596 506.054Z" fill="#FE9589"/>
<path d="M118.174 516.962L117.856 516.892L116.986 516.646L113.803 515.707C111.097 514.887 107.363 513.702 103.278 512.295C99.1935 510.888 95.512 509.516 92.8597 508.495L89.7299 507.252L88.8811 506.9C88.7809 506.866 88.6847 506.819 88.5947 506.76L88.9023 506.854L89.7617 507.158L92.9446 508.331C95.6075 509.316 99.3102 510.677 103.374 512.06C107.437 513.444 111.182 514.676 113.877 515.579L117.06 516.599L117.919 516.88C118.006 516.9 118.091 516.928 118.174 516.962Z" fill="#1F1B2D"/>
<path d="M94.5242 509.374C94.5424 508.746 94.4997 508.117 94.3969 507.498C94.2248 506.899 93.9898 506.325 93.6966 505.786C94.1818 506.189 94.5115 506.78 94.6197 507.44C94.7952 508.077 94.7613 508.762 94.5242 509.374Z" fill="#1F1B2D"/>
<path d="M100.487 508.258C100.423 508.258 100.274 507.859 100.136 507.332C99.9977 506.804 99.9552 506.358 100.019 506.335C100.19 506.618 100.306 506.938 100.359 507.273C100.468 507.587 100.512 507.923 100.487 508.258Z" fill="#1F1B2D"/>
<path d="M102.131 507.932C102.078 507.932 101.855 507.662 101.643 507.263C101.431 506.864 101.293 506.501 101.346 506.466C101.399 506.43 101.611 506.735 101.834 507.134C102.056 507.533 102.184 507.896 102.131 507.932Z" fill="#1F1B2D"/>
<path d="M103.531 506.417C103.208 506.427 102.886 506.363 102.587 506.229C102.27 506.157 101.971 506.013 101.706 505.807C102.03 505.782 102.355 505.846 102.65 505.995C103.16 506.159 103.552 506.347 103.531 506.417Z" fill="#1F1B2D"/>
<path d="M104.2 505.232C103.855 505.355 103.484 505.355 103.139 505.232C102.764 505.175 102.413 504.996 102.131 504.716C102.492 504.773 102.847 504.867 103.192 504.997C103.534 505.045 103.871 505.123 104.2 505.232Z" fill="#1F1B2D"/>
<path d="M100.37 506.371C99.9766 506.323 99.5948 506.192 99.2458 505.984C98.8568 505.786 98.4841 505.55 98.1319 505.281C97.9161 505.122 97.7169 504.937 97.5378 504.73C97.4316 504.597 97.3714 504.426 97.368 504.249C97.3778 504.15 97.413 504.057 97.4695 503.98C97.5259 503.903 97.6012 503.846 97.6863 503.815C98.1797 503.723 98.6867 503.827 99.1177 504.108C99.5486 504.389 99.8758 504.829 100.042 505.351C100.141 505.659 100.184 505.986 100.169 506.313C100.174 506.43 100.152 506.547 100.105 506.653C100.102 506.232 100.03 505.815 99.893 505.421C99.7323 505.007 99.4671 504.653 99.1291 504.401C98.9339 504.244 98.7125 504.131 98.4776 504.069C98.2428 504.006 97.9991 503.996 97.7606 504.038C97.5484 504.132 97.5484 504.378 97.7075 504.577C97.8738 504.771 98.0588 504.944 98.2592 505.093C98.5959 505.368 98.9505 505.615 99.3201 505.832C99.946 506.195 100.381 506.336 100.37 506.371Z" fill="#1F1B2D"/>
<path d="M100.062 506.336C99.9974 506.031 100.035 505.71 100.169 505.433C100.292 505.119 100.486 504.845 100.731 504.636C100.871 504.491 101.041 504.387 101.226 504.332C101.411 504.277 101.605 504.272 101.792 504.319C101.845 504.351 101.892 504.394 101.93 504.446C101.968 504.499 101.997 504.559 102.013 504.623C102.03 504.687 102.035 504.755 102.028 504.822C102.021 504.888 102.002 504.952 101.972 505.011C101.894 505.201 101.778 505.37 101.633 505.503C101.406 505.722 101.156 505.911 100.89 506.066C100.655 506.235 100.384 506.332 100.105 506.348C100.105 506.348 100.391 506.207 100.816 505.914C101.059 505.748 101.286 505.555 101.495 505.339C101.718 505.128 101.962 504.694 101.696 504.542C101.539 504.51 101.377 504.517 101.223 504.564C101.068 504.61 100.926 504.695 100.805 504.811C100.581 504.996 100.397 505.232 100.264 505.503C100.167 505.771 100.099 506.05 100.062 506.336Z" fill="#1F1B2D"/>
<path d="M119.318 511.555C119.318 511.555 118.83 511.332 118.013 511.168C116.95 510.935 115.85 511.041 114.839 511.472C113.829 511.904 112.95 512.644 112.306 513.607C111.807 514.345 111.627 514.897 111.584 514.873C111.602 514.739 111.638 514.609 111.69 514.486C111.822 514.144 111.986 513.818 112.178 513.513C112.812 512.488 113.711 511.698 114.758 511.248C115.805 510.799 116.951 510.709 118.045 510.992C118.373 511.08 118.692 511.201 119 511.355C119.115 511.402 119.222 511.47 119.318 511.555Z" fill="#1F1B2D"/>
<path d="M119.764 502.914C119.205 505.61 118.497 508.265 117.642 510.865C117.902 509.509 118.228 508.171 118.618 506.854C118.928 505.517 119.311 504.201 119.764 502.914Z" fill="#1F1B2D"/>
<path d="M109.856 512.339C108.96 512.26 108.076 512.059 107.225 511.741C106.358 511.488 105.524 511.114 104.742 510.627C104.742 510.568 105.888 511.038 107.288 511.507C108.689 511.976 109.866 512.269 109.856 512.339Z" fill="#1F1B2D"/>
<path d="M113.271 513.514C113.271 513.514 113.101 513.748 112.91 513.995C112.719 514.241 112.571 514.475 112.518 514.452C112.465 514.428 112.518 514.123 112.741 513.83C112.963 513.537 113.25 513.455 113.271 513.514Z" fill="#1F1B2D"/>
<path d="M115.076 512.188C115.076 512.246 114.938 512.41 114.694 512.551C114.45 512.692 114.238 512.751 114.216 512.692C114.195 512.633 114.354 512.469 114.588 512.328C114.821 512.188 115.076 512.129 115.076 512.188Z" fill="#1F1B2D"/>
<path d="M117.134 512.014C117.134 512.073 116.879 512.014 116.592 512.014C116.306 512.014 116.073 512.12 116.041 512.014C116.009 511.909 116.232 511.745 116.582 511.733C116.932 511.721 117.197 511.955 117.134 512.014Z" fill="#1F1B2D"/>
<path d="M118.555 512.082C118.555 512.153 118.427 512.211 118.268 512.223C118.109 512.235 117.971 512.223 117.971 512.129C117.971 512.035 118.088 512 118.258 511.989C118.427 511.977 118.555 512.012 118.555 512.082Z" fill="#1F1B2D"/>
<path d="M207.409 297.898L198.879 507.406L170.425 508.062L175.146 332.67L123.584 510.15L100.328 503.113L152.219 297.898" fill="#1F1B2D"/>
<path d="M124.805 508.966L123.479 511.78L98.8333 503.841L100.329 499.268L124.805 508.966Z" fill="#454056"/>
<path d="M103.17 498.224C103.022 498.224 102.799 498.517 102.672 498.974C102.544 499.432 102.566 499.865 102.672 499.912C102.778 499.959 103.032 499.619 103.16 499.15C103.287 498.681 103.319 498.271 103.17 498.224Z" fill="#454056"/>
<path d="M105.017 491.417C104.869 491.417 104.54 492.085 104.285 493.024C104.031 493.962 103.946 494.771 104.094 494.818C104.243 494.865 104.561 494.149 104.816 493.199C105.071 492.25 105.166 491.464 105.017 491.417Z" fill="#454056"/>
<path d="M106.863 484.618C106.714 484.618 106.385 485.287 106.131 486.225C105.876 487.163 105.791 487.972 105.94 488.019C106.088 488.066 106.407 487.339 106.661 486.401C106.916 485.462 107.011 484.665 106.863 484.618Z" fill="#454056"/>
<path d="M108.71 477.851C108.561 477.851 108.232 478.519 107.978 479.457C107.723 480.395 107.638 481.204 107.787 481.251C107.935 481.298 108.254 480.571 108.508 479.633C108.763 478.695 108.858 477.851 108.71 477.851Z" fill="#454056"/>
<path d="M110.556 471.014C110.407 471.014 110.079 471.682 109.824 472.62C109.569 473.558 109.485 474.367 109.633 474.414C109.782 474.461 110.1 473.734 110.354 472.796C110.609 471.858 110.694 471.061 110.556 471.014Z" fill="#454056"/>
<path d="M112.401 464.212C112.252 464.154 111.923 464.881 111.668 465.819C111.414 466.757 111.329 467.554 111.477 467.613C111.626 467.672 111.944 466.933 112.199 465.995C112.454 465.057 112.539 464.259 112.401 464.212Z" fill="#454056"/>
<path d="M114.248 457.397C114.099 457.397 113.77 458.078 113.516 459.016C113.261 459.954 113.176 460.751 113.325 460.81C113.473 460.869 113.792 460.13 114.046 459.192C114.301 458.254 114.386 457.456 114.248 457.397Z" fill="#454056"/>
<path d="M116.137 450.596C115.988 450.596 115.659 451.276 115.405 452.214C115.15 453.152 115.065 453.949 115.214 453.996C115.362 454.043 115.681 453.328 115.935 452.39C116.19 451.452 116.232 450.654 116.137 450.596Z" fill="#454056"/>
<path d="M117.94 443.84C117.792 443.84 117.463 444.52 117.208 445.458C116.954 446.396 116.869 447.194 117.017 447.24C117.166 447.287 117.484 446.572 117.739 445.634C117.993 444.696 118.078 443.84 117.94 443.84Z" fill="#454056"/>
<path d="M119.786 436.992C119.637 436.992 119.309 437.672 119.054 438.61C118.799 439.548 118.715 440.346 118.863 440.393C119.012 440.44 119.33 439.724 119.584 438.786C119.839 437.848 119.924 437.039 119.786 436.992Z" fill="#454056"/>
<path d="M121.62 430.191C121.482 430.191 121.153 430.872 120.899 431.81C120.644 432.748 120.559 433.545 120.697 433.592C120.835 433.639 121.175 432.924 121.429 431.985C121.684 431.047 121.769 430.238 121.62 430.191Z" fill="#454056"/>
<path d="M123.468 423.392C123.33 423.392 123.001 424.06 122.746 425.01C122.492 425.96 122.407 426.745 122.545 426.792C122.683 426.839 123.022 426.124 123.277 425.186C123.531 424.248 123.563 423.439 123.468 423.392Z" fill="#454056"/>
<path d="M125.313 416.585C125.175 416.585 124.846 417.253 124.591 418.191C124.337 419.13 124.252 419.939 124.39 419.986C124.528 420.032 124.867 419.317 125.122 418.367C125.376 417.418 125.461 416.632 125.313 416.585Z" fill="#454056"/>
<path d="M127.159 409.834C127.021 409.834 126.692 410.502 126.438 411.441C126.183 412.379 126.098 413.188 126.236 413.235C126.374 413.282 126.714 412.555 126.968 411.616C127.223 410.678 127.308 409.834 127.159 409.834Z" fill="#454056"/>
<path d="M129.005 402.985C128.867 402.985 128.538 403.654 128.283 404.592C128.029 405.53 127.944 406.339 128.082 406.386C128.22 406.433 128.559 405.706 128.814 404.768C129.068 403.83 129.153 403.032 129.005 402.985Z" fill="#454056"/>
<path d="M130.852 396.182C130.703 396.182 130.385 396.85 130.13 397.788C129.876 398.726 129.78 399.536 129.929 399.582C130.077 399.629 130.406 398.902 130.661 397.964C130.915 397.026 130.989 396.229 130.852 396.182Z" fill="#454056"/>
<path d="M132.697 389.379C132.549 389.321 132.231 390.048 131.976 390.986C131.721 391.924 131.626 392.721 131.774 392.78C131.923 392.839 132.252 392.1 132.506 391.162C132.761 390.224 132.846 389.426 132.697 389.379Z" fill="#454056"/>
<path d="M134.545 382.567C134.396 382.567 134.078 383.248 133.823 384.186C133.569 385.124 133.473 385.921 133.622 385.98C133.77 386.039 134.099 385.3 134.354 384.362C134.608 383.423 134.693 382.626 134.545 382.567Z" fill="#454056"/>
<path d="M136.389 375.825C136.241 375.825 135.923 376.505 135.668 377.443C135.413 378.382 135.318 379.179 135.466 379.226C135.615 379.273 135.944 378.557 136.198 377.619C136.453 376.681 136.538 375.825 136.389 375.825Z" fill="#454056"/>
<path d="M138.237 368.965C138.088 368.965 137.77 369.645 137.515 370.583C137.261 371.521 137.165 372.318 137.314 372.365C137.462 372.412 137.791 371.697 138.046 370.759C138.3 369.821 138.417 369.012 138.237 368.965Z" fill="#454056"/>
<path d="M140.082 362.16C139.934 362.16 139.615 362.84 139.361 363.778C139.106 364.716 139.011 365.514 139.159 365.561C139.308 365.608 139.626 364.892 139.891 363.954C140.156 363.016 140.231 362.207 140.082 362.16Z" fill="#454056"/>
<path d="M141.928 355.361C141.78 355.361 141.461 356.041 141.207 356.98C140.952 357.918 140.857 358.715 141.005 358.762C141.154 358.809 141.472 358.094 141.727 357.156C141.981 356.217 142.077 355.408 141.928 355.361Z" fill="#454056"/>
<path d="M143.72 348.56C143.572 348.56 143.254 349.228 142.999 350.178C142.745 351.128 142.649 351.913 142.798 351.96C142.946 352.007 143.264 351.292 143.519 350.354C143.774 349.416 143.922 348.606 143.72 348.56Z" fill="#454056"/>
<path d="M145.621 341.816C145.472 341.816 145.154 342.485 144.889 343.423C144.624 344.361 144.549 345.17 144.698 345.217C144.847 345.264 145.165 344.549 145.419 343.599C145.674 342.649 145.77 341.816 145.621 341.816Z" fill="#454056"/>
<path d="M147.466 334.954C147.317 334.954 146.988 335.623 146.734 336.561C146.479 337.499 146.394 338.308 146.543 338.355C146.691 338.402 147.009 337.675 147.264 336.737C147.519 335.798 147.614 335.001 147.466 334.954Z" fill="#454056"/>
<path d="M149.312 328.155C149.163 328.155 148.834 328.824 148.58 329.762C148.325 330.7 148.24 331.509 148.389 331.556C148.537 331.603 148.856 330.876 149.11 329.938C149.365 329 149.46 328.202 149.312 328.155Z" fill="#454056"/>
<path d="M151.147 321.352C150.998 321.352 150.67 322.02 150.415 322.958C150.16 323.896 150.075 324.705 150.224 324.752C150.372 324.799 150.691 324.072 150.945 323.134C151.2 322.196 151.306 321.398 151.147 321.352Z" fill="#454056"/>
<path d="M153.003 314.549C152.855 314.491 152.526 315.218 152.271 316.156C152.017 317.094 151.932 317.891 152.08 317.95C152.229 318.009 152.547 317.27 152.802 316.332C153.056 315.394 153.152 314.596 153.003 314.549Z" fill="#454056"/>
<path d="M154.849 307.736C154.7 307.736 154.372 308.416 154.117 309.355C153.862 310.293 153.778 311.09 153.926 311.149C154.075 311.207 154.393 310.469 154.647 309.53C154.902 308.592 154.987 307.807 154.849 307.736Z" fill="#454056"/>
<path d="M156.229 302.658C156.081 302.658 155.858 302.94 155.731 303.409C155.603 303.878 155.625 304.288 155.731 304.335C155.837 304.382 156.091 304.054 156.219 303.585C156.346 303.116 156.378 302.705 156.229 302.658Z" fill="#454056"/>
<path d="M175.326 506.345C175.177 506.345 175.039 506.72 175.007 507.201C174.976 507.681 175.092 508.092 175.251 508.104C175.411 508.115 175.538 507.728 175.559 507.236C175.58 506.743 175.485 506.356 175.326 506.345Z" fill="#454056"/>
<path d="M175.549 499.373C175.401 499.373 175.241 500.135 175.21 501.109C175.178 502.082 175.273 502.856 175.432 502.856C175.592 502.856 175.73 502.094 175.761 501.132C175.793 500.17 175.74 499.373 175.549 499.373Z" fill="#454056"/>
<path d="M175.782 492.395C175.634 492.395 175.485 493.157 175.464 494.13C175.443 495.103 175.538 495.877 175.697 495.877C175.857 495.877 175.994 495.103 176.016 494.142C176.037 493.18 175.941 492.395 175.782 492.395Z" fill="#454056"/>
<path d="M175.941 485.401C175.793 485.401 175.655 486.175 175.634 487.137C175.613 488.099 175.719 488.884 175.867 488.896C176.016 488.908 176.164 488.122 176.185 487.16C176.207 486.199 176.1 485.401 175.941 485.401Z" fill="#454056"/>
<path d="M176.101 478.413C175.942 478.413 175.804 479.187 175.783 480.16C175.762 481.134 175.868 481.908 176.016 481.908C176.165 481.908 176.313 481.134 176.335 480.172C176.356 479.211 176.25 478.425 176.101 478.413Z" fill="#454056"/>
<path d="M176.261 471.427C176.112 471.427 175.964 472.201 175.943 473.174C175.921 474.147 176.027 474.921 176.176 474.921C176.325 474.921 176.473 474.147 176.494 473.186C176.516 472.224 176.409 471.438 176.261 471.427Z" fill="#454056"/>
<path d="M176.471 464.446C176.312 464.446 176.164 465.208 176.132 466.182C176.1 467.155 176.206 467.929 176.355 467.941C176.503 467.952 176.662 467.167 176.684 466.205C176.705 465.244 176.609 464.446 176.471 464.446Z" fill="#454056"/>
<path d="M176.736 457.469C176.577 457.469 176.429 458.231 176.386 459.193C176.344 460.154 176.45 460.952 176.598 460.952C176.747 460.952 176.906 460.189 176.949 459.216C176.991 458.243 176.885 457.469 176.736 457.469Z" fill="#454056"/>
<path d="M176.982 450.481C176.833 450.481 176.674 451.255 176.642 452.217C176.611 453.179 176.706 453.964 176.865 453.976C177.024 453.988 177.162 453.202 177.194 452.24C177.226 451.279 177.13 450.493 176.982 450.481Z" fill="#454056"/>
<path d="M177.204 443.502C177.045 443.502 176.897 444.276 176.875 445.238C176.854 446.199 176.939 446.985 177.098 446.997C177.257 447.008 177.395 446.223 177.427 445.261C177.459 444.299 177.353 443.514 177.204 443.502Z" fill="#454056"/>
<path d="M177.395 436.511C177.247 436.511 177.098 437.285 177.077 438.246C177.056 439.208 177.151 439.994 177.3 440.005C177.448 440.017 177.597 439.231 177.629 438.27C177.66 437.308 177.544 436.522 177.395 436.511Z" fill="#454056"/>
<path d="M177.564 429.534C177.405 429.534 177.267 430.308 177.246 431.27C177.225 432.231 177.331 433.017 177.479 433.017C177.628 433.017 177.777 432.243 177.798 431.281C177.819 430.32 177.67 429.534 177.564 429.534Z" fill="#454056"/>
<path d="M177.671 422.545C177.523 422.545 177.385 423.319 177.363 424.292C177.342 425.265 177.459 426.039 177.607 426.039C177.756 426.039 177.904 425.266 177.915 424.304C177.926 423.342 177.851 422.545 177.671 422.545Z" fill="#454056"/>
<path d="M177.798 415.566C177.65 415.566 177.512 416.34 177.501 417.302C177.491 418.264 177.597 419.049 177.756 419.049C177.915 419.049 178.042 418.275 178.053 417.314C178.064 416.352 177.957 415.566 177.798 415.566Z" fill="#454056"/>
<path d="M177.882 408.579C177.723 408.579 177.596 409.353 177.585 410.326C177.575 411.3 177.691 412.074 177.84 412.074C177.989 412.074 178.126 411.288 178.137 410.326C178.148 409.365 178.031 408.579 177.882 408.579Z" fill="#454056"/>
<path d="M177.926 401.625C177.767 401.625 177.639 402.411 177.639 403.372C177.639 404.334 177.756 405.119 177.904 405.119C178.053 405.119 178.18 404.346 178.191 403.372C178.201 402.399 178.074 401.625 177.926 401.625Z" fill="#454056"/>
<path d="M177.936 394.589C177.787 394.589 177.66 395.363 177.66 396.336C177.66 397.309 177.776 398.072 177.936 398.083C178.095 398.095 178.211 397.298 178.211 396.336C178.211 395.375 178.084 394.589 177.936 394.589Z" fill="#454056"/>
<path d="M177.915 387.622C177.766 387.622 177.65 388.408 177.65 389.369C177.65 390.331 177.777 391.117 177.936 391.117C178.095 391.117 178.201 390.331 178.201 389.369C178.201 388.408 178.074 387.622 177.915 387.622Z" fill="#454056"/>
<path d="M177.872 380.631C177.713 380.631 177.596 381.417 177.606 382.378C177.617 383.34 177.744 384.125 177.893 384.125C178.041 384.125 178.169 383.34 178.158 382.378C178.147 381.417 178.02 380.631 177.872 380.631Z" fill="#454056"/>
<path d="M177.787 373.653C177.638 373.653 177.521 374.439 177.532 375.401C177.543 376.362 177.681 377.148 177.829 377.148C177.978 377.148 178.094 376.362 178.084 375.389C178.073 374.416 177.935 373.653 177.787 373.653Z" fill="#454056"/>
<path d="M177.671 366.666C177.523 366.666 177.417 367.463 177.427 368.425C177.438 369.386 177.586 370.16 177.735 370.16C177.883 370.16 178 369.375 177.979 368.413C177.958 367.452 177.83 366.666 177.671 366.666Z" fill="#454056"/>
<path d="M177.534 359.675C177.386 359.675 177.28 360.472 177.301 361.434C177.322 362.395 177.46 363.181 177.608 363.169C177.757 363.158 177.874 362.384 177.852 361.422C177.831 360.461 177.672 359.675 177.534 359.675Z" fill="#454056"/>
<path d="M177.31 352.688C177.161 352.688 177.066 353.485 177.097 354.446C177.129 355.408 177.278 356.194 177.437 356.182C177.596 356.17 177.681 355.396 177.649 354.423C177.617 353.45 177.458 352.688 177.31 352.688Z" fill="#454056"/>
<path d="M176.939 345.719C176.791 345.719 176.716 346.517 176.769 347.478C176.822 348.44 176.992 349.214 177.151 349.202C177.31 349.19 177.374 348.405 177.321 347.431C177.268 346.458 177.098 345.696 176.939 345.719Z" fill="#454056"/>
<path d="M176.365 338.753C176.206 338.753 176.163 339.562 176.248 340.524C176.333 341.485 176.535 342.247 176.683 342.236C176.832 342.224 176.885 341.427 176.8 340.465C176.715 339.504 176.513 338.741 176.365 338.753Z" fill="#454056"/>
<path d="M175.751 333.608C175.602 333.608 175.528 334.041 175.592 334.51C175.655 334.98 175.825 335.367 175.974 335.343C176.122 335.32 176.197 334.909 176.144 334.428C176.091 333.948 175.9 333.537 175.751 333.608Z" fill="#454056"/>
<path d="M199.622 508.425L169.533 508.964L169.766 503.417L199.622 503.593V508.425Z" fill="#454056"/>
<path d="M179.889 300.546C179.782 300.962 179.722 301.392 179.708 301.824C179.634 302.657 179.528 303.853 179.422 305.342C179.21 308.309 178.944 312.379 178.7 316.929C178.573 319.18 178.467 321.338 178.361 323.308C178.379 325.028 178.193 326.743 177.809 328.41C177.496 329.498 176.805 330.405 175.889 330.931C175.544 331.08 175.189 331.198 174.828 331.283C174.929 331.31 175.034 331.31 175.135 331.283C175.433 331.283 175.728 331.224 176.005 331.107C176.514 330.865 176.973 330.51 177.352 330.065C177.732 329.619 178.025 329.091 178.212 328.515C178.661 326.82 178.893 325.063 178.902 323.297C179.019 321.327 179.146 319.169 179.273 316.917C179.528 312.39 179.729 308.298 179.846 305.331C179.91 303.841 179.942 302.645 179.952 301.812C179.983 301.389 179.962 300.963 179.889 300.546Z" fill="#454056"/>
<path d="M176.971 303.328C176.971 303.41 177.204 303.621 177.236 304.114C177.244 304.243 177.229 304.373 177.19 304.496C177.152 304.619 177.092 304.732 177.014 304.829C176.913 304.924 176.789 304.986 176.658 305.007C176.526 305.027 176.392 305.006 176.271 304.946C176.144 304.897 176.033 304.81 175.95 304.693C175.868 304.577 175.817 304.437 175.804 304.289C175.809 304.16 175.838 304.032 175.889 303.915C175.94 303.798 176.012 303.694 176.101 303.609C176.43 303.269 176.77 303.34 176.78 303.246C176.791 303.152 176.43 302.894 175.868 303.246C175.708 303.356 175.573 303.505 175.474 303.682C175.375 303.859 175.313 304.059 175.295 304.266C175.295 304.538 175.369 304.804 175.506 305.029C175.644 305.254 175.84 305.428 176.068 305.529C176.297 305.63 176.547 305.653 176.788 305.595C177.028 305.537 177.247 305.401 177.417 305.204C177.537 305.043 177.621 304.853 177.662 304.649C177.702 304.445 177.698 304.233 177.65 304.031C177.438 303.351 176.971 303.258 176.971 303.328Z" fill="#454056"/>
<path d="M150.193 308.3C150.901 308.831 151.711 309.172 152.559 309.296C154.601 309.75 156.72 309.49 158.621 308.55C160.523 307.611 162.112 306.039 163.168 304.054C163.654 303.274 163.966 302.378 164.08 301.439C163.985 301.439 163.698 302.424 162.839 303.785C161.751 305.616 160.212 307.064 158.404 307.96C156.596 308.855 154.593 309.16 152.633 308.839C151.148 308.64 150.225 308.206 150.193 308.3Z" fill="#454056"/>
<path d="M197.511 300.546C197.372 301.302 197.409 302.085 197.617 302.821C198.002 304.64 198.892 306.281 200.163 307.511C201.442 308.745 203.037 309.507 204.725 309.693C205.411 309.824 206.116 309.76 206.773 309.505C206.773 309.399 205.977 309.505 204.768 309.259C203.196 308.97 201.728 308.207 200.524 307.054C199.339 305.879 198.463 304.372 197.989 302.692C197.628 301.414 197.607 300.546 197.511 300.546Z" fill="#454056"/>
<path d="M201.744 209.463C201.744 209.463 230.092 222.714 230.994 222.21C231.896 221.706 232.533 196.469 232.533 196.469H246.632C246.632 196.469 249.306 233.902 240.808 239.86C229.191 248.069 201.065 230.994 201.065 230.994L201.744 209.463Z" fill="#FFBE9D"/>
<path d="M291.711 150.282L296.596 164.172L283.12 170.102C283.12 170.102 277.567 172.438 273.049 182.353C268.532 192.268 266.848 196.61 266.848 196.61L250.193 145.353L261.786 151.937C264.082 153.218 266.555 154.065 269.103 154.442C272.225 154.921 276.367 155.37 278.583 154.889C283.047 153.675 287.432 152.136 291.711 150.282Z" fill="#1F1B2D"/>
<path d="M143.161 236.926L266.848 196.61L250.193 145.353L131.702 197.96C130.426 198.525 129.391 199.604 128.805 200.978C128.219 202.353 128.126 203.921 128.544 205.369L136.43 232.962C136.871 234.456 137.818 235.703 139.073 236.442C140.328 237.182 141.793 237.355 143.161 236.926Z" fill="#FE9589"/>
<path d="M303.072 149.132C303.157 149.1 303.248 149.092 303.336 149.108C303.425 149.124 303.509 149.164 303.58 149.224C303.652 149.284 303.709 149.362 303.747 149.452C303.785 149.542 303.802 149.641 303.797 149.74C303.682 152.95 303.395 156.149 302.94 159.321C302.755 160.199 295.863 162.076 295.863 162.076L292.708 153.107L303.072 149.132Z" fill="#FE9589"/>
<path d="M150.895 217.098L147.839 208.875L227.02 177.38L229.821 185.693L150.895 217.098Z" fill="#1F1B2D"/>
<path d="M169.119 205.978L186.688 204.418C186.805 202.155 186.688 193.383 186.688 193.383C186.688 193.383 193.998 192.128 194.115 184.001C194.232 175.874 192.937 157.38 192.937 157.38C188.786 155.403 184.232 154.686 179.747 155.305C175.261 155.923 171.006 157.854 167.421 160.898L166.361 161.825L169.119 205.978Z" fill="#FFBE9D"/>
<path d="M191.198 171.302C191.008 171.089 190.9 170.804 190.894 170.505C190.889 170.206 190.987 169.916 191.168 169.694C191.35 169.473 191.601 169.336 191.871 169.312C192.141 169.289 192.408 169.38 192.619 169.567C192.724 169.67 192.808 169.796 192.869 169.936C192.929 170.076 192.964 170.228 192.971 170.382C192.978 170.537 192.957 170.692 192.909 170.838C192.861 170.984 192.788 171.118 192.693 171.232C192.503 171.46 192.239 171.596 191.959 171.609C191.678 171.622 191.405 171.512 191.198 171.302Z" fill="#1F1B2D"/>
<path d="M192.97 169.427C192.853 169.567 192.132 168.958 191.134 168.958C190.137 168.958 189.394 169.52 189.278 169.38C189.161 169.239 189.341 169.063 189.66 168.793C190.091 168.456 190.606 168.275 191.134 168.277C191.665 168.283 192.179 168.481 192.598 168.84C192.917 169.145 193.023 169.427 192.97 169.427Z" fill="#1F1B2D"/>
<path d="M181.374 170.432C181.499 170.509 181.608 170.614 181.696 170.739C181.783 170.865 181.847 171.008 181.883 171.161C181.919 171.314 181.926 171.474 181.905 171.631C181.884 171.787 181.834 171.937 181.759 172.072C181.683 172.207 181.584 172.323 181.467 172.414C181.35 172.505 181.218 172.569 181.078 172.602C180.938 172.636 180.793 172.637 180.653 172.607C180.512 172.576 180.379 172.515 180.26 172.426C180.022 172.263 179.851 172.003 179.786 171.702C179.72 171.401 179.765 171.084 179.91 170.819C179.983 170.687 180.079 170.572 180.192 170.481C180.305 170.39 180.433 170.325 180.569 170.289C180.705 170.253 180.846 170.247 180.985 170.272C181.123 170.296 181.255 170.351 181.374 170.432Z" fill="#1F1B2D"/>
<path d="M182.032 170.446C181.926 170.586 181.205 169.977 180.197 169.965C179.189 169.953 178.457 170.539 178.351 170.399C178.245 170.258 178.404 170.082 178.722 169.812C179.153 169.466 179.675 169.285 180.207 169.296C180.736 169.304 181.249 169.497 181.671 169.848C181.979 170.129 182.096 170.387 182.032 170.446Z" fill="#1F1B2D"/>
<path d="M186.073 179.615C186.592 179.391 187.14 179.264 187.696 179.24C187.962 179.24 188.163 179.146 188.184 178.982C188.195 178.691 188.133 178.403 188.004 178.149C187.739 177.422 187.474 176.671 187.198 175.886C186.447 173.976 185.872 171.988 185.479 169.952C186.405 171.767 187.162 173.68 187.739 175.663C187.993 176.449 188.248 177.199 188.492 178.008C188.653 178.372 188.705 178.783 188.641 179.181C188.601 179.291 188.539 179.389 188.46 179.468C188.381 179.547 188.287 179.606 188.184 179.638C188.039 179.68 187.889 179.704 187.739 179.709C187.183 179.787 186.619 179.755 186.073 179.615Z" fill="#1F1B2D"/>
<path d="M182.806 180.847C181.745 180.155 185.691 182.547 187.739 182.43C187.391 183.007 186.877 183.437 186.28 183.649C185.682 183.862 185.038 183.846 184.45 183.602C182.265 182.77 182.806 180.847 182.806 180.847Z" fill="white"/>
<path d="M186.667 193.267C183.286 193.343 179.961 192.302 177.119 190.276C177.119 190.276 179.368 196.14 186.667 195.366V193.267Z" fill="#EB996E"/>
<path d="M166.255 169.706C166.096 169.647 160.813 169.26 161.683 176.062C162.552 182.863 168.494 179.65 168.483 179.451C168.472 179.251 166.255 169.706 166.255 169.706Z" fill="#FFBE9D"/>
<path d="M166.287 177.352C166.287 177.352 166.192 177.457 166.022 177.575C165.903 177.656 165.77 177.71 165.632 177.734C165.493 177.758 165.352 177.752 165.216 177.715C164.781 177.502 164.407 177.162 164.133 176.733C163.858 176.304 163.694 175.8 163.656 175.276C163.568 174.695 163.593 174.099 163.731 173.529C163.762 173.308 163.84 173.099 163.961 172.919C164.081 172.74 164.238 172.595 164.42 172.497C164.539 172.442 164.672 172.435 164.795 172.475C164.919 172.516 165.026 172.602 165.099 172.72C165.205 172.896 165.184 173.036 165.216 173.048C165.248 173.06 165.332 172.919 165.216 172.638C165.163 172.473 165.057 172.335 164.919 172.251C164.73 172.139 164.511 172.109 164.303 172.169C164.065 172.26 163.85 172.415 163.678 172.62C163.506 172.824 163.382 173.072 163.317 173.341C163.134 173.974 163.09 174.645 163.189 175.3C163.237 175.912 163.448 176.495 163.795 176.976C164.143 177.456 164.611 177.811 165.142 177.997C165.314 178.025 165.489 178.009 165.655 177.95C165.82 177.891 165.971 177.79 166.096 177.657C166.298 177.528 166.308 177.364 166.287 177.352Z" fill="#EB996E"/>
<path d="M192.863 157.183C190.964 162.73 183.686 164.923 178.339 165.251C180.811 162.847 179.283 163.351 180.811 161.663C176.685 165.607 171.412 167.776 165.958 167.772C165.548 166.403 165.392 164.956 165.497 163.518C165.602 162.08 165.967 160.68 166.571 159.4C167.174 158.121 168.004 156.989 169.01 156.07C170.016 155.151 171.179 154.465 172.429 154.051C174.074 153.5 175.824 153.453 177.501 153.019C178.912 152.656 180.27 152.034 181.744 151.847C186.052 151.143 193.043 149.853 192.927 157.23" fill="#1F1B2D"/>
<path d="M169.183 164.735C168.907 165.521 167.369 174.691 167.369 174.691L165.502 165.849L169.183 164.735Z" fill="#1F1B2D"/>
<path d="M116.931 278.148C114.106 274.557 112.558 269.954 112.573 265.195C112.589 260.436 114.168 255.846 117.016 252.278L145.386 216.721L152.982 240.175C152.463 240.55 130.894 266.116 130.894 266.116L149.428 291.658C150.836 293.594 151.776 295.892 152.162 298.339C152.548 300.785 152.367 303.3 151.635 305.648L146.68 319.053L133.111 312.333L134.172 310.585H144.346L144.951 307.888L116.931 278.148Z" fill="#FFBE9D"/>
<path d="M130.375 231.754L148.294 211.817C151.747 207.828 155.993 204.785 160.696 202.928C163.19 201.944 165.806 201.39 168.452 201.286C174.544 203.421 181.085 203.421 187.178 201.286C192.307 201.905 197.302 203.492 201.946 205.977L228.692 217.974L220.109 244.126L205.755 238.79L204.906 263.417L207.749 300.206L152.209 300.768L152.93 267.393V243.258L144.91 251.878L130.375 231.754Z" fill="#454056"/>
<path opacity="0.2" d="M60.7559 501.7C75.2773 490.487 78.5764 469.675 77.9983 450.959C77.8996 447.842 78.2098 444.546 76.8704 441.804C75.5311 439.061 72.3871 437.191 69.8212 438.508C67.7064 439.598 66.8112 442.302 65.634 444.531C64.0692 447.514 61.7717 449.945 59.0077 451.543C57.2101 452.572 54.9896 453.203 53.2132 452.12C50.7742 450.64 50.4852 446.915 50.5063 443.806C50.5345 438.019 50.5651 432.23 50.5979 426.438C50.5979 423.321 50.5979 420.165 49.752 417.212C48.9061 414.259 46.9323 411.532 44.2748 410.698C41.6172 409.864 38.297 411.579 37.7331 414.594C37.4934 415.856 37.7331 417.173 37.6485 418.49C37.5639 419.807 37.0282 421.209 35.9214 421.607C34.8147 422.004 33.6727 421.093 32.8339 420.181C29.9366 417.064 27.9699 413.005 26.13 408.984C24.2902 404.963 22.5067 400.857 19.8703 397.436C17.2339 394.016 13.5965 391.304 9.57845 391.055C5.56039 390.805 1.26035 393.548 0.245262 397.912C-0.769828 402.275 1.53527 406.732 4.05185 410.277C7.80615 415.52 12.2272 420.134 17.1775 423.976C18.0587 424.677 19.0244 425.425 19.3628 426.578C19.969 428.643 18.1926 430.7 16.3457 431.386C14.2309 432.165 11.9822 431.916 9.78993 432.165C7.59761 432.414 5.19383 433.591 4.36907 435.843C3.21299 439.045 5.61678 442.341 8.01352 444.5C12.7494 448.86 18.129 452.286 23.9166 454.629C25.9891 455.471 28.1461 456.187 29.8309 457.808C31.5157 459.429 28.9074 465.094 27.8994 467.283C26.8914 469.473 27.8994 467.283 25.7353 466.839C23.5712 466.395 21.6326 465.094 19.5672 464.236C15.7113 462.624 10.7204 462.92 8.24614 466.574C6.62482 468.997 6.47679 472.379 7.30155 475.27C8.12631 478.161 9.78993 480.646 11.5311 482.945C17.7203 490.971 25.6296 497.43 34.6032 500.866C43.5769 504.303 51.8598 505.23 60.7629 501.646" fill="#07C98B"/>
<path d="M60.982 515.57C60.1941 506.896 58.6575 498.325 56.393 489.974C53.5812 479.782 50.2438 469.776 46.3972 460.006L43.4083 452.292C42.4214 449.768 41.4486 447.259 40.356 444.874C38.2587 440.302 35.9336 435.861 33.3914 431.574C30.9805 427.459 28.5627 423.649 26.2787 420.104C23.9948 416.558 21.7884 413.317 19.6736 410.442C16.3482 405.898 12.7017 401.654 8.76846 397.749C7.35862 396.362 6.27304 395.325 5.51877 394.632L4.65172 393.853C4.55698 393.755 4.453 393.669 4.34155 393.596C4.42291 393.705 4.51512 393.805 4.61647 393.892L5.44828 394.718C6.1532 395.435 7.26698 396.494 8.63453 397.905C12.4948 401.873 16.0833 406.152 19.3705 410.707C21.4853 413.59 23.6 416.847 25.9051 420.392C28.2102 423.937 30.5787 427.755 32.9543 431.87C35.4831 436.142 37.7987 440.564 39.8908 445.116C40.9763 447.453 41.9421 449.97 42.9219 452.51L45.9037 460.209C49.7557 469.964 53.1094 479.951 55.9489 490.122C58.2281 498.437 59.7953 506.97 60.6296 515.609" fill="#07C98B"/>
<path d="M40.2081 444.858C40.3449 444.429 40.4372 443.985 40.483 443.533C40.6311 442.676 40.8073 441.43 41.0047 439.879C41.3995 436.762 41.8154 432.492 42.2595 427.763C42.7036 423.033 43.1759 418.786 43.6129 415.669C43.8314 414.111 44.0147 412.888 44.1557 412.023C44.2531 411.581 44.3051 411.129 44.3108 410.675C44.1533 411.094 44.0352 411.53 43.9583 411.976C43.7609 412.825 43.5142 414.064 43.2534 415.599C42.7247 418.669 42.189 422.955 41.7519 427.692C41.3149 432.43 40.9342 436.599 40.6381 439.824C40.4971 441.282 40.3773 442.505 40.2857 443.494C40.2138 443.944 40.1878 444.402 40.2081 444.858Z" fill="#07C98B"/>
<path d="M4.07983 437.395C4.54335 437.508 5.0153 437.573 5.48968 437.59C6.42017 437.676 7.75952 437.8 9.41609 438.019C12.7222 438.408 17.276 439.133 22.2668 440.169C27.2576 441.205 31.7409 442.382 34.9554 443.333C36.5696 443.792 37.8667 444.197 38.7619 444.478C39.2199 444.654 39.6919 444.782 40.1718 444.86C39.739 444.613 39.2858 444.412 38.8183 444.26C37.9372 443.917 36.6542 443.481 35.0541 442.935C31.8467 441.883 27.3634 440.66 22.3655 439.6C17.3676 438.541 12.7786 437.902 9.45133 437.606C7.78772 437.45 6.43427 437.387 5.50377 437.364C5.02923 437.328 4.5527 437.338 4.07983 437.395Z" fill="#07C98B"/>
<path d="M55.9485 489.232C55.9485 489.232 56.0542 489.077 56.2023 488.749L56.8155 487.3C57.3513 486.046 58.0773 484.183 58.9303 481.916C60.6714 477.342 62.899 470.937 65.2746 463.839C67.6501 456.74 69.8213 450.312 71.4708 445.707L73.4446 440.252C73.656 439.66 73.8323 439.169 73.9733 438.764C74.046 438.596 74.0982 438.418 74.1283 438.234C74.0278 438.383 73.9449 438.545 73.8816 438.717L73.2613 440.159C72.7326 441.421 72.0065 443.276 71.1465 445.551C69.4054 450.125 67.1778 456.53 64.8023 463.636C62.4267 470.742 60.2626 477.155 58.606 481.76C57.7954 484.004 57.1328 485.843 56.6323 487.214C56.4208 487.806 56.2446 488.297 56.1036 488.703C56.0349 488.873 55.9829 489.05 55.9485 489.232Z" fill="#07C98B"/>
<path d="M7.93579 472.129C8.08511 472.227 8.2466 472.301 8.41514 472.347L9.82499 472.869L14.9709 474.708C19.3062 476.266 25.284 478.487 31.8891 480.942C38.4943 483.396 44.4791 485.578 48.8567 487.035C51.0419 487.767 52.8113 488.336 54.0449 488.702L55.4548 489.115C55.616 489.177 55.7848 489.211 55.9553 489.217C55.8072 489.121 55.6484 489.048 55.483 488.998L54.0731 488.484L48.9342 486.645C44.5919 485.087 38.6212 482.866 32.016 480.412C25.4109 477.957 19.4261 475.776 15.0626 474.318C12.8773 473.586 11.1009 473.017 9.86729 472.651L8.45744 472.238C8.28768 472.181 8.11275 472.144 7.93579 472.129Z" fill="#07C98B"/>
</svg>
