<svg width="64" height="73" viewBox="0 0 64 73" fill="none" xmlns="http://www.w3.org/2000/svg">
<path d="M35.9564 51.3105L31.7725 55.4945C34.1586 58.2325 38.3178 58.3393 40.8421 55.8149C40.8527 55.8044 40.8631 55.7938 40.8737 55.7832C41.7168 54.9281 41.1901 53.4946 40.0017 53.3211C38.5144 53.1041 37.0249 52.3791 35.9564 51.3105Z" fill="url(#paint0_linear_4123_87114)"/>
<path d="M33.4338 53.8369L44.0577 64.4607C45.7828 66.1859 45.7828 68.9829 44.0577 70.708C42.3325 72.4332 39.5355 72.4332 37.8103 70.708L27.1865 60.0842L33.4338 53.8369Z" fill="url(#paint1_linear_4123_87114)"/>
<path opacity="0.07" d="M27.1865 60.0844L27.8214 60.7192C29.4343 62.3321 32.0386 62.3426 33.6775 60.7561C33.7499 60.686 33.8218 60.6153 33.8932 60.5437L34.621 59.816L41.6614 66.8564C42.9621 68.1572 43.2811 70.0675 42.6205 71.6679C43.1431 71.4523 43.6329 71.1327 44.0575 70.708C45.7826 68.9829 45.7826 66.1859 44.0575 64.4607L33.4337 53.8369L27.1865 60.0844Z" fill="black"/>
<path d="M41.4389 37.1043C49.5713 37.1043 56.1639 30.5117 56.1639 22.3793C56.1639 14.2469 49.5713 7.6543 41.4389 7.6543C33.3065 7.6543 26.7139 14.2469 26.7139 22.3793C26.7139 30.5117 33.3065 37.1043 41.4389 37.1043Z" fill="url(#paint2_linear_4123_87114)"/>
<path opacity="0.05" d="M30.4717 12.5547L51.2644 33.3474C51.4635 33.1687 51.6592 32.9842 51.8506 32.7928C53.945 30.6983 55.2757 28.13 55.8444 25.4329L38.3862 7.97461C35.6893 8.54339 33.1208 9.87409 31.0263 11.9684C30.8349 12.16 30.6504 12.3556 30.4717 12.5547Z" fill="black"/>
<path d="M16.1521 21.6336L16.1555 21.6346L5.56978 32.2203C-1.61831 39.4084 -1.61831 51.0625 5.56978 58.2506C12.7579 65.4386 24.412 65.4386 31.6001 58.2506L42.1858 47.6649L42.1867 47.6682C46.4286 43.5353 52.1702 41.8559 57.6309 42.6318L60.2333 40.0294L23.7909 3.58691L21.1886 6.18929C21.9645 11.6501 20.2851 17.3916 16.1521 21.6336Z" fill="url(#paint3_linear_4123_87114)"/>
<path opacity="0.07" d="M23.7922 3.58691L60.2347 40.0294L57.6327 42.6313C54.4497 42.1785 51.171 42.5605 48.1493 43.7767L20.0449 15.6723C21.2611 12.6506 21.6431 9.37189 21.1903 6.18887L23.7922 3.58691Z" fill="black"/>
<path d="M11.0352 59.0295L8.12906 61.9357C6.40393 63.6609 3.60687 63.6609 1.88174 61.9357C0.156608 60.2106 0.156608 57.4135 1.88174 55.6884L4.78792 52.7822L11.0352 59.0295Z" fill="url(#paint4_linear_4123_87114)"/>
<path d="M32.1556 57.6943L6.12516 31.6641L5.56978 32.2194C-1.61831 39.4075 -1.61831 51.0616 5.56978 58.2497C12.7579 65.4378 24.412 65.4378 31.6001 58.2497L32.1556 57.6943Z" fill="url(#paint5_linear_4123_87114)"/>
<path d="M56.2761 42.9433L20.8749 7.54214C19.1498 5.81701 19.1498 3.01996 20.8749 1.29482C22.6 -0.430306 25.3971 -0.430306 27.1222 1.29482L62.5234 36.696C64.2485 38.4211 64.2485 41.2182 62.5234 42.9433C60.7983 44.6685 58.0012 44.6685 56.2761 42.9433Z" fill="url(#paint6_linear_4123_87114)"/>
<path d="M51.5631 7.00918C50.7834 7.00918 50.1514 6.37715 50.1514 5.59746V1.92442C50.1514 1.14473 50.7834 0.512695 51.5631 0.512695C52.3428 0.512695 52.9748 1.14473 52.9748 1.92442V5.59746C52.9748 6.37715 52.3428 7.00918 51.5631 7.00918Z" fill="url(#paint7_linear_4123_87114)"/>
<path d="M61.8924 13.6643H58.2193C57.4396 13.6643 56.8076 13.0322 56.8076 12.2525C56.8076 11.4729 57.4396 10.8408 58.2193 10.8408H61.8924C62.6721 10.8408 63.3041 11.4729 63.3041 12.2525C63.3041 13.0322 62.6721 13.6643 61.8924 13.6643Z" fill="url(#paint8_linear_4123_87114)"/>
<path d="M55.2719 8.54712C54.7206 7.99584 54.7205 7.10193 55.2719 6.55065L57.8691 3.9535C58.4204 3.40222 59.3143 3.40222 59.8655 3.9535C60.4168 4.50478 60.417 5.39868 59.8655 5.94996L57.2684 8.54712C56.7171 9.0984 55.8232 9.0984 55.2719 8.54712Z" fill="url(#paint9_linear_4123_87114)"/>
<defs>
<linearGradient id="paint0_linear_4123_87114" x1="39.5" y1="50" x2="36.5" y2="56.5" gradientUnits="userSpaceOnUse">
<stop stop-color="#FFF3D9"/>
<stop offset="0.624369" stop-color="#FFCC60"/>
<stop offset="1" stop-color="#FDBC31"/>
</linearGradient>
<linearGradient id="paint1_linear_4123_87114" x1="27.1361" y1="62.9194" x2="45.1063" y2="62.9194" gradientUnits="userSpaceOnUse">
<stop stop-color="white"/>
<stop offset="0.416032" stop-color="#F5F4F8"/>
<stop offset="1" stop-color="#EFECF3"/>
</linearGradient>
<linearGradient id="paint2_linear_4123_87114" x1="28.7777" y1="22.3793" x2="56.0097" y2="22.3793" gradientUnits="userSpaceOnUse">
<stop stop-color="#FFF3D9"/>
<stop offset="0.624369" stop-color="#FFCC60"/>
<stop offset="1" stop-color="#FDBC31"/>
</linearGradient>
<linearGradient id="paint3_linear_4123_87114" x1="0.0118927" y1="33.6143" x2="59.4225" y2="33.6143" gradientUnits="userSpaceOnUse">
<stop stop-color="white"/>
<stop offset="0.416032" stop-color="#F5F4F8"/>
<stop offset="1" stop-color="#EFECF3"/>
</linearGradient>
<linearGradient id="paint4_linear_4123_87114" x1="0.135547" y1="58.0059" x2="9.56132" y2="58.0059" gradientUnits="userSpaceOnUse">
<stop stop-color="#FF9AA1"/>
<stop offset="1" stop-color="#F23C49"/>
</linearGradient>
<linearGradient id="paint5_linear_4123_87114" x1="-1.20581" y1="47.6524" x2="27.6443" y2="47.6524" gradientUnits="userSpaceOnUse">
<stop stop-color="#FF9AA1"/>
<stop offset="1" stop-color="#F23C49"/>
</linearGradient>
<linearGradient id="paint6_linear_4123_87114" x1="17.6657" y1="22.1191" x2="57.5764" y2="22.1191" gradientUnits="userSpaceOnUse">
<stop stop-color="#FF9AA1"/>
<stop offset="1" stop-color="#F23C49"/>
</linearGradient>
<linearGradient id="paint7_linear_4123_87114" x1="50.3492" y1="3.76094" x2="52.96" y2="3.76094" gradientUnits="userSpaceOnUse">
<stop stop-color="#FFF3D9"/>
<stop offset="0.624369" stop-color="#FFCC60"/>
<stop offset="1" stop-color="#FDBC31"/>
</linearGradient>
<linearGradient id="paint8_linear_4123_87114" x1="57.2629" y1="12.2525" x2="63.2701" y2="12.2525" gradientUnits="userSpaceOnUse">
<stop stop-color="#FFF3D9"/>
<stop offset="0.624369" stop-color="#FFCC60"/>
<stop offset="1" stop-color="#FDBC31"/>
</linearGradient>
<linearGradient id="paint9_linear_4123_87114" x1="55.2383" y1="6.25031" x2="60.2507" y2="6.25031" gradientUnits="userSpaceOnUse">
<stop stop-color="#FFF3D9"/>
<stop offset="0.624369" stop-color="#FFCC60"/>
<stop offset="1" stop-color="#FDBC31"/>
</linearGradient>
</defs>
</svg>
