<svg width="72" height="88" viewBox="0 0 72 88" fill="none" xmlns="http://www.w3.org/2000/svg">
<path d="M69.3246 87.905C71.4395 87.905 72.7251 85.5511 71.5597 83.7862C69.8419 81.1848 66.8932 79.4687 63.5423 79.4687C62.6819 79.4687 61.8488 79.5835 61.0554 79.7956C58.8901 75.8066 54.6649 73.0984 49.8071 73.0984C49.3367 73.0984 48.8727 73.1256 48.4155 73.175V68.7041H23.5886V74.3483C19.0194 74.368 15.0451 76.8584 12.9751 80.5946C11.6294 79.8769 10.0935 79.4687 8.46165 79.4687C5.11089 79.4687 2.16215 81.1848 0.44424 83.7862C-0.721002 85.5511 0.564759 87.905 2.67952 87.905H69.3246Z" fill="url(#paint0_linear_4123_87187)"/>
<path opacity="0.07" d="M49.8044 73.0984C49.328 73.0984 48.8582 73.1261 48.3956 73.1776V70.0424V68.7041H23.5859V74.3483H44.5935C48.9227 74.3483 52.9198 76.8448 54.6532 80.8117C54.7044 80.9286 54.7534 81.0466 54.801 81.1657C54.8576 81.3083 54.9118 81.452 54.9635 81.597C55.2601 82.4298 56.3067 82.6951 56.9498 82.0884C58.0897 81.0125 59.4929 80.2128 61.0529 79.7956C58.8874 75.8066 54.6622 73.0984 49.8044 73.0984Z" fill="black"/>
<path opacity="0.07" d="M10.9 85.4377C11.2366 85.4377 11.519 85.1878 11.5639 84.8542C11.7695 83.327 12.2574 81.8894 12.9741 80.5957C11.6285 79.8779 10.0926 79.4697 8.46073 79.4697C7.24608 79.4697 6.08531 79.6975 5.01562 80.1088C7.35265 81.0074 9.24961 82.7924 10.294 85.0522C10.4031 85.288 10.6404 85.4377 10.9 85.4377Z" fill="black"/>
<path d="M14.1185 42.5484L11.2043 45.4626C7.40679 49.2601 5.27344 54.4106 5.27344 59.781C5.27344 61.6455 6.78491 63.1569 8.64933 63.1569H22.2022V39.9141H20.4782C18.0928 39.9142 15.8052 40.8619 14.1185 42.5484Z" fill="url(#paint1_linear_4123_87187)"/>
<path d="M57.8884 42.5484L60.8025 45.4626C64.6001 49.2601 66.7334 54.4106 66.7334 59.781C66.7334 61.6455 65.222 63.1569 63.3575 63.1569H49.8047V39.9141H51.5286C53.914 39.9142 56.2016 40.8619 57.8884 42.5484Z" fill="url(#paint2_linear_4123_87187)"/>
<path d="M54.4236 30.8702V59.9546H17.5859V30.8702C17.5859 21.3873 21.3532 12.293 28.059 5.58801L31.8138 1.83351C34.1286 -0.480962 37.8812 -0.480962 40.1961 1.83351L43.9509 5.58801C50.6564 12.2931 54.4236 21.3875 54.4236 30.8702Z" fill="url(#paint3_linear_4123_87187)"/>
<path opacity="0.07" d="M43.9497 5.58731L40.1948 1.83281C38.1147 -0.246997 34.8741 -0.4567 32.5586 1.20146C32.8198 1.38861 33.0699 1.59814 33.3046 1.83281L37.0594 5.58731C43.7651 12.2924 47.5325 21.3868 47.5325 30.8695V59.9539H54.4227V30.8695C54.4226 21.3868 50.6553 12.2924 43.9497 5.58731Z" fill="black"/>
<path d="M31.813 1.83351L28.0582 5.58801C23.9903 9.65551 21.0063 14.603 19.2861 19.9822H52.7221C51.002 14.603 48.018 9.65534 43.9501 5.58801L40.1953 1.83351C37.8804 -0.480962 34.1278 -0.480962 31.813 1.83351Z" fill="url(#paint4_linear_4123_87187)"/>
<path d="M36.0063 52.9189C43.5605 52.9189 49.6844 46.7949 49.6844 39.2407C49.6844 31.6864 43.5605 25.5625 36.0063 25.5625C28.452 25.5625 22.3281 31.6864 22.3281 39.2407C22.3281 46.7949 28.452 52.9189 36.0063 52.9189Z" fill="url(#paint5_linear_4123_87187)"/>
<path opacity="0.05" d="M36.0076 25.5625C34.8176 25.5625 33.6632 25.715 32.5625 26.0007C38.449 27.528 42.7956 32.8764 42.7956 39.2407C42.7956 45.6049 38.4488 50.9533 32.5625 52.4806C33.6632 52.7663 34.8176 52.9188 36.0076 52.9188C43.5619 52.9188 49.6858 46.7949 49.6858 39.2407C49.6858 31.6866 43.5619 25.5625 36.0076 25.5625Z" fill="black"/>
<path d="M36.0031 47.1077C40.3454 47.1077 43.8655 43.5876 43.8655 39.2453C43.8655 34.903 40.3454 31.3828 36.0031 31.3828C31.6608 31.3828 28.1406 34.903 28.1406 39.2453C28.1406 43.5876 31.6608 47.1077 36.0031 47.1077Z" fill="url(#paint6_linear_4123_87187)"/>
<path opacity="0.1" d="M36.0045 31.3828C35.2577 31.3828 34.5359 31.4892 33.8516 31.6838C37.1467 32.6204 39.5609 35.6499 39.5609 39.2453C39.5609 42.8407 37.1467 45.8702 33.8516 46.8068C34.5361 47.0013 35.2577 47.1077 36.0045 47.1077C40.3468 47.1077 43.867 43.5876 43.867 39.2453C43.867 34.903 40.3468 31.3828 36.0045 31.3828Z" fill="black"/>
<path d="M17.5859 58.0195V65.914C17.5859 68.1953 19.4352 70.0445 21.7165 70.0445H50.2933C52.5746 70.0445 54.4238 68.1953 54.4238 65.914V58.0195H17.5859Z" fill="url(#paint7_linear_4123_87187)"/>
<path opacity="0.1" d="M47.5312 70.0367H50.2909C52.5722 70.0367 54.4215 68.1874 54.4215 65.9062V58.0117H47.5312V70.0367Z" fill="black"/>
<path opacity="0.1" d="M43.9497 5.58731L40.1948 1.83281C38.1147 -0.246997 34.8741 -0.4567 32.5586 1.20146C32.8198 1.38861 33.0699 1.59814 33.3046 1.83281L37.0594 5.58731C41.1273 9.65481 44.1113 14.6023 45.8315 19.9815H52.7217C51.0015 14.6023 48.0175 9.65481 43.9497 5.58731Z" fill="black"/>
<defs>
<linearGradient id="paint0_linear_4123_87187" x1="36" y1="72.5" x2="36" y2="95.5" gradientUnits="userSpaceOnUse">
<stop stop-color="white"/>
<stop offset="0.416032" stop-color="#F5F4F8"/>
<stop offset="1" stop-color="#EFECF3"/>
</linearGradient>
<linearGradient id="paint1_linear_4123_87187" x1="4.54047" y1="51.5355" x2="19.8138" y2="51.5355" gradientUnits="userSpaceOnUse">
<stop stop-color="#FF9AA1"/>
<stop offset="1" stop-color="#F23C49"/>
</linearGradient>
<linearGradient id="paint2_linear_4123_87187" x1="49.0717" y1="51.5355" x2="64.3451" y2="51.5355" gradientUnits="userSpaceOnUse">
<stop stop-color="#FF9AA1"/>
<stop offset="1" stop-color="#F23C49"/>
</linearGradient>
<linearGradient id="paint3_linear_4123_87187" x1="17.4836" y1="30.0261" x2="53.9263" y2="30.0261" gradientUnits="userSpaceOnUse">
<stop stop-color="white"/>
<stop offset="0.416032" stop-color="#F5F4F8"/>
<stop offset="1" stop-color="#EFECF3"/>
</linearGradient>
<linearGradient id="paint4_linear_4123_87187" x1="17.8384" y1="10.04" x2="48.005" y2="10.04" gradientUnits="userSpaceOnUse">
<stop stop-color="#FF9AA1"/>
<stop offset="1" stop-color="#F23C49"/>
</linearGradient>
<linearGradient id="paint5_linear_4123_87187" x1="19.5039" y1="39" x2="49.5412" y2="39.2407" gradientUnits="userSpaceOnUse">
<stop stop-color="#FFF3D9"/>
<stop offset="0.605748" stop-color="#FFCC60"/>
<stop offset="1" stop-color="#FDBC31"/>
</linearGradient>
<linearGradient id="paint6_linear_4123_87187" x1="28.19" y1="39.2453" x2="43.6367" y2="39.2453" gradientUnits="userSpaceOnUse">
<stop stop-color="#3BCFFE"/>
<stop offset="1" stop-color="#3C76F2"/>
</linearGradient>
<linearGradient id="paint7_linear_4123_87187" x1="15.991" y1="64.032" x2="49.2267" y2="64.032" gradientUnits="userSpaceOnUse">
<stop stop-color="#FF9AA1"/>
<stop offset="1" stop-color="#F23C49"/>
</linearGradient>
</defs>
</svg>
