<svg width="72" height="72" viewBox="0 0 72 72" fill="none" xmlns="http://www.w3.org/2000/svg">
<path d="M35.9989 71.9977C55.8805 71.9977 71.9977 55.8805 71.9977 35.9989C71.9977 16.1172 55.8805 0 35.9989 0C16.1172 0 0 16.1172 0 35.9989C0 55.8805 16.1172 71.9977 35.9989 71.9977Z" fill="url(#paint0_linear_4123_87154)"/>
<path opacity="0.1" d="M35.998 0C35.0472 0 34.1052 0.0375518 33.1729 0.109832C41.4365 0.751318 48.9159 4.18476 54.6732 9.46559L53.4095 10.7294C52.2853 11.8535 51.8307 13.4835 52.2108 15.0272L53.3538 19.6692L35.2671 37.7562L33.5275 36.0165V40.5517H33.529C33.5372 41.173 33.7769 41.7919 34.2511 42.2661C34.7335 42.7484 35.3658 42.9896 35.9981 42.9896C36.6304 42.9896 37.2628 42.7484 37.7451 42.2661L55.4783 24.5327L60.1204 25.6758C61.6641 26.0558 63.2941 25.6013 64.4182 24.4771L64.4503 24.4451C65.6786 28.0718 66.3468 31.9571 66.3468 35.9989C66.3468 54.9296 51.734 70.4468 33.173 71.8879C34.1052 71.9602 35.0472 71.9977 35.998 71.9977C55.8797 71.9977 71.9969 55.8806 71.9969 35.9989C71.9969 16.1172 55.8797 0 35.998 0Z" fill="black"/>
<path d="M35.9969 40.236C38.3359 40.236 40.232 38.3398 40.232 36.0008C40.232 33.6618 38.3359 31.7656 35.9969 31.7656C33.6579 31.7656 31.7617 33.6618 31.7617 36.0008C31.7617 38.3398 33.6579 40.236 35.9969 40.236Z" fill="url(#paint1_linear_4123_87154)"/>
<path d="M35.9969 10.5898C21.9629 10.5898 10.5859 21.9668 10.5859 36.0008C10.5859 50.0349 21.9629 61.4118 35.9969 61.4118C50.031 61.4118 61.4079 50.0349 61.4079 36.0008C61.4079 21.9668 50.031 10.5898 35.9969 10.5898ZM35.9969 50.8239C27.8103 50.8239 21.1738 44.1874 21.1738 36.0008C21.1738 27.8142 27.8103 21.1777 35.9969 21.1777C44.1835 21.1777 50.82 27.8142 50.82 36.0008C50.82 44.1874 44.1835 50.8239 35.9969 50.8239Z" fill="url(#paint2_linear_4123_87154)"/>
<path d="M35.2705 37.7567L33.5312 36.0161V39.4381C34.2258 39.9392 35.0799 40.2343 36.0018 40.2343C38.341 40.2343 40.2369 38.3383 40.2369 35.9991C40.2369 35.0928 39.9518 34.2514 39.4647 33.5625L35.2705 37.7567Z" fill="url(#paint3_linear_4123_87154)"/>
<path opacity="0.1" d="M52.6506 16.8008L53.3579 19.6694L46.9854 26.0419C48.1176 27.2913 49.0408 28.7355 49.6973 30.318L55.4825 24.5328L59.1163 25.4278C57.5944 22.1046 55.3766 19.1668 52.6506 16.8008Z" fill="black"/>
<path d="M70.4995 9.65328L63.9564 8.04208L62.3452 1.4989C61.9787 0.0105217 60.1265 -0.506168 59.0424 0.577751L52.0414 7.57875C50.9173 8.70291 50.4627 10.3329 50.8427 11.8766L52.6761 19.3221L60.1217 21.1556C61.6654 21.5356 63.2954 21.081 64.4195 19.9569L71.4205 12.9559C72.5045 11.8719 71.9879 10.0198 70.4995 9.65328Z" fill="url(#paint4_linear_4123_87154)"/>
<path d="M70.4995 9.65328L63.9564 8.04208L62.3452 1.4989C61.9787 0.0105217 60.1265 -0.506168 59.0424 0.577751L52.0414 7.57875C50.9173 8.70291 50.4627 10.3329 50.8427 11.8766L52.6761 19.3221L60.1217 21.1556C61.6654 21.5356 63.2954 21.081 64.4195 19.9569L71.4205 12.9559C72.5045 11.8719 71.9879 10.0198 70.4995 9.65328Z" fill="url(#paint5_linear_4123_87154)"/>
<path d="M70.4995 9.65328L63.9564 8.04208L62.3452 1.4989C61.9787 0.0105217 60.1265 -0.506168 59.0424 0.577751L55.0999 4.52083C53.9758 5.64499 53.5212 7.2751 53.9012 8.81868L55.7346 16.2642L63.1802 18.0976C64.7239 18.4777 66.3539 18.0231 67.478 16.8989L71.4205 12.9559C72.5045 11.8719 71.9879 10.0198 70.4995 9.65328Z" fill="url(#paint6_linear_4123_87154)"/>
<path d="M70.499 9.65413L63.9558 8.04294L62.3446 1.49975C61.9781 0.011516 60.1264 -0.505745 59.0424 0.577751L58.1584 1.4622C57.0343 2.58635 56.5797 4.21633 56.9597 5.76004L58.7931 13.2056L66.2387 15.039C67.7824 15.419 69.4124 14.9645 70.5365 13.8403L71.42 12.9569C72.5039 11.8728 71.9874 10.0206 70.499 9.65413Z" fill="url(#paint7_linear_4123_87154)"/>
<path d="M35.9979 38.4705C35.3656 38.4705 34.7334 38.2294 34.2509 37.747C33.2862 36.7822 33.2862 35.2179 34.2509 34.2531L62.0539 6.45014C63.0187 5.48537 64.5829 5.48537 65.5478 6.45014C66.5126 7.41491 66.5126 8.97924 65.5478 9.94401L37.7449 37.747C37.2625 38.2294 36.6302 38.4705 35.9979 38.4705Z" fill="url(#paint8_linear_4123_87154)"/>
<defs>
<linearGradient id="paint0_linear_4123_87154" x1="-3.11732" y1="35.9989" x2="61.8403" y2="35.9989" gradientUnits="userSpaceOnUse">
<stop stop-color="#FF9AA1"/>
<stop offset="1" stop-color="#F23C49"/>
</linearGradient>
<linearGradient id="paint1_linear_4123_87154" x1="10.4447" y1="36.0008" x2="60.7218" y2="36.0008" gradientUnits="userSpaceOnUse">
<stop stop-color="#F2FBFF"/>
<stop offset="0.593" stop-color="#FAF7F7"/>
<stop offset="1" stop-color="#F3EAE6"/>
</linearGradient>
<linearGradient id="paint2_linear_4123_87154" x1="10.4448" y1="36.0008" x2="60.7218" y2="36.0008" gradientUnits="userSpaceOnUse">
<stop stop-color="white"/>
<stop offset="0.416032" stop-color="#F5F4F8"/>
<stop offset="1" stop-color="#EFECF3"/>
</linearGradient>
<linearGradient id="paint3_linear_4123_87154" x1="29.2255" y1="36.8984" x2="60.8698" y2="36.8984" gradientUnits="userSpaceOnUse">
<stop stop-color="#F3EAE6"/>
<stop offset="1" stop-color="#CDBFBA"/>
</linearGradient>
<linearGradient id="paint4_linear_4123_87154" x1="48.7516" y1="7.58592" x2="63.81" y2="7.58592" gradientUnits="userSpaceOnUse">
<stop stop-color="#FFF9DF"/>
<stop offset="0.593" stop-color="#FFE177"/>
<stop offset="1" stop-color="#FEB137"/>
</linearGradient>
<linearGradient id="paint5_linear_4123_87154" x1="48.7516" y1="7.58592" x2="63.81" y2="7.58592" gradientUnits="userSpaceOnUse">
<stop stop-color="#FFF9DF"/>
<stop offset="0.593" stop-color="#FFE177"/>
<stop offset="1" stop-color="#FEB137"/>
</linearGradient>
<linearGradient id="paint6_linear_4123_87154" x1="48.7516" y1="7.58592" x2="63.81" y2="7.58592" gradientUnits="userSpaceOnUse">
<stop stop-color="#FFF9DF"/>
<stop offset="0.593" stop-color="#FFE177"/>
<stop offset="1" stop-color="#FEB137"/>
</linearGradient>
<linearGradient id="paint7_linear_4123_87154" x1="48.7516" y1="7.58592" x2="63.81" y2="7.58592" gradientUnits="userSpaceOnUse">
<stop stop-color="#FFF9DF"/>
<stop offset="0.593" stop-color="#FFE177"/>
<stop offset="1" stop-color="#FEB137"/>
</linearGradient>
<linearGradient id="paint8_linear_4123_87154" x1="33.6302" y1="22.0985" x2="65.7949" y2="22.0985" gradientUnits="userSpaceOnUse">
<stop stop-color="#3BCFFE"/>
<stop offset="1" stop-color="#3C76F2"/>
</linearGradient>
</defs>
</svg>
