<svg width="22" height="24" viewBox="0 0 22 24" fill="none" xmlns="http://www.w3.org/2000/svg">
<path d="M0.916687 8.47696C0.916687 8.47696 0.916687 8.10526 10.498 2.68363C10.8048 2.51003 11.1946 2.51123 11.5004 2.68659C21.0834 8.18193 21.0834 8.47696 21.0834 8.47696M0.916687 8.47696L1.31848 9.50347C1.4685 9.88677 1.83807 10.139 2.24968 10.139H4.65942C5.36406 10.139 6.03823 9.77853 6.34603 9.14467C6.42364 8.98484 6.47019 8.86477 6.44626 8.84546C6.42268 8.82644 6.46751 8.9273 6.54306 9.08008C6.86918 9.73962 7.55561 10.139 8.29137 10.139H11M0.916687 8.47696H21.0834M21.0834 8.47696L20.6816 9.50347C20.5315 9.88677 20.162 10.139 19.7504 10.139H17.3406C16.636 10.139 15.9618 9.77855 15.654 9.14471C15.5764 8.98486 15.5298 8.86477 15.5538 8.84546C15.5774 8.82644 15.5325 8.92731 15.457 9.08011C15.1309 9.73964 14.4444 10.139 13.7087 10.139H11M11 10.139V21.5999M11 21.5999H9.69895M11 21.5999H12.3011" stroke="#9691A4" stroke-linecap="round"/>
</svg>
