<svg width="18" height="21" viewBox="0 0 18 21" fill="none" xmlns="http://www.w3.org/2000/svg">
<path fill-rule="evenodd" clip-rule="evenodd" d="M8.99998 7.49975C7.89541 7.49975 6.99998 8.39518 6.99998 9.49975C6.99998 10.6043 7.89541 11.4997 8.99998 11.4997C10.1045 11.4997 11 10.6043 11 9.49975C11 8.39518 10.1045 7.49975 8.99998 7.49975ZM4.99998 9.49975C4.99998 7.29061 6.79084 5.49975 8.99998 5.49975C11.2091 5.49975 13 7.29061 13 9.49975C13 11.7089 11.2091 13.4997 8.99998 13.4997C6.79084 13.4997 4.99998 11.7089 4.99998 9.49975Z" fill="#1F1B2D"/>
<path fill-rule="evenodd" clip-rule="evenodd" d="M9 2.5C7.61555 2.5 6.26219 2.91053 5.11105 3.67969C3.95991 4.44884 3.06271 5.54207 2.53288 6.82113C2.00306 8.10019 1.86441 9.50764 2.13448 10.8655C2.40455 12.2234 3.0712 13.4706 4.05013 14.4496L8.29375 18.6922C8.48126 18.8796 8.73546 18.9848 9.0005 18.9848C9.26554 18.9848 9.51975 18.8796 9.70725 18.6922L13.9499 14.4496C14.9288 13.4706 15.5955 12.2233 15.8655 10.8655C16.1356 9.50764 15.997 8.10019 15.4671 6.82113C14.9373 5.54207 14.0401 4.44884 12.889 3.67969C11.7378 2.91053 10.3845 2.5 9 2.5ZM15.3641 15.8638C16.6228 14.6051 17.4799 13.0015 17.8271 11.2556C18.1743 9.50982 17.9961 7.70025 17.3149 6.05574C16.6337 4.41123 15.4801 3.00565 14.0001 2.01674C12.5201 1.02783 10.78 0.5 9 0.5C7.21999 0.5 5.47995 1.02783 3.99992 2.01674C2.51989 3.00565 1.36633 4.41123 0.685133 6.05574C0.00393033 7.70025 -0.174327 9.50982 0.172903 11.2556C0.520132 13.0015 1.37725 14.6051 2.63588 15.8638L6.87998 20.1069C7.4425 20.6688 8.20538 20.9848 9.0005 20.9848C9.79563 20.9848 10.5582 20.6691 11.1208 20.1072L15.3641 15.8638Z" fill="#1F1B2D"/>
</svg>
