<svg width="10" height="15" viewBox="0 0 10 15" fill="none" xmlns="http://www.w3.org/2000/svg">
<path fill-rule="evenodd" clip-rule="evenodd" d="M4.99997 2.16683C3.8954 2.16683 2.99997 3.06226 2.99997 4.16683C2.99997 5.2714 3.8954 6.16683 4.99997 6.16683C6.10454 6.16683 6.99997 5.2714 6.99997 4.16683C6.99997 3.06226 6.10454 2.16683 4.99997 2.16683ZM1.66664 4.16683C1.66664 2.32588 3.15902 0.833496 4.99997 0.833496C6.84092 0.833496 8.33331 2.32588 8.33331 4.16683C8.33331 6.00778 6.84092 7.50016 4.99997 7.50016C3.15902 7.50016 1.66664 6.00778 1.66664 4.16683Z" fill="black"/>
<path fill-rule="evenodd" clip-rule="evenodd" d="M3.66667 10.1668C3.13623 10.1668 2.62752 10.3775 2.25245 10.7526C1.87738 11.1277 1.66667 11.6364 1.66667 12.1668V13.5002C1.66667 13.8684 1.36819 14.1668 0.999999 14.1668C0.631809 14.1668 0.333332 13.8684 0.333332 13.5002V12.1668C0.333332 11.2828 0.684521 10.4349 1.30964 9.80981C1.93476 9.18469 2.78261 8.8335 3.66667 8.8335H6.33333C7.21739 8.8335 8.06523 9.18469 8.69035 9.80981C9.31548 10.4349 9.66667 11.2828 9.66667 12.1668V13.5002C9.66667 13.8684 9.36819 14.1668 9 14.1668C8.63181 14.1668 8.33333 13.8684 8.33333 13.5002V12.1668C8.33333 11.6364 8.12262 11.1277 7.74755 10.7526C7.37247 10.3775 6.86376 10.1668 6.33333 10.1668H3.66667Z" fill="black"/>
</svg>
